<?xml version="1.0" encoding="UTF-8"?>
<svg width="24px" height="24px" viewBox="0 0 24 24" version="1.1" xmlns="http://www.w3.org/2000/svg" xmlns:xlink="http://www.w3.org/1999/xlink">
    <!-- Generator: Sketch 52.5 (67469) - http://www.bohemiancoding.com/sketch -->
    <title>ic/nav/bank</title>
    <desc>Created with Sketch.</desc>
    <g id="ic/nav/bank" stroke="none" stroke-width="1" fill="none" fill-rule="evenodd" fill-opacity="0.54">
        <path d="M23.9956473,11.3818248 C24.258254,10.6422321 12.5554477,-0.324892751 11.2942089,0.007398905 C10.0320613,0.339690561 -0.722089777,11.4860879 0.0384699597,12.1671733 C0.242921502,12.3479459 2.0239216,12.4304563 4.53276919,12.4372071 L6.44007491,18.450711 C4.38102071,18.6014799 2.92623441,18.7372469 2.83536706,18.8115062 C2.62728082,18.9832777 2.61819408,19.9914041 2.68089256,20.7692516 C1.46963075,20.8555124 0.707253671,20.9275215 0.650007239,20.9755275 C0.321976098,21.2448112 0.485537332,23.5903553 0.650007239,23.8386364 C0.814477146,24.0869175 23.4377218,24.0179089 23.7121412,23.8386364 C23.9856519,23.6586138 23.9311315,20.2756898 23.7121412,19.9584 C23.6721596,19.902893 22.9206866,19.8893913 21.7103334,19.910394 C21.7085161,18.9630252 21.6412742,17.9586493 21.52769,17.7951288 C21.4695349,17.7103682 20.1256068,17.7238699 18.1855888,17.796629 L19.0433766,11.9931514 C21.8902508,11.813879 23.9175014,11.5993521 23.9956473,11.3818248 Z M9.94482868,6.38994903 C10.2910333,5.06528297 11.6004318,4.17492135 12.8698487,4.40069965 C14.138357,4.62647796 14.8861953,5.88213537 14.5399907,7.20755152 C14.2592106,8.2786858 13.350537,9.06553444 12.3419094,9.2088024 L11.5958885,9.19230033 C10.3401017,8.95527062 9.59953274,7.70636405 9.94482868,6.38994903 Z M7.94029489,12.4117039 C8.66905106,12.3997024 9.41870671,12.3847005 10.1792664,12.3651981 L10.7408267,18.1694257 C10.2247001,18.2001796 9.71311693,18.2324336 9.21516384,18.2631875 L7.94029489,12.4117039 Z M15.3750616,17.9188943 C14.7780631,17.9473979 14.1592565,17.980402 13.5340891,18.0141562 L13.5222763,12.2631853 C14.2528498,12.2361819 14.9752453,12.2069282 15.6794673,12.1746742 L15.3750616,17.9188943 Z" id="Shape" fill="#FFFFFF"></path>
    </g>
</svg>