<?xml version="1.0" encoding="UTF-8"?>
<svg width="24px" height="24px" viewBox="0 0 24 24" version="1.1" xmlns="http://www.w3.org/2000/svg" xmlns:xlink="http://www.w3.org/1999/xlink">
    <!-- Generator: Sketch 52.5 (67469) - http://www.bohemiancoding.com/sketch -->
    <title>ic/3.var/beer</title>
    <desc>Created with Sketch.</desc>
    <g id="ic/3.var/beer" stroke="none" stroke-width="1" fill="none" fill-rule="evenodd">
        <path d="M20.6656182,13.9929413 C20.6927403,10.5296856 21.0825235,7.18117189 20.9841091,6.98093602 C20.8020036,6.60821232 20.0100383,6.45072343 20.0100383,6.45072343 C21.2258832,5.03707318 20.3757992,3.62267298 20.3757992,3.62267298 C18.9747492,1.67806019 17.696911,3.68116885 17.696911,3.68116885 C18.3664393,0.205164119 15.4442271,0.0281766072 15.4442271,0.0281766072 C12.690172,-0.352046564 12.530539,3.23195055 12.5227899,3.78466155 C12.5165905,3.39093933 12.3577325,1.53032062 9.90512011,2.11077966 C7.16423853,2.75948389 8.15225776,6.0982483 8.15225776,6.0982483 C8.15225776,6.0982483 7.22778173,7.08067898 7.4083374,7.51189856 C7.5904429,7.94386808 8.01742219,7.92436945 8.01742219,7.92436945 C8.08329014,8.34733961 8.09646373,9.17603114 8.07786572,10.2214574 C8.07554097,10.2222073 4.79066763,10.7719185 4.38383618,11.3613769 C3.97855457,11.9508353 3.7755263,18.5488698 4.38383618,19.0603337 C4.99214606,19.5717976 7.84306586,19.9617701 7.84306586,19.9617701 C7.86398862,20.6277231 7.91900773,21.0896905 8.01742219,21.2396799 C8.3134405,21.6963977 12.2701669,24.3062136 15.6674032,23.9702373 C18.556294,23.6845074 20.9841091,21.1811841 20.9841091,20.4747339 C20.9841091,20.1455071 20.6415957,16.9859801 20.6656182,13.9929413 Z M7.79638135,18 C7.11948694,17.9170703 5.69258407,17.7193148 5.31679367,17.4783225 C4.81442953,17.1586533 4.98267041,13.0334318 5.31679367,12.6641465 C5.57544439,12.3792085 7.25549476,12.1084465 8,12 C7.93317535,13.9506202 7.82232504,16.237212 7.79638135,18 Z M8.479,11 L8.521,10 C8.512,10.3107658 8.499,10.6476138 8.479,11 Z M11.7041743,22 C10.2249126,21.6027844 9,20.8159627 9,20.8159627 C9,20.8159627 9.25919378,11.6975054 9.63708377,11.2987678 C10.0149738,10.9000303 11.4877758,10.9007913 11.8656658,11.2987678 C12.2435558,11.6982663 11.7041743,22 11.7041743,22 Z M16.9922504,22.7221591 C15.1305276,23.2562064 13.0068455,22.8560579 13.0068455,22.8560579 C13.0068455,22.8560579 12.9351774,11.8214018 13.2556244,11.3353413 C13.5768952,10.8485068 16.4996352,10.9297749 16.7813649,11.3353413 C17.0622709,11.7409077 16.9922504,22.7221591 16.9922504,22.7221591 Z M18.2850371,22 C18.2850371,22 17.8234251,11.6785095 18.0750849,11.2904724 C18.3288655,10.9031759 19.3164183,10.9031759 19.569492,11.2904724 C19.8225657,11.677769 20,20.8855041 20,20.8855041 C20,20.8855041 19.3263151,21.5208779 18.2850371,22 Z" id="Shape" fill="#FFE524"></path>
    </g>
</svg>