<?xml version="1.0" encoding="UTF-8"?>
<svg width="24px" height="24px" viewBox="0 0 24 24" version="1.1" xmlns="http://www.w3.org/2000/svg" xmlns:xlink="http://www.w3.org/1999/xlink">
    <!-- Generator: Sketch 52.5 (67469) - http://www.bohemiancoding.com/sketch -->
    <title>ic/2.rec/broadband</title>
    <desc>Created with Sketch.</desc>
    <g id="ic/2.rec/broadband" stroke="none" stroke-width="1" fill="none" fill-rule="evenodd">
        <path d="M4.13408189,16.8658306 C2.73335066,13.0123579 12.5789236,0.758904577 20.9919798,13.9941579 C21.0887812,14.1495993 20.2991994,15.0349395 19.1708125,16.1605075 C15.1723352,10.7280448 11.431032,11.5814367 11.431032,11.5814367 C6.63574886,12.3623301 5.82955183,17.9963136 5.82882943,18 C5.04719395,17.4888251 4.18464981,17.0065266 4.13408189,16.8658306 Z M1.38563666,14.6214038 C-1.40163952,9.35322012 11.4113497,-8.02585672 23.9864358,9.9590548 C24.1323402,10.1678744 23.0851351,11.4291707 21.6181855,13.0178754 C17.5285513,5.45267597 11.4983174,6.31502364 11.4983174,6.31502364 C3.20764416,7.41777166 3.09623936,15.9929104 3.09552062,16 C2.07850263,15.2787989 1.48410412,14.8070213 1.38563666,14.6214038 Z M11.1087355,13.138685 C15.0135998,12.1060251 17.9993042,17.1790259 18,17.1803838 L15.7511544,19.583134 C15.7511544,19.583134 14.058258,15.8578188 11.6333734,16.3364678 C11.6333734,16.3364678 9.38383199,16.5340379 8.46049719,20 C7.95951673,19.6551011 7.46201531,19.3061286 7,18.9754874 C7.7987855,15.4409529 9.27806945,13.6227655 11.1087355,13.138685 Z M12.1233522,18.0030805 C12.1233522,18.0030805 13.854587,17.8320181 15,20.0393812 C13.8909066,21.1618139 13.0131827,21.9802818 12.8517622,21.9993618 C12.6486414,22.0250212 11.4191552,21.2736624 10,20.3282136 C10.0006726,20.3255818 10.4459241,18.2504631 12.1233522,18.0030805 Z" id="Combined-Shape" fill="#FF7777"></path>
    </g>
</svg>