<?xml version="1.0" encoding="UTF-8"?>
<svg width="24px" height="24px" viewBox="0 0 24 24" version="1.1" xmlns="http://www.w3.org/2000/svg" xmlns:xlink="http://www.w3.org/1999/xlink">
    <!-- Generator: Sketch 52.5 (67469) - http://www.bohemiancoding.com/sketch -->
    <title>ic/3.var/cash</title>
    <desc>Created with Sketch.</desc>
    <g id="ic/3.var/cash" stroke="none" stroke-width="1" fill="none" fill-rule="evenodd">
        <rect fill="#000000" x="0" y="0" width="24" height="24"></rect>
        <path d="M1.91475,6.55830262 L24,4 L24,17.6394858 L22.90575,17.5869819 L22.90575,5.31187629 L1.9785,7.73496359 L1.91475,6.55830262 Z M0.54675,18.9506428 L-1.45661261e-13,8.91809764 L22.08375,6.36051425 L22.08375,20 L0.54675,18.9506428 Z M16.3095,12.855165 C16.0785,13.882226 16.59525,14.8603794 17.46225,15.0387485 C18.32925,15.2185561 19.218,14.5316911 19.44975,13.5039108 C19.6815,12.477569 19.16325,11.5001349 18.297,11.3210465 C17.43075,11.1419581 16.54125,11.8273847 16.3095,12.855165 Z M8.5965,13.0917918 C8.5905,13.3054032 8.598,13.5449069 8.61675,13.7570799 L8.45925,13.7628338 C8.13075,13.772903 7.93725,13.8671222 7.8015,14.5266565 L8.72025,14.4993257 C9.09525,16.3017172 10.28175,17.2216129 12.11925,17.1655129 C12.7485,17.1460937 13.2675,16.9928976 13.48425,16.8087746 C13.635,16.6016362 13.74375,16.3089095 13.78125,15.867302 L13.72875,15.8557943 C13.4715,15.9629596 12.93825,16.1298211 12.492,16.1434865 C11.4825,16.1758518 10.67625,15.6601636 10.347,14.4482604 L11.94825,14.3993527 C12.408,14.3856873 12.56325,14.306572 12.711,13.6326531 L10.2045,13.7096107 C10.185,13.4959993 10.17675,13.2564955 10.18275,13.0421649 L12.2955,12.9774341 C12.729,12.964488 12.90975,12.8954419 13.0455,12.2114537 L10.278,12.2963229 C10.4895,11.1685696 11.1615,10.46732 12.1725,10.4363931 C12.46125,10.4277623 12.8985,10.501843 13.164,10.632743 C13.34625,10.5895891 13.48725,10.4716354 13.53375,10.3069316 C13.608,10.1781893 13.614,9.9645779 13.55625,9.80203183 C13.30125,9.60783961 12.78225,9.41005125 12.0075,9.43378585 C10.18425,9.48916659 9.01725,10.7348737 8.6895,12.3445114 C8.6505,12.3459498 8.58525,12.3481075 8.57175,12.3481075 C8.283,12.3574575 8.13075,12.5135305 8.019,13.1090533 L8.5965,13.0917918 Z M2.66625,13.451407 C2.4795,14.2813989 2.8965,15.0725524 3.5985,15.2171177 C4.3005,15.361683 5.01975,14.8049987 5.2065,13.975726 C5.39325,13.1457341 4.9755,12.3552998 4.27425,12.2100153 C3.57225,12.06545 2.853,12.6214151 2.66625,13.451407 Z" id="Combined-Shape" fill="#FFE524"></path>
    </g>
</svg>