<?xml version="1.0" encoding="UTF-8"?>
<svg width="24px" height="24px" viewBox="0 0 24 24" version="1.1" xmlns="http://www.w3.org/2000/svg" xmlns:xlink="http://www.w3.org/1999/xlink">
    <!-- Generator: Sketch 52.5 (67469) - http://www.bohemiancoding.com/sketch -->
    <title>ic/2.rec/debt</title>
    <desc>Created with Sketch.</desc>
    <g id="ic/2.rec/debt" stroke="none" stroke-width="1" fill="none" fill-rule="evenodd">
        <path d="M21.5075789,13.8780522 C21.4970526,14.8797913 20.6444211,15.756313 19.6012632,15.7145739 C18.5286316,15.7041391 17.7170526,14.9006609 17.7286316,13.836313 C17.7286316,12.7824 18.5707368,11.9580522 19.6233684,11.9580522 C20.6654737,11.968487 21.5181053,12.8345739 21.5075789,13.8780522 Z M11.1914737,23.488487 C11.0441053,23.8224 10.7704211,23.9893565 10.4125263,23.9799652 C10.0441053,23.9580522 9.77042105,23.7608348 9.67568421,23.3945739 C9.63357895,23.2495304 9.62305263,23.0721391 9.68621053,22.936487 C10.0862105,21.9754435 10.5177895,21.036313 10.9388421,20.0867478 C11.2546316,19.3876174 11.5809474,18.6989217 11.8651579,17.9799652 C12.0230526,17.5615304 12.3388421,17.2797913 12.6546316,16.9980522 C12.7072632,16.9458783 12.7598947,16.8947478 12.8230526,16.8530087 C12.8125263,16.8310957 12.8125263,16.8112696 12.802,16.7893565 C12.6230526,16.7997913 12.4441053,16.8112696 12.2651579,16.8206609 C11.9914737,16.8310957 11.7177895,16.8624 11.4441053,16.8624 C11.0335789,16.8624 10.7283158,16.5702261 10.7177895,16.1956174 C10.7072632,15.7771826 10.9493684,15.5069217 11.402,15.4745739 C11.8756842,15.4328348 12.3598947,15.4015304 12.8441053,15.3389217 C13.8441053,15.2137043 14.7914737,14.9110957 15.6967368,14.4832696 C16.3283158,14.1806609 16.9914737,14.3997913 17.2872632,15.0050087 C17.4967368,15.4328348 17.402,15.9754435 17.0441053,16.3093565 C16.7914737,16.5389217 16.5177895,16.7476174 16.2546316,16.9667478 C15.7083158,17.4258783 15.1704211,17.8850087 14.6230526,18.3347478 C14.4862105,18.4380522 14.5493684,18.5017043 14.6441053,18.5841391 C15.1388421,19.0537043 15.6230526,19.5232696 16.1177895,19.9834435 C16.2346316,20.0867478 16.2862105,20.2025739 16.2546316,20.3580522 C16.1493684,20.8380522 16.0546316,21.3295304 15.9493684,21.8095304 C15.8441053,22.3093565 15.7177895,22.8112696 15.6125263,23.3110957 C15.5177895,23.728487 15.1177895,24.0415304 14.7283158,23.9799652 C14.2546316,23.9058783 13.9493684,23.5302261 14.0125263,23.0721391 C14.0756842,22.6537043 14.1809474,22.2258783 14.2651579,21.8095304 C14.3388421,21.4745739 14.4230526,21.1521391 14.4756842,20.8276174 C14.4967368,20.7660522 14.4651579,20.6710957 14.4230526,20.6304 C14.0546316,20.2641391 13.6862105,19.9093565 13.3177895,19.5545739 C13.2546316,19.5034435 13.1809474,19.4710957 13.0651579,19.3980522 C12.8862105,19.764313 12.7283158,20.1086609 12.5704211,20.4634435 C12.1072632,21.4651826 11.6546316,22.476313 11.1914737,23.488487 Z M5.57063158,0.834573913 C5.80221053,0.625878261 6.05484211,0.427617391 6.318,0.250226087 C6.42326316,0.187617391 6.518,0.239791304 7.16010526,0.678052174 C7.37063158,0.813704348 7.67589474,1.03283478 7.78115789,1.07457391 C8.94957895,0.365008696 10.2969474,-0.000208695652 11.6758947,-0.000208695652 C15.8548421,-0.000208695652 19.2443158,3.3597913 19.2443158,7.5024 C19.2443158,11.6345739 15.8548421,15.0050087 11.6758947,15.0050087 C7.50747368,15.0050087 4.118,11.6345739 4.118,7.5024 C4.118,5.95805217 4.58115789,4.47631304 5.46536842,3.21370435 C5.41273684,3.1197913 5.19168421,2.85892174 5.03378947,2.66066087 C4.56010526,2.08674783 4.48642105,1.99283478 4.57063158,1.88848696 C4.76010526,1.63805217 4.97063158,1.39805217 5.20221053,1.17892174 C5.18115789,1.16848696 5.16010526,1.14761739 5.13905263,1.12674783 C5.09694737,1.0850087 4.32852632,0.125008696 2.39168421,1.15805217 C2.26536842,1.23109565 2.10747368,1.18935652 2.03378947,1.05370435 C1.96010526,0.928486957 2.01273684,0.771965217 2.13905263,0.709356522 C4.50747368,-0.563686957 5.518,0.761530435 5.56010526,0.82413913 C5.56010526,0.82413913 5.56010526,0.834573913 5.57063158,0.834573913 Z M9.76010526,4.21544348 C9.66536842,4.09022609 9.57063158,4.06935652 9.44431579,4.18413913 C9.23378947,4.37196522 9.02326316,4.53892174 8.80221053,4.71631304 C8.66536842,4.82066087 8.64431579,4.91457391 8.77063158,5.05022609 C8.81273684,5.08153043 8.83378947,5.13370435 8.87589474,5.1650087 C9.16010526,5.41544348 9.19168421,5.63457391 8.98115789,5.98935652 C8.46536842,6.91805217 8.87589474,8.0450087 9.82326316,8.43109565 C10.3495789,8.6397913 10.8653684,8.53544348 11.3811579,8.38935652 C11.7495789,8.27457391 12.118,8.14935652 12.4969474,8.07631304 C12.6022105,8.0450087 12.8022105,8.13892174 12.8548421,8.23283478 C12.9074737,8.33718261 12.8653684,8.51457391 12.8022105,8.62935652 C12.6127368,9.0050087 12.2337895,9.17196522 11.8758947,9.32848696 C11.5916842,9.45370435 11.2864211,9.53718261 10.9601053,9.64153043 C11.1390526,10.0171826 11.3285263,10.3824 11.4864211,10.7580522 C11.5601053,10.9354435 11.6548421,10.9771826 11.8232632,10.9145739 C12.1706316,10.7789217 12.5285263,10.6432696 12.8653684,10.476313 C13.1390526,10.3302261 13.1495789,10.2989217 13.3495789,10.5493565 C13.4337895,10.6432696 13.518,10.7371826 13.5916842,10.8310957 C13.6758947,10.9458783 13.7706316,10.9458783 13.8758947,10.8519652 C14.0969474,10.6641391 14.318,10.476313 14.5495789,10.2989217 C14.6864211,10.1945739 14.6758947,10.1006609 14.5601053,9.97544348 C14.4327368,9.8397913 14.318,9.68326957 14.2022105,9.53718261 C14.118,9.44326957 14.118,9.37022609 14.1916842,9.25544348 C14.3074737,9.07805217 14.4022105,8.89022609 14.4748421,8.69196522 C14.8969474,7.47109565 13.9390526,6.09370435 12.5074737,6.3024 C12.1916842,6.35457391 11.8969474,6.45892174 11.5916842,6.5424 C11.2969474,6.61544348 11.0127368,6.70935652 10.7074737,6.75109565 C10.4653684,6.79283478 10.3390526,6.59457391 10.4443158,6.3650087 C10.4758947,6.3024 10.5285263,6.2397913 10.5811579,6.18761739 C10.9285263,5.84326957 11.3390526,5.60326957 11.8232632,5.48848696 C11.9390526,5.45718261 12.1285263,5.44674783 12.0232632,5.22761739 C11.8653684,4.90413913 11.718,4.57022609 11.5390526,4.24674783 C11.5074737,4.19457391 11.3706316,4.12153043 11.318,4.1424 C11.0127368,4.25718261 10.7074737,4.3824 10.4232632,4.53892174 C10.2337895,4.63283478 10.0969474,4.67457391 9.96010526,4.46587826 C9.90747368,4.37196522 9.82326316,4.30935652 9.76010526,4.21544348 Z" id="Combined-Shape" fill="#FF7777"></path>
    </g>
</svg>