<?xml version="1.0" encoding="UTF-8"?>
<svg width="24px" height="24px" viewBox="0 0 24 24" version="1.1" xmlns="http://www.w3.org/2000/svg" xmlns:xlink="http://www.w3.org/1999/xlink">
    <!-- Generator: Sketch 52.5 (67469) - http://www.bohemiancoding.com/sketch -->
    <title>ic/3.var/education</title>
    <desc>Created with Sketch.</desc>
    <g id="ic/3.var/education" stroke="none" stroke-width="1" fill="none" fill-rule="evenodd">
        <path d="M21.5943913,18.8805058 C20.3757808,18.8805058 19.3988528,17.6767634 19.3988528,16.197206 C19.3988528,14.7176486 20.3757808,13.5139061 21.5943913,13.5139061 C21.6790312,13.5139061 21.751434,13.5139061 21.8258764,13.5241594 C22.9292543,13.6718076 23.7899299,14.8130047 23.7899299,16.197206 C23.7899299,17.5383432 22.981262,18.6477549 21.9309114,18.8497458 C21.8258764,18.8702525 21.709624,18.8805058 21.5943913,18.8805058 M18.5259401,9.73144786 C17.4439771,10.1323536 16.3089866,10.5978553 15.3728489,10.9885077 L15.3636711,10.9885077 C15.1627788,11.0838638 14.9741236,11.1576879 14.795666,11.2417653 C13.9135755,11.6221643 13.3251753,11.8867006 13.3037604,11.8969539 C13.292543,11.8969539 13.2833652,11.9072072 13.2721479,11.9072072 C12.7887827,12.3932157 12.315615,12.6157132 11.8740599,12.5941812 C11.4753346,12.5736745 11.065392,12.351177 10.6972594,11.9072072 C10.6656469,11.8867006 10.6452518,11.8651685 10.6238368,11.8333832 C10.6136393,11.8231298 10.6034417,11.8128765 10.5820268,11.8026231 C10.1302741,11.5903789 9.68871893,11.4006921 9.27877629,11.2212586 C9.0901211,11.1361559 8.91064372,11.0520784 8.73218611,10.977229 C7.41975781,10.4071432 6.34697259,9.97445209 5.46488209,9.64634511 C5.26500956,9.57252104 5.07533461,9.50895031 4.89687699,9.43512624 C4.63479924,9.35104883 4.39311663,9.26697142 4.17182919,9.19212201 C4.1402167,9.18186867 4.09840663,9.17161533 4.06679414,9.16136199 C4.02498407,9.15008331 3.99337157,9.13982997 3.96175908,9.12855129 C3.44678139,8.96039646 3.04805609,8.84350835 2.7431485,8.76968428 L2.80637349,8.70611356 C2.9848311,8.52668005 3.17450605,8.26316914 3.1418738,7.91353014 C3.31013384,7.95659418 3.59464627,8.03041825 3.96175908,8.13602768 C3.99337157,8.14628103 4.02498407,8.1575597 4.06679414,8.16781305 C4.09840663,8.17806639 4.13001912,8.18831973 4.17182919,8.19959841 C4.28808158,8.2201051 4.41351179,8.26316914 4.53996176,8.29392917 C4.69802422,8.33699321 4.8652645,8.38928526 5.04474187,8.43132396 C5.60152964,8.59025078 6.23173996,8.76968428 6.87214786,8.96039646 C8.14480561,9.32951681 9.27877629,9.77348656 10.1088591,10.1221002 C10.256724,10.185671 10.3821542,10.2492417 10.5086042,10.2912804 C10.8869344,10.4707139 11.170427,10.6081087 11.3070746,10.6932114 L11.7904398,10.9567223 C11.8220523,10.977229 11.8536648,10.977229 11.8852772,10.9567223 L12.3890376,10.7137181 C12.5889101,10.6296407 12.9784576,10.4604605 13.5026131,10.2492417 C13.6290631,10.207203 13.7657106,10.1538856 13.9023582,10.1005682 C14.732441,9.78373991 15.7940089,9.39308754 16.9289994,9.02294186 C17.5592097,8.82197633 18.3046526,8.60050412 19.0093053,8.38928526 C19.1775653,8.34724655 19.334608,8.30520784 19.4926705,8.25189046 C19.650733,8.20985175 19.7975781,8.17806639 19.9444232,8.13602768 C19.987253,8.12577434 20.0178458,8.11449566 20.0494583,8.11449566 C20.0912683,8.10424232 20.1239006,8.09296364 20.1544933,8.0827103 C20.3339707,8.04067159 20.5022307,7.99863289 20.6480561,7.96684752 C20.6806883,8.1575597 20.7857234,8.52668005 21.0590185,8.84350835 C21.0681963,8.86504037 21.090631,8.88554706 21.1110261,8.90707908 C20.8163161,8.98090315 20.5022307,9.0660059 20.1544933,9.17161533 C20.1239006,9.18186867 20.0912683,9.19212201 20.0494583,9.20340069 C20.0178458,9.21365404 19.987253,9.22390738 19.9444232,9.23416072 C19.6711281,9.32951681 19.3876354,9.4248729 19.1041428,9.52022899 C18.9144678,9.59405306 18.715615,9.65762379 18.5259401,9.73144786 M2.40662843,18.8589738 C2.22817081,18.8589738 2.05991077,18.8384671 1.90184831,18.7851497 C0.936137667,18.5011321 0.211089866,17.4337591 0.211089866,16.1664459 C0.211089866,14.8130047 1.04117272,13.6830863 2.11293818,13.5036528 C2.2067559,13.4923741 2.30159337,13.4821207 2.40662843,13.4821207 C3.61504143,13.4821207 4.60318674,14.6858632 4.60318674,16.1664459 C4.60318674,17.644978 3.61504143,18.8589738 2.40662843,18.8589738 M4.1932441,7.67052591 C4.34008923,7.73409664 4.42472913,7.87149143 4.47673678,8.05092494 C4.37170172,8.03041825 4.277884,8.00888623 4.18304653,7.97710087 C4.17182919,7.87149143 4.18304653,7.765882 4.1932441,7.67052591 M13.1456979,8.07245696 C13.1671128,6.44525142 14.5019758,5.1143675 16.0887189,5.14512753 C17.7386871,5.16665955 19.0297004,6.49754347 19.0205226,8.16781305 C18.2954748,8.37903191 17.5173996,8.62203614 16.8657744,8.82197633 C15.6889739,9.20340069 14.5968133,9.6043064 13.7657106,9.93138805 C13.3669853,9.4248729 13.1355003,8.76968428 13.1456979,8.07245696 M10.256724,9.95292007 C9.42562141,9.6043064 8.23862333,9.13982997 6.92517527,8.75943094 C6.26335245,8.55846542 5.60152964,8.37903191 5.03352454,8.20985175 L5.03352454,8.10424232 C5.03352454,6.47703678 6.35818993,5.13487418 7.97654557,5.14512753 C9.59388145,5.14512753 10.9083493,6.48729013 10.8971319,8.12577434 C10.8971319,8.81172299 10.6554493,9.44537959 10.256724,9.95292007 M10.9501593,9.61455975 C11.1816444,9.13982997 11.3172721,8.62203614 11.4855322,8.11449566 C11.5803697,7.83970607 11.6741874,7.57619516 12.0219248,7.57619516 C12.3574251,7.57619516 12.4624602,7.81817405 12.5471001,8.09296364 C12.6419375,8.41081728 12.7255577,8.72764558 12.8305927,9.04447388 C12.9570427,9.4248729 13.1355003,9.78373991 13.3669853,10.0903149 C12.8622052,10.281027 12.4838751,10.4389285 12.2952199,10.5240313 L11.8424474,10.7455035 L11.4121096,10.5024993 C11.2754621,10.4286752 11.002167,10.2912804 10.6340344,10.1323536 C10.7604844,9.97445209 10.8655194,9.80527193 10.9501593,9.61455975 M12.0219248,0.211218866 L12.08413,0.211218866 C15.9204589,0.211218866 19.1357553,3.0011535 19.8077757,6.66672363 C19.5762906,6.58264622 19.3458254,6.45550476 19.1459528,6.30785662 C18.7686424,6.04332037 18.4423199,5.69573205 18.0854047,5.40966378 C17.5173996,4.96671936 16.8657744,4.75447516 16.1509242,4.74422181 C15.0057361,4.71243645 14.0818356,5.19844491 13.3873805,6.06485239 C12.9468451,6.60417824 12.4950924,6.9527919 11.7690249,6.84718247 C11.5171447,6.80514376 11.3070746,6.77233306 11.128617,6.57239287 C10.8553219,6.27607126 10.5820268,5.95924296 10.2883365,5.68445337 C9.46845124,4.91340197 8.50172084,4.62835904 7.39834289,4.78626052 C6.44181007,4.91340197 5.74837476,5.51527321 5.08655194,6.12842312 C4.84486934,6.34989533 4.60318674,6.55086085 4.30847674,6.65647029 C4.99171447,3.0011535 8.18661568,0.211218866 12.0219248,0.211218866 M19.9342256,7.92480882 C19.818993,7.9453155 19.7037604,7.97710087 19.587508,8.00888623 C19.6609305,7.87149143 19.7975781,7.71256462 19.9230083,7.67052591 C19.9342256,7.75562866 19.9444232,7.83970607 19.9342256,7.92480882 M24,16.197206 C24,14.6971419 23.0444869,13.4605887 21.8360739,13.3129406 C21.941109,10.8193276 22.1409815,8.66407485 22.1409815,8.66407485 C21.9105163,8.66407485 21.6362014,8.7163669 21.3210962,8.77993763 L21.3108987,8.77993763 C20.8805609,8.3995386 20.8489484,7.83970607 20.8489484,7.82945273 C20.8489484,7.79766736 20.8275335,7.77613534 20.8071383,7.75562866 C20.7857234,7.73409664 20.7541109,7.73409664 20.7224984,7.73409664 C20.5532186,7.765882 20.3543658,7.81817405 20.1442957,7.86123809 C20.1442957,7.765882 20.1442957,7.67052591 20.1330784,7.5864485 C20.2809433,7.50134575 20.2391332,7.33319093 20.2493308,7.17426411 C20.2595284,6.97329859 20.2391332,6.82565045 20.0290631,6.74157303 C19.3876354,2.91605075 16.0560867,0 12.08413,0 L12.0219248,0 C8.04996813,0 4.73983429,2.90579741 4.08820905,6.72004101 C4.05659656,6.74157303 4.01478649,6.74157303 3.983174,6.75182638 C3.62523901,6.80514376 3.78330147,7.11069338 3.76290631,7.31165891 C3.73027406,7.48083907 3.78330147,7.60695518 3.983174,7.6284872 C3.97297642,7.72384329 3.96175908,7.81817405 3.96175908,7.92480882 C3.40497132,7.77613534 3.05825366,7.68180459 3.04805609,7.67052591 C3.00522626,7.66027257 2.97463352,7.67052591 2.94200127,7.70231127 C2.92160612,7.72384329 2.91140854,7.765882 2.92160612,7.79766736 C3.01644359,8.18831973 2.76456342,8.46310933 2.57488846,8.64356816 C2.55449331,8.64356816 2.53307839,8.63228949 2.51166348,8.63228949 L2.49126832,8.63228949 C1.9650733,8.50514803 1.76622052,8.50514803 1.76622052,8.50514803 C2.02829828,9.7417012 2.11293818,11.5063015 2.11293818,13.2924339 C0.924920331,13.4718674 0,14.6858632 0,16.1664459 C0,17.5496219 0.809687699,18.712351 1.89165073,18.9871406 C1.83964308,19.6628359 1.80803059,20.0750203 1.80803059,20.0750203 C5.02332696,20.6030675 10.8022945,23.4555475 10.8022945,23.4555475 C11.3386871,24.1743068 12.7673678,24.1958389 13.1671128,23.4340155 C14.3541109,22.3246038 22.0991714,19.8638014 22.0991714,19.8638014 C22.0359465,19.6310505 21.9941364,19.3562609 21.9523263,19.0609647 C23.1077119,18.8497458 24,17.644978 24,16.197206" id="Fill-1" fill="#FFE524"></path>
    </g>
</svg>