<?xml version="1.0" encoding="UTF-8"?>
<svg width="24px" height="24px" viewBox="0 0 24 24" version="1.1" xmlns="http://www.w3.org/2000/svg" xmlns:xlink="http://www.w3.org/1999/xlink">
    <!-- Generator: Sketch 52.5 (67469) - http://www.bohemiancoding.com/sketch -->
    <title>ic/3.var/family</title>
    <desc>Created with Sketch.</desc>
    <g id="ic/3.var/family" stroke="none" stroke-width="1" fill="none" fill-rule="evenodd">
        <path d="M19.6843173,3.36589636 C19.6843173,3.45759793 20.8253782,3.55948857 20.7956114,3.95686204 C20.7757668,4.21158863 19.5850946,4.18102144 19.5850946,4.18102144 C19.8033845,4.82293244 19.4967864,5.5055997 19.4967864,5.5055997 C19.4967864,5.5055997 19.8926849,5.46484344 20.2994979,5.54635595 C20.2994979,5.54635595 21.2718803,5.71957003 21.5298593,6.05580913 C21.7878383,6.39204823 23.8615924,8.22607966 23.4448571,11.5171472 L23.1174223,12.5869989 C23.1174223,12.5869989 23.3952458,13.1270192 23.1868782,13.3919349 C23.0281219,13.6059052 22.7899874,13.6466615 22.6609979,13.7475332 C22.6609979,13.7475332 22.3930967,13.9115771 22.1053509,13.6976068 C22.1053509,13.6976068 22.9388214,21.4718622 22.700687,21.5126185 L22.4625525,21.5533748 C22.4625525,21.5533748 22.7215238,23.0002218 22.2740294,23.0002218 C21.8275273,23.0002218 20.9345231,22.9798436 20.6170105,22.9390874 C20.3590316,22.9085202 21.1825799,21.9904856 21.0833572,21.7163998 L20.6864664,21.6440574 C20.6864664,21.6440574 20.2598089,15.2157772 19.6545505,14.0939613 C19.6545505,14.0939613 19.1385925,16.621868 19.1485148,17.3137054 C19.158437,18.0075806 18.9699139,21.4300871 18.9699139,21.4300871 L18.8210799,21.5431857 C18.8210799,21.5431857 19.0195253,21.7265888 19.0492921,21.8580278 C19.0790589,21.9904856 19.118748,22.5814513 19.118748,22.5814513 C19.118748,22.5814513 18.4440337,22.714928 18.3547333,22.70372 C18.2753551,22.70372 18.3150442,22.5315249 18.3348887,22.4805795 C18.3348887,22.4805795 18.1066765,22.6537936 17.4617291,22.8473858 C17.1144497,22.9584466 16.2909014,22.9584466 15.8840883,22.8473858 C15.685643,22.7954216 15.6062648,22.7251171 15.6062648,22.6537936 C15.6062648,22.3674809 16.906082,21.9904856 16.906082,21.9904856 L17.2037501,21.6246982 L16.7681625,21.6246982 C16.7681625,21.6246982 16.9160043,17.5276758 16.8961597,16.9275399 C16.8763152,16.3865006 17.5123326,13.1973238 17.6304076,12.617566 C17.6403299,12.5462426 17.6403299,12.4952973 17.6304076,12.4239738 C17.570874,12.1692472 17.42204,11.4050675 17.2930505,10.7224002 L16.7175589,11.7616847 C16.6679476,11.8431972 16.5984917,11.9043316 16.5290358,11.9552769 L15.4881898,12.5156754 C15.4881898,12.5156754 15.5467312,12.9232379 15.427664,13.086263 C15.2986745,13.249288 14.9315505,13.3104224 14.9315505,13.3104224 L15.4971198,22.6629638 L15.4971198,22.714928 C15.4971198,22.714928 15.2887522,22.8769341 15.0903068,22.7546653 C14.8918615,22.6334155 14.535652,13.2900442 14.535652,13.2900442 C14.535652,13.2900442 13.9095568,13.2900442 14.1873804,12.3730285 L14.6934161,11.8330081 C14.6934161,11.8330081 15.169685,11.2726097 15.4772753,11.0280721 C15.5665757,10.9465596 15.6261093,10.844669 15.6459539,10.7325893 C15.7154098,10.2638924 15.8940106,9.081961 16.0626892,8.19551247 C15.8840883,8.30759217 15.1796072,8.75591096 14.653727,8.90874692 C14.2568363,9.02082662 13.1356199,8.04267652 13.1356199,8.04267652 L12.5601283,10.6510768 C12.5601283,10.6510768 13.6912669,11.6088488 13.3935989,13.5549599 C13.2050758,14.8581411 13.4035211,15.1648319 13.4035211,15.1648319 L12.6791955,15.2565335 L12.3716052,16.5087694 C12.3716052,16.5087694 12.6196619,18.8013087 12.1830821,21.2263058 C12.1830821,21.2263058 12.3716052,22.4805795 12.2723825,22.7251171 C12.1731598,22.9584466 11.1213993,22.8575749 10.8832649,22.7954216 C10.6550527,22.7251171 11.4289896,22.0312418 11.478601,21.2069466 C11.5282123,20.3816324 11.2106997,17.5276758 11.2801556,16.5403555 L11.1610884,15.2463444 L10.7145863,15.2463444 L10.4169182,16.4680131 C10.4169182,16.4680131 10.5855968,17.4777493 10.1192502,19.8110449 C10.0696388,20.0555824 10.0597166,20.3918215 9.97041614,21.0337325 L10.149017,21.4810324 C10.149017,21.4810324 10.1192502,22.4296342 10.0795611,22.6436046 L9.81165984,22.6843608 L9.60329219,22.6130374 L9.62313673,21.9507482 C9.62313673,21.9507482 9.32546867,22.5315249 9.21632371,22.6028483 C9.10717875,22.6629638 7.93635104,22.8066296 7.93635104,22.8066296 C7.93635104,22.8066296 7.76767247,22.7658733 7.71806112,22.6945499 C7.66844978,22.6334155 9.22624598,21.4922404 9.19647917,20.9929763 C9.19647917,20.9929763 9.14686783,16.8256493 9.19647917,16.4272569 C9.28577959,15.6844742 9.23616825,15.1240757 9.22624598,15.1444538 L8.68052119,15.0619224 C8.68052119,15.0619224 8.89881111,14.4923537 8.92857791,14.0338459 C8.97818926,13.3409896 9.09725648,12.3628395 10.0597166,10.7529674 C9.83150437,9.91746421 9.5040695,9.54046886 9.44453589,9.01063755 C9.43461362,9.02082662 9.36515774,10.3046486 9.36515774,10.3046486 L8.19433002,12.3526504 C8.2340191,12.5462426 8.19433002,12.7286268 8.17448549,12.8111582 C8.13479641,12.9538051 7.30132583,13.2900442 7.30132583,13.2900442 C6.80521239,14.4108412 6.0411977,14.8285928 6.0411977,14.8285928 L6.31902122,15.1444538 C6.41824391,15.2972897 5.42601703,15.6437179 5.42601703,15.6437179 C5.42601703,15.6844742 5.42601703,15.7354195 5.44586157,15.7965539 C5.5649288,16.4078977 6.5174666,17.9362572 6.57700021,17.90569 L6.14042039,18.1807947 C6.17018719,18.5679791 6.69606744,20.0341854 6.69606744,20.0341854 L6.27933215,20.1880402 C6.29917669,20.2593637 6.72583424,21.8794248 6.72583424,21.8794248 C6.72583424,21.8794248 6.37855484,22.5926592 6.2297208,22.7546653 C6.08088677,22.9288983 5.5946956,22.9288983 5.33671661,22.8677639 C5.07873763,22.8168186 5.07873763,22.5213358 5.20772712,22.4703905 C5.33671661,22.4082372 5.87251913,21.8172715 5.87251913,21.8172715 L5.35656115,20.4223887 L4.98943721,20.5140903 L4.59254645,19.5563183 L4.74138049,20.5548465 L4.54293511,20.6465481 C4.65208007,21.105056 4.52309057,22.2054748 4.52309057,22.2054748 C4.52309057,22.2054748 4.52309057,22.7251171 3.92775445,22.9288983 C3.33241832,23.1224905 2.7966158,22.8168186 2.72715992,22.70372 C2.64778177,22.5926592 3.01490572,22.3674809 3.20342882,22.2971764 C3.39195193,22.2258529 3.75907588,21.9711264 3.75907588,21.9711264 C3.68962,21.6960216 3.63008638,20.6057918 3.63008638,20.6057918 L3.15381748,20.5843948 L2.98513891,18.5272229 C2.98513891,18.5272229 2.81646034,18.5465821 2.64778177,18.4966557 C2.4791032,18.4355213 2.97521664,15.6437179 2.97521664,15.6437179 C2.4493364,15.5112601 1.9730675,14.9202944 1.9730675,14.9202944 L2.22112421,14.6441708 C1.77462212,14.4210303 1.23881961,13.2696661 1.23881961,13.2696661 C0.534338521,13.2289099 0.504571715,12.6990785 0.504571715,12.6990785 C0.435115834,11.8431972 1.17928599,11.9247097 1.22889734,12.0164113 C1.27850868,12.1183019 1.51664313,12.454541 1.51664313,12.454541 C1.51664313,12.454541 1.5265654,11.9450878 1.70516624,12.2201926 C1.88376708,12.4952973 1.72501078,13.1066411 1.72501078,13.1066411 C2.41956959,14.2569864 3.64000865,14.3191397 3.64000865,14.3191397 L3.46140781,13.9727115 C1.18920826,13.3705378 2.36003598,11.2216643 2.36003598,11.2216643 C2.36003598,11.2216643 2.15166833,10.9975049 1.82423346,10.8548581 C1.49679859,10.7122112 1.64563263,9.90727514 1.66547716,10.1110564 C1.6853217,10.3148377 2.23104648,10.2537033 2.23104648,10.2537033 C2.27073556,10.0295439 2.34019144,9.74425013 3.27288471,9.52009073 C4.21550024,9.29593133 5.29702754,10.2333252 5.29702754,10.2333252 C6.95404643,10.5695643 6.26940988,12.2609488 6.0411977,12.9232379 C5.82290778,13.5845082 4.71161368,14.1561146 4.71161368,14.1561146 L4.8009141,14.4302004 C5.57485106,14.2977426 6.78536786,12.8417254 6.78536786,12.8417254 C6.69606744,12.5360535 7.10288046,11.7820628 7.19218088,11.81263 C7.24179222,11.8330081 7.26163676,11.9552769 7.26163676,12.0673566 L8.45230901,9.91746421 C8.49199809,9.93784233 8.44238674,8.08343277 8.31339725,7.22755143 C8.28363044,7.0135811 8.87896657,6.66715294 9.05756741,6.60601856 C9.24609052,6.53469512 10.297851,6.10675445 10.297851,6.10675445 L10.2780065,5.78070441 C10.2780065,5.78070441 9.46438043,6.00486381 9.20640144,6.01505288 C9.20640144,6.01505288 9.33539093,5.59730127 9.27585732,5.37314187 C9.16671236,5.00633559 8.710288,4.78217619 8.45230901,3.84478234 C8.08518507,2.53039315 8.95834472,1.32808365 9.91088252,1.26694927 C9.91088252,1.26694927 10.406996,0.808441413 11.1710107,1.09373519 C12.2823048,1.50129773 12.9867858,2.67304004 12.6791955,3.84478234 C12.6196619,4.07913081 12.4708279,4.3032902 12.3815275,4.56820585 C12.252538,4.9452012 12.3219938,5.15917154 12.8577964,5.6176794 C12.8577964,5.6176794 12.034248,5.90297318 11.1610884,5.64824659 L11.2404665,5.98448568 C11.2404665,5.98448568 12.252538,6.23921227 13.4134434,6.45318261 C13.4134434,6.45318261 13.8897123,7.32944207 14.7727942,7.78794993 C14.9613173,7.8796515 16.2115232,7.16641705 16.3702795,7.09509361 C16.5984917,6.91169047 17.0251492,6.53469512 17.4617291,6.38185916 C17.4617291,6.38185916 17.0251492,6.21883415 16.7284734,5.88259505 C16.3206682,5.42408719 16.1123005,4.6395293 16.2809791,3.86516047 C16.2809791,3.86516047 13.6317333,3.19268228 15.8642438,2.95833382 C16.0527669,2.93795569 16.2115232,2.80549786 16.272049,2.62209472 L16.5984917,1.63375556 C16.648103,1.47073054 16.7870148,1.34846178 16.9457711,1.30770553 C17.8486976,1.12430238 18.8210799,1.26694927 19.6247837,1.82734777 C19.6644727,1.85791496 19.6843173,2.65266191 19.6843173,3.36589636 Z M21.9565168,11.5273362 C21.9565168,11.5273362 22.1748067,11.1401518 22.0557395,10.4065393 C21.8176051,8.81704535 21.3214916,8.47061719 21.3214916,8.47061719 C21.5794706,9.43857822 21.6985378,9.723872 21.9565168,11.5273362 Z" id="Fill-1" fill="#FFE524"></path>
    </g>
</svg>