<?xml version="1.0" encoding="UTF-8"?>
<svg width="24px" height="24px" viewBox="0 0 24 24" version="1.1" xmlns="http://www.w3.org/2000/svg" xmlns:xlink="http://www.w3.org/1999/xlink">
    <!-- Generator: Sketch 52.5 (67469) - http://www.bohemiancoding.com/sketch -->
    <title>ic/3.var/fun</title>
    <desc>Created with Sketch.</desc>
    <g id="ic/3.var/fun" stroke="none" stroke-width="1" fill="none" fill-rule="evenodd">
        <path d="M23.49,16.979 C23.87,14.7 23.71,12.56 23.67,12.049 L23.51,12.089 C19.76,12.91 17.13,12.819 15.57,12.589 C15.519,12.739 15.469,12.879 15.41,13.019 C15.349,13.189 15.28,13.36 15.21,13.519 C15.139,13.679 15.07,13.839 15,13.99 C14.859,14.299 14.71,14.589 14.55,14.87 C14.399,15.139 14.24,15.389 14.07,15.629 C14.07,15.639 14.059,15.65 14.05,15.66 C13.979,15.769 13.889,15.879 13.809,15.99 C14.32,19.509 15.67,23.589 19.24,23.229 C20.78,22.759 22.79,21.29 23.49,16.979 Z M10.679,14.429 C12.3,13.7 13.42,11.319 13.78,10.469 C11.74,11.839 9.36,12.419 7.98,12.37 C6.76,12.339 4.889,11.229 4.27,10.85 C4.67,12.5 5.53,13.7 6.77,14.33 C8.21,15.049 9.78,14.839 10.679,14.429 Z M3.46,6.5 C3.409,6.629 3.37,6.739 3.349,6.819 C3.71,6.839 4.76,6.879 5.429,7.049 C6.05,7.209 7.25,8.1 7.65,8.399 C7.78,7.629 7.59,6.779 7.12,6.1 C6.71,5.509 6.17,5.129 5.58,5.049 C5.53,5.04 5.469,5.04 5.42,5.04 C5.29,5.02 5.159,5.029 5.03,5.049 C4.949,5.049 4.88,5.06 4.809,5.089 C4.69,5.12 4.58,5.16 4.48,5.229 C4.429,5.25 4.389,5.27 4.34,5.31 C4.26,5.359 4.19,5.429 4.12,5.489 C4.08,5.52 4.03,5.569 3.99,5.62 C3.82,5.81 3.679,6.02 3.58,6.219 C3.54,6.319 3.49,6.41 3.46,6.5 Z M11.949,4.799 C10.309,5.439 9.99,7.859 9.929,8.609 C10.389,8.239 11.679,7.279 12.94,6.899 C14.149,6.54 14.88,6.399 15.26,6.459 L15.28,6.459 L15.3,6.459 C15.32,6.419 15.269,6.179 14.969,5.81 C14.51,5.209 13.71,4.649 12.78,4.649 C12.52,4.649 12.24,4.689 11.949,4.799 Z M23.859,11.919 C23.859,11.939 24.12,14.389 23.689,17.009 C23.12,20.5 21.599,22.719 19.28,23.429 C19.12,23.439 18.96,23.45 18.809,23.45 C15.49,23.45 14.17,19.61 13.639,16.2 C12.82,17.2 11.86,17.9 10.77,18.269 C10.19,18.419 9.63,18.49 9.09,18.49 C7.84,18.49 6.719,18.099 5.719,17.33 C0.69,13.439 0.51,0.87 0.5,0.739 C0.5,0.709 0.52,0.679 0.54,0.66 C0.57,0.639 0.599,0.629 0.63,0.649 C0.699,0.669 6.909,2.569 16.87,0.5 C16.899,0.5 16.929,0.5 16.95,0.52 C16.979,0.54 16.99,0.569 16.99,0.6 C17,0.66 17.37,7.27 15.639,12.399 C17.189,12.62 19.78,12.699 23.469,11.889 L23.729,11.83 C23.76,11.83 23.79,11.83 23.809,11.85 C23.84,11.859 23.849,11.889 23.859,11.919 Z M21.1599,21.019 C21.1489,21.059 21.1089,21.089 21.0699,21.089 C21.0299,21.089 20.9899,21.059 20.9789,21.03 C20.9699,20.999 20.6889,20.389 19.8589,20.229 C19.5299,20.16 19.1089,20.4 18.6699,20.66 C18.1999,20.929 17.6799,21.229 17.1599,21.229 C16.9199,21.229 16.6799,21.169 16.4499,21.009 C16.1389,20.809 15.9999,20.309 16.0899,19.769 C16.1599,19.389 16.5299,18.139 18.3589,17.719 C18.6489,17.66 18.9299,17.62 19.1799,17.62 C19.8799,17.62 20.4599,17.86 20.8489,18.299 C21.4199,18.95 21.5399,19.969 21.1599,21.019 Z M18.1492,15.519 C18.1492,16.37 17.6702,17.07 17.0802,17.07 C16.4902,17.07 16.0092,16.37 16.0092,15.519 C16.0092,14.66 16.4902,13.959 17.0802,13.959 C17.6702,13.959 18.1492,14.66 18.1492,15.519 Z M21.4295,15.1499 C21.4295,16.0989 20.8995,16.8789 20.2495,16.8789 C19.5995,16.8789 19.0705,16.0989 19.0705,15.1499 C19.0705,14.1889 19.5995,13.4099 20.2495,13.4099 C20.8995,13.4099 21.4295,14.1889 21.4295,15.1499 Z" id="Combined-Shape" fill="#FFE524"></path>
    </g>
</svg>