<?xml version="1.0" encoding="UTF-8"?>
<svg width="24px" height="24px" viewBox="0 0 24 24" version="1.1" xmlns="http://www.w3.org/2000/svg" xmlns:xlink="http://www.w3.org/1999/xlink">
    <!-- Generator: Sketch 52.5 (67469) - http://www.bohemiancoding.com/sketch -->
    <title>ic/3.var/going-out</title>
    <desc>Created with Sketch.</desc>
    <g id="ic/3.var/going-out" stroke="none" stroke-width="1" fill="none" fill-rule="evenodd">
        <path d="M2.33031063,1.00074731 L2.33031063,1 L11.402286,1 C16.2795227,13.6250772 10.7475377,15.8767261 8.00779519,16.2503818 L8.00779519,21.0264483 C9.92028999,21.1871203 11.3437861,21.7812327 11.3437861,22.4904312 C11.3437861,23.3244306 9.39529142,23.9985054 6.99154795,23.9985054 C4.58705449,23.9985054 2.63855979,23.3221886 2.63855979,22.4904312 C2.63855979,21.7991682 3.9945561,21.2140235 5.83730109,21.0406472 L6.30004983,16.3049355 C-4.98216949,16.0000325 2.33031063,1.00074731 2.33031063,1.00074731 Z M6.79954848,14.61377 C6.79954848,14.61377 15.3307753,14.9381031 10.7235378,2.39448289 L3.1125585,2.43558501 C3.1125585,2.43558501 -2.40067651,14.61377 6.79954848,14.61377 Z M23.4772531,1.24661273 C25.2697483,9.61126815 22.0297571,11.5774442 20.1217623,12.0273256 L19.9560127,24 L18.0472679,24 L18.6082664,12.1521266 C11.9857844,12.0721643 16.155023,1.24661273 16.155023,1.24661273 L17.3302698,1.24661273 C16.7610214,2.70013322 14.0782787,10.1261656 18.6825162,10.6051922 L19.123515,1.28547292 L20.2672619,1.28547292 L20.1427622,10.4228482 C21.5737583,9.89150989 23.9235019,7.99857036 22.4617559,1.24661273 L23.4772531,1.24661273 Z" id="Combined-Shape" fill="#FFE524"></path>
    </g>
</svg>