<?xml version="1.0" encoding="UTF-8"?>
<svg width="24px" height="24px" viewBox="0 0 24 24" version="1.1" xmlns="http://www.w3.org/2000/svg" xmlns:xlink="http://www.w3.org/1999/xlink">
    <!-- Generator: Sketch 52.5 (67469) - http://www.bohemiancoding.com/sketch -->
    <title>ic/3.var/groceries</title>
    <desc>Created with Sketch.</desc>
    <g id="ic/3.var/groceries" stroke="none" stroke-width="1" fill="none" fill-rule="evenodd">
        <path d="M10.722219,10.83218 L11.3204095,9.73703 L11.3780286,9.62153 L11.4471714,9.50603 L15.4040286,2.23058 C15.4616476,2.12663 15.5653619,2.04578 15.6795524,2.01218 C15.7151714,1.99958 15.7612667,1.99958 15.8073619,1.99958 C15.8754571,1.99958 15.9561238,2.01218 16.0137429,2.04578 L16.876981,2.51933 C16.9806952,2.57708 17.0613619,2.66843 17.0948857,2.78393 C17.1294571,2.89943 17.1074571,3.02648 17.0487905,3.13043 L13.5633619,9.51758 L13.5057429,9.64463 L13.4491714,9.74858 L12.366981,11.73098 C12.2517429,11.95043 11.976219,12.03128 11.7572667,11.91578 L10.9066,11.44328 C10.7913619,11.38553 10.722219,11.29313 10.6876476,11.17763 C10.6530762,11.06318 10.6646,10.93613 10.722219,10.83218 Z M11.2858381,10.53188 C11.1590762,10.83218 11.3088857,11.17763 11.618981,11.30468 C11.6881238,11.33933 11.7803143,11.36243 11.860981,11.36243 C11.9416476,11.36243 12.0223143,11.33933 12.0914571,11.31623 C12.2286952,11.25848 12.3439333,11.15453 12.4015524,11.01698 C12.4361238,10.94768 12.4476476,10.87838 12.4476476,10.79753 C12.4476476,10.57808 12.3093619,10.34813 12.0799333,10.24418 C11.7572667,10.12868 11.4126,10.25573 11.2858381,10.53188 Z M17.8662476,7.84577 C17.4629143,8.53772 17.1412952,9.11417 16.9338667,9.52892 C16.9338667,9.54047 16.9233905,9.55202 16.9233905,9.55202 L16.7851048,9.54047 L16.6583429,9.54047 C16.6583429,9.52892 16.668819,9.52892 16.668819,9.51737 C16.8877714,9.09107 17.2219619,8.46842 17.658819,7.73027 C17.8882476,7.33862 18.0726286,7.01522 18.2685333,6.70442 C18.3031048,6.64667 18.3722476,6.63512 18.4183429,6.65822 L19.4083429,7.13072 C19.4418667,7.15382 19.4879619,7.13072 19.5110095,7.08452 L19.545581,7.01522 C19.5571048,6.98057 19.545581,6.93437 19.4994857,6.91127 L18.5796762,6.47342 C18.5440571,6.46187 18.5220571,6.43877 18.5220571,6.40412 C18.5094857,6.36947 18.5094857,6.34637 18.5220571,6.31277 C18.555581,6.25502 18.5901524,6.20882 18.6257714,6.15107 C18.6477714,6.10487 18.6823429,6.05867 18.7064381,6.01247 C18.7745333,5.92007 18.8206286,5.85077 18.8782476,5.76992 L18.9473905,5.66702 C18.9809143,5.62082 19.039581,5.60927 19.0856762,5.63237 L20.0170095,6.08177 C20.0631048,6.10487 20.1092,6.07022 20.1207238,6.04712 L20.166819,5.97782 C20.1783429,5.93162 20.1552952,5.87387 20.1207238,5.86232 L19.2700571,5.45912 C19.2354857,5.44757 19.2113905,5.41292 19.1998667,5.37827 C19.1998667,5.35517 19.1998667,5.30897 19.2239619,5.28587 C20.3166286,3.79907 21.0300571,3.62582 21.547581,3.48722 C21.6156762,3.47567 21.6858667,3.45257 21.7424381,3.42947 C22.0420571,3.34862 22.3762476,3.45257 22.6172,3.72977 C22.8937714,4.04057 22.9859619,4.50152 22.823581,4.88267 C22.6863429,5.21762 22.3636762,6.55427 22.0766286,7.82267 C21.926819,8.46842 21.7885333,9.09107 21.6858667,9.55202 L21.6858667,9.57512 L21.4553905,9.57512 L21.4553905,9.55202 C21.7539619,8.20277 22.3982476,5.32052 22.6172,4.79027 C22.6517714,4.69787 22.674819,4.59392 22.674819,4.49102 C22.674819,4.27157 22.5941524,4.05212 22.4443429,3.87992 C22.2599619,3.68357 22.0305333,3.59117 21.8126286,3.66047 C21.7424381,3.67202 21.6743429,3.69512 21.6041524,3.70667 C21.1327238,3.83372 20.4894857,3.99542 19.4879619,5.30897 L20.2244381,5.65547 C20.3742476,5.72372 20.430819,5.89697 20.3742476,6.05867 C20.3742476,6.07022 20.3742476,6.08177 20.3627238,6.09332 L20.3166286,6.16262 C20.2464381,6.30122 20.0746286,6.35792 19.9258667,6.28967 L19.0731048,5.88542 L19.0626286,5.90852 C19.0165333,5.97782 18.9589143,6.04712 18.912819,6.12797 C18.8782476,6.17417 18.8447238,6.23192 18.8206286,6.27812 C18.8091048,6.28967 18.7986286,6.30122 18.7860571,6.32327 L19.6032,6.70442 C19.682819,6.73907 19.7289143,6.79682 19.7645333,6.87767 C19.787581,6.95747 19.787581,7.03832 19.7530095,7.10762 L19.7184381,7.18847 C19.6367238,7.35017 19.4544381,7.40792 19.303581,7.33862 L18.4183429,6.91127 C18.2350095,7.20002 18.0621524,7.48877 17.8662476,7.84577 Z M2.91106667,8.203085 C3.03782857,7.753685 3.9576381,5.390135 4.06135238,5.124485 L4.06135238,4.306535 C4.06135238,4.283435 4.07287619,4.260335 4.07287619,4.247735 L4.28030476,3.913835 C4.30335238,3.879185 4.34944762,3.856085 4.38297143,3.856085 L5.8444,3.856085 C5.86744762,3.856085 5.89049524,3.867635 5.91354286,3.879185 L6.29278095,4.167935 C6.32735238,4.191035 6.33887619,4.224635 6.33887619,4.260335 L6.33887619,5.124485 L7.10992381,7.418735 C7.23668571,7.107935 7.3404,6.853835 7.37392381,6.784535 L7.37392381,6.255335 C7.37392381,6.232235 7.38544762,6.209135 7.39697143,6.186035 L7.54678095,5.966585 C7.56982857,5.943485 7.6044,5.920385 7.63897143,5.920385 L8.70859048,5.920385 C8.7316381,5.920385 8.75468571,5.931935 8.77773333,5.943485 L9.05430476,6.127235 C9.07735238,6.150335 9.1004,6.186035 9.1004,6.219635 L9.1004,6.784535 L9.69859048,8.376335 C9.76668571,8.549585 9.91649524,9.078785 10.0202095,9.471485 C10.0202095,9.483035 10.0202095,9.483035 10.0317333,9.494585 L9.78973333,9.494585 L9.78973333,9.471485 C9.69859048,9.114485 9.56030476,8.652485 9.4911619,8.457185 L8.88144762,6.853835 C8.86992381,6.830735 8.86992381,6.820235 8.86992381,6.807635 L8.86992381,6.278435 L8.67401905,6.150335 L7.69659048,6.150335 L7.6044,6.288935 L7.6044,6.807635 C7.6044,6.820235 7.6044,6.843335 7.59287619,6.853835 C7.59287619,6.853835 7.40849524,7.281185 7.2251619,7.742135 C7.24820952,7.799885 7.25973333,7.880735 7.28278095,7.961585 C7.35087619,8.179985 7.42001905,8.457185 7.4891619,8.733335 C7.52373333,8.848835 7.54678095,8.964335 7.56982857,9.078785 C7.59287619,9.194285 7.61592381,9.298235 7.63897143,9.390635 C7.65049524,9.413735 7.66201905,9.436835 7.65049524,9.459935 L7.66201905,9.471485 L7.66201905,9.483035 L7.42001905,9.483035 L7.42001905,9.459935 C7.30582857,8.975885 7.12144762,8.214635 6.9831619,7.765235 C6.9716381,7.742135 6.96011429,7.707485 6.94859048,7.672835 L6.11992381,5.182235 C6.10944762,5.170685 6.10944762,5.159135 6.10944762,5.147585 L6.10944762,4.317035 L5.80982857,4.087085 L4.45211429,4.087085 L4.29078095,4.340135 L4.29078095,5.147585 C4.29078095,5.159135 4.29078095,5.170685 4.28030476,5.193785 C4.26773333,5.216885 3.25573333,7.811435 3.14049524,8.272385 C3.0724,8.536985 2.9571619,9.045185 2.87649524,9.425285 L2.87649524,9.448385 L2.64601905,9.448385 L2.64601905,9.425285 C2.7151619,9.033635 2.8304,8.490785 2.91106667,8.203085 Z M2.25525714,19.525445 C1.86344762,18.372545 0.690114286,14.879195 1.71468571,12.700445 C1.77230476,12.700445 1.82992381,12.710945 1.89906667,12.710945 C2.02478095,12.722495 2.18611429,12.722495 2.34744762,12.734045 C2.4511619,12.734045 2.55487619,12.745595 2.66906667,12.745595 C5.77525714,12.872645 12.9189714,12.976595 17.7631619,12.941945 C18.5562095,12.941945 19.2926857,12.930395 19.9369714,12.918845 C20.224019,12.918845 20.4890667,12.907295 20.7310667,12.895745 C20.9604952,12.884195 21.1679238,12.884195 21.362781,12.872645 C21.5251619,12.872645 21.6613524,12.861095 21.7891619,12.849545 C21.8698286,12.849545 21.9379238,12.837995 22.0070667,12.837995 C22.880781,15.075545 21.7315429,18.729545 21.3523048,19.941245 C21.3166857,20.056745 21.2821143,20.159645 21.2601143,20.240495 C21.0872571,20.828495 20.6263048,22.177745 20.5225905,22.488545 C18.4064,22.950545 6.16601905,22.972595 3.09544762,22.523195 C3.00325714,22.166195 2.56535238,20.552345 2.38201905,19.905545 C2.35897143,19.825745 2.31287619,19.698695 2.25525714,19.525445 Z M4.19859048,20.124995 C4.2216381,20.424245 4.4636381,20.655245 4.76325714,20.655245 L4.80935238,20.655245 C4.9696381,20.643695 5.10792381,20.562845 5.20011429,20.448395 C5.30382857,20.332895 5.34992381,20.194295 5.32687619,20.044145 L4.89001905,14.418245 C4.86697143,14.118995 4.62497143,13.899545 4.33687619,13.899545 L4.28030476,13.899545 C3.9691619,13.934195 3.73973333,14.198795 3.75020952,14.521145 L4.19859048,20.124995 Z M7.6044,14.152595 C7.50068571,14.268095 7.45459048,14.418245 7.46611429,14.556845 L7.90401905,20.182745 C7.93754286,20.483045 8.17954286,20.701445 8.4676381,20.701445 L8.52420952,20.701445 C8.66249524,20.689895 8.80078095,20.620595 8.90449524,20.506145 C8.99668571,20.390645 9.05430476,20.252045 9.03125714,20.101895 L8.59335238,14.474945 C8.59335238,14.325845 8.52420952,14.187245 8.41001905,14.094845 C8.30630476,14.002445 8.16801905,13.945745 8.01820952,13.945745 L7.9836381,13.945745 C7.83487619,13.956245 7.69659048,14.037095 7.6044,14.152595 Z M11.3318286,14.452895 L11.3318286,20.090345 C11.3318286,20.413745 11.5843048,20.666795 11.8954476,20.666795 C12.2065905,20.666795 12.4590667,20.402195 12.4590667,20.090345 L12.4590667,14.452895 C12.4590667,14.152595 12.2065905,13.887995 11.8954476,13.887995 C11.5843048,13.887995 11.3318286,14.141045 11.3318286,14.452895 Z M15.6459238,13.945745 C15.5076381,13.945745 15.3704,14.002445 15.2541143,14.094845 C15.1514476,14.187245 15.0823048,14.325845 15.0697333,14.474945 L14.6328762,20.101895 C14.6224,20.252045 14.6684952,20.390645 14.7711619,20.506145 C14.8633524,20.620595 15.0016381,20.689895 15.1514476,20.701445 L15.1975429,20.701445 C15.4961143,20.701445 15.7381143,20.483045 15.7611619,20.182745 L16.198019,14.510645 C16.198019,14.221895 15.9675429,13.980395 15.6794476,13.945745 L15.6459238,13.945745 Z M18.0041143,20.010545 C17.9915429,20.321345 18.222019,20.597495 18.5331619,20.620595 L18.5677333,20.620595 C18.706019,20.620595 18.8443048,20.575445 18.948019,20.483045 C19.0622095,20.378045 19.1313524,20.240495 19.1313524,20.101895 L19.5797333,14.440295 C19.5797333,14.129495 19.3618286,13.887995 19.0622095,13.863845 L19.0045905,13.863845 C18.7290667,13.863845 18.4755429,14.094845 18.4409714,14.383595 L18.0041143,20.010545 Z M1.31208571,12.365705 C0.94332381,11.996105 0.978942857,10.382255 1.03551429,9.667205 L2.70437143,9.678755 L2.94532381,9.678755 L7.5810381,9.713405 L7.8230381,9.713405 L9.96332381,9.724955 L10.1927524,9.724955 L11.0559905,9.736505 L10.5258952,10.717205 C10.4347524,10.877855 10.4117048,11.062655 10.4693238,11.235905 C10.515419,11.408105 10.6306571,11.558255 10.7909429,11.639105 L11.654181,12.111605 C11.7578952,12.169355 11.8605619,12.192455 11.9758,12.192455 C12.2178,12.192455 12.4472286,12.065405 12.5739905,11.847005 L13.7127524,9.759605 L16.6691333,9.771155 L16.934181,9.782705 L21.5248476,9.805805 L21.7542762,9.805805 L22.7558,9.817355 C22.7893238,10.255205 22.8940857,11.962505 22.2948476,12.527405 C22.2843714,12.538955 22.2382762,12.562055 22.065419,12.596705 C19.2703714,12.838205 4.85513333,12.699605 1.65675238,12.458105 L1.63370476,12.458105 C1.38122857,12.411905 1.31208571,12.365705 1.31208571,12.365705 Z" id="Combined-Shape" fill="#FFE524"></path>
    </g>
</svg>