<?xml version="1.0" encoding="UTF-8"?>
<svg width="24px" height="24px" viewBox="0 0 24 24" version="1.1" xmlns="http://www.w3.org/2000/svg" xmlns:xlink="http://www.w3.org/1999/xlink">
    <!-- Generator: Sketch 52.5 (67469) - http://www.bohemiancoding.com/sketch -->
    <title>ic/3.var/health-care</title>
    <desc>Created with Sketch.</desc>
    <g id="ic/3.var/health-care" stroke="none" stroke-width="1" fill="none" fill-rule="evenodd">
        <path d="M12.3396072,2.45360381 C12.3728056,2.26236811 12.4209859,2.0735281 12.4778535,1.88752896 C12.6226678,1.40755414 12.9554324,1.10874119 13.3744694,0.916126567 C13.6497192,0.788063872 13.9485911,0.711018023 14.2423278,0.626684053 C14.5288752,0.543391243 14.8195307,0.469468874 15.1122404,0.408040427 C15.4408968,0.339323859 15.7726344,0.287265853 16.1023179,0.231043206 C16.4915704,0.163367798 16.8818499,0.0967335501 17.2721294,0.0342639427 C17.3922944,0.0155230605 17.5196488,-0.013629423 17.6367327,0.00719377949 C17.7096533,0.0217700212 17.7969527,0.112350952 17.8216019,0.187314481 C17.8380347,0.235207846 17.764087,0.354941261 17.7065722,0.379929103 C17.1447751,0.614190131 16.5768156,0.833874917 16.0129644,1.06293014 C15.544629,1.25242129 15.0793747,1.44711823 14.6141204,1.64181517 C14.5504432,1.66888534 14.4600627,1.69907898 14.4405487,1.75217815 C14.3912503,1.88440548 14.3758445,2.0301679 14.3440059,2.18738308 C14.4107643,2.17488916 14.4569816,2.17176568 14.4990907,2.15614827 C14.9006678,2.00205657 15.3032719,1.8448414 15.704849,1.6907497 C16.1228589,1.53041104 16.5377877,1.36278426 16.9599058,1.218063 C17.1786677,1.14309947 17.383051,0.981719655 17.6326245,1.05147738 C17.7137615,1.07438291 17.8308454,1.11498815 17.8513864,1.1764166 C17.8719274,1.23576272 17.804142,1.34508454 17.7507354,1.4085953 C17.6213269,1.55956352 17.4302953,1.59183949 17.2536425,1.65639141 C16.7914694,1.82714167 16.3354586,2.01767398 15.8732854,2.19258888 C15.345381,2.39353278 14.8133684,2.58718856 14.2690312,2.78917363 C14.2803287,2.92660676 14.2895722,3.05154598 14.3008698,3.18481447 C14.4929284,3.11713907 14.6397967,3.0692457 14.785638,3.01510537 C15.2662981,2.83290235 15.7459311,2.64965817 16.2255641,2.46537283 C16.6281682,2.31128113 17.0276912,2.15198363 17.4323494,2.00205657 C17.6161916,1.93438117 17.7990068,1.8448414 18.0085253,1.91980493 C18.1718264,1.97915105 18.2129085,2.06764966 18.103014,2.20716512 C18.0393368,2.29045793 17.9489563,2.36854494 17.8544676,2.4060267 C17.2988328,2.62675265 16.7401168,2.83498467 16.1814008,3.04425786 C15.5692782,3.27435425 14.9561285,3.49924483 14.3286001,3.7324647 C14.3522223,3.85844507 14.3758445,3.98026081 14.4035749,4.12185859 C14.8482881,3.949026 15.2683522,3.78348155 15.6894432,3.62522521 C16.404271,3.35556473 17.1190988,3.08694542 17.8370077,2.82561423 C17.9499833,2.78396783 18.0752836,2.7506507 18.1944216,2.75689766 C18.2817209,2.7610623 18.3669662,2.83602583 18.4542656,2.8787134 C18.4111294,2.96825317 18.3772367,3.0640399 18.3238301,3.14420923 C18.2909644,3.19314376 18.2324225,3.23270784 18.1779888,3.2545722 C17.9684703,3.33578269 17.7568977,3.40762274 17.5473792,3.48570975 C17.2022899,3.61585477 16.8582277,3.7480821 16.5131384,3.87926828 C16.1783197,4.00628981 15.8435009,4.13331135 15.5086822,4.26033288 C15.185161,4.38214862 14.8606128,4.50396435 14.5391457,4.62578008 C14.5802277,4.75176046 14.6151475,4.85795879 14.6562295,4.98393917 C14.9735884,4.86837039 15.2827309,4.7611309 15.5877651,4.64660329 C15.9913963,4.49355275 16.3919464,4.33425525 16.7945505,4.17912239 C17.2166687,4.01774257 17.6387868,3.85532159 18.0619319,3.69602409 C18.2580988,3.62314289 18.4522115,3.54817936 18.6658382,3.65333653 C18.7973007,3.71892962 18.803463,3.76474066 18.7274612,3.89905032 C18.6124315,4.0979119 18.4101024,4.12289975 18.2324225,4.19265747 C17.8257101,4.35299613 17.4128355,4.49979971 17.0050961,4.65493257 C16.6004378,4.80694195 16.1978337,4.96311596 15.7942025,5.11720766 C15.465546,5.24214688 15.1368896,5.36708609 14.7979626,5.49514879 C14.8503422,5.620088 14.8965596,5.72628633 14.9407228,5.83040235 C15.0126164,5.81582611 15.0721853,5.81270262 15.125592,5.79292058 C15.7182007,5.56594768 16.3097823,5.33585129 16.9023909,5.10783722 C17.3892133,4.92251072 17.8760356,4.73822538 18.362858,4.55394004 C18.5446461,4.48522347 18.7254071,4.42067154 18.9256822,4.48938811 C19.082821,4.5445696 19.1187678,4.62161544 19.0273603,4.76529554 C18.9924405,4.81943587 18.9451961,4.87878199 18.8897354,4.90272868 C18.5918905,5.02766789 18.2909644,5.14427783 17.9890113,5.25880544 C17.6387868,5.3931151 17.2865081,5.52221895 16.9362836,5.65340513 C16.5213549,5.80957914 16.1074531,5.964712 15.6935514,6.12192718 C15.5168986,6.18856143 15.3412728,6.2624838 15.1543495,6.33744733 C15.225216,6.46759234 15.2786227,6.56962603 15.3351105,6.67374205 C15.3926254,6.66228929 15.445005,6.6591658 15.4943035,6.64146608 C15.9924234,6.45509842 16.4884892,6.26873076 16.984555,6.07923962 C17.6305704,5.83040235 18.2724775,5.56803 18.9246551,5.33793361 C19.041739,5.2962872 19.221473,5.34313941 19.3334216,5.41497946 C19.421748,5.47224326 19.3539626,5.62321148 19.2841231,5.69609269 C19.221473,5.76064462 19.1280113,5.79916754 19.042766,5.83248467 C18.6884333,5.97200012 18.3299924,6.10526862 17.9725785,6.24270176 C17.6007859,6.38534069 17.2300203,6.53214427 16.8572007,6.67270089 C16.4700023,6.8184633 16.083831,6.96526688 15.6925244,7.1006177 C15.5816028,7.13914062 15.5898192,7.21202183 15.6298743,7.27449144 C15.6822539,7.35257845 15.7746885,7.47335302 15.8291222,7.46294142 C16.0201538,7.4244185 16.203996,7.34216685 16.3878382,7.27136796 C16.844876,7.09749422 17.2998598,6.91841468 17.7568977,6.74349977 C18.1810699,6.58211996 18.6042151,6.42282246 19.0283873,6.26456612 C19.1978508,6.20209651 19.3652602,6.11151558 19.5552647,6.20938463 C19.6589969,6.26352496 19.7247281,6.34473545 19.6548887,6.4478103 C19.5922385,6.54255587 19.4998039,6.63626028 19.4001799,6.67790669 C19.0643341,6.8184633 18.7182178,6.93403208 18.3772367,7.06313593 C17.8380347,7.26720332 17.2978057,7.47335302 16.7596308,7.68054389 C16.5131384,7.7742483 16.2676732,7.87003503 16.0211808,7.96582176 C16.0786957,8.06473197 16.1228589,8.15114826 16.1772926,8.22819411 C16.1978337,8.25630543 16.2491862,8.28233444 16.2799978,8.27712864 C16.3498373,8.26567587 16.4186497,8.23548223 16.4864351,8.20945323 C16.9455271,8.03037369 17.4046191,7.84817067 17.8647381,7.67013228 C18.3546416,7.4816823 18.8445451,7.29115 19.3375298,7.11415278 C19.4956957,7.05793013 19.6548887,6.97151384 19.8377038,7.04960085 C19.961977,7.10270002 20.0277083,7.22035111 19.9506795,7.32967292 C19.8900834,7.41504805 19.7997029,7.49521738 19.7052142,7.53374031 C19.3632061,7.67325576 19.0140086,7.79194802 18.6689193,7.92209303 C18.1348526,8.1240781 17.6007859,8.32918664 17.0677462,8.53325403 C16.8952016,8.59988827 16.7226569,8.669646 16.5193008,8.74877417 C16.5932485,8.86121946 16.6476822,8.9518004 16.7093053,9.03613437 C16.723684,9.05487525 16.7668201,9.06736917 16.7873612,9.05903989 C16.9825009,8.988241 17.1745595,8.91327747 17.3686723,8.83831394 C17.7117074,8.70608661 18.0557696,8.57490043 18.3988048,8.4426731 C18.8065442,8.28545792 19.2112025,8.12511926 19.6199689,7.97415104 C19.7945676,7.90959911 19.9671123,7.8367179 20.1643061,7.91064027 C20.2854982,7.95541016 20.3050122,8.06160849 20.2700924,8.13032506 C20.2187399,8.23131759 20.1283593,8.33959824 20.0297624,8.37916233 C19.6271583,8.54470679 19.2122295,8.68318108 18.8044901,8.83519046 C18.3084243,9.02051696 17.8133855,9.20896695 17.3193738,9.39741693 C17.2218039,9.43489869 17.1293693,9.48383322 17.02461,9.53276774 C17.1078012,9.65458348 17.1745595,9.75349369 17.2402908,9.85032158 C17.2823999,9.83053954 17.3132115,9.81179866 17.3471042,9.8003459 C17.6983558,9.6722832 18.0526885,9.55046747 18.401886,9.41719897 C18.9893594,9.1943907 19.5706704,8.95492388 20.161225,8.74565069 C20.2670113,8.70816893 20.4395559,8.74460953 20.5278823,8.81749074 C20.6911835,8.9518004 20.5504775,9.1423327 20.3553377,9.22666667 C19.9784098,9.39012881 19.5891574,9.52131498 19.2050401,9.66499508 C18.6689193,9.86593898 18.1348526,10.0648006 17.6007859,10.2636622 C17.6254351,10.5239522 17.7312214,10.6280682 17.9078742,10.5676809 C18.1143116,10.4958409 18.3176677,10.4177538 18.523078,10.3396668 C19.1146596,10.1126939 19.7062412,9.88259755 20.2988499,9.65770696 C20.4323666,9.60773127 20.5679373,9.5129857 20.7158327,9.60044315 C20.7846452,9.6410484 20.8873503,9.72017657 20.8832421,9.77223457 C20.8770798,9.86385666 20.8185379,9.99296052 20.7466443,10.0262776 C20.4878273,10.1491345 20.2146317,10.2376331 19.9475983,10.3396668 C19.602509,10.4718942 19.2574198,10.6062038 18.9123305,10.7384312 C18.643243,10.841506 18.3731285,10.9424986 18.0927435,11.049738 C18.1358796,11.1194958 18.1646371,11.1746773 18.1995568,11.2246529 C18.2704234,11.3277278 18.3320465,11.3912386 18.4809689,11.3173162 C18.7336236,11.1934181 19.0057922,11.1132488 19.2697444,11.0143386 C19.6959707,10.8539999 20.1191159,10.6905378 20.5463693,10.5343638 C20.7250762,10.4698119 20.9037831,10.3625724 21.1020041,10.4854293 C21.1964928,10.5447754 21.2252502,10.6093273 21.1831411,10.7269784 C21.1194639,10.9091814 20.9695144,10.9247988 20.8277813,10.977898 C20.2803629,11.1798831 19.7360257,11.3901974 19.1927155,11.5994706 C19.0170897,11.667146 18.8445451,11.7421095 18.6637841,11.8170731 C18.7367047,11.9159833 18.803463,11.9815764 18.8373557,12.0617457 C18.8876813,12.1762733 18.9585478,12.1471208 19.0335226,12.1190095 C19.3139076,12.01177 19.5942926,11.901407 19.8746777,11.7941675 C20.2875523,11.6369524 20.700427,11.4797372 21.1133016,11.3256455 C21.2899545,11.2600524 21.4655803,11.1871712 21.6627741,11.2423527 C21.7747227,11.2746286 21.7921826,11.3443864 21.7469923,11.4318438 C21.7172078,11.4891076 21.6668823,11.5474126 21.6114216,11.5765651 C21.3166578,11.7285744 21.0188129,11.875378 20.7178868,12.0159346 C20.4077173,12.1606559 20.1057642,12.3147476 19.861326,12.570873 C19.7082953,12.7312116 19.6476993,12.9706785 19.7432151,13.1528815 C19.8561907,13.370484 19.9753287,13.5860041 20.0954937,13.7994419 C20.3101474,14.1794654 20.5381528,14.5511595 20.741509,14.9374299 C20.9520546,15.3403589 21.140005,15.7557818 21.3351447,16.16704 C21.4717426,16.4544002 21.6103945,16.738637 21.7305595,17.0322441 C21.920564,17.4986838 22.1054333,17.9661647 22.2748968,18.4398926 C22.4114946,18.8219984 22.5357678,19.2093099 22.6425811,19.6018273 C22.7288535,19.91834 22.7884224,20.2431819 22.8469644,20.5680239 C22.9013981,20.8793308 22.9517236,21.19272 22.9815081,21.5061092 C23.0215631,21.9309025 23.0051303,22.35049 22.8459373,22.7523778 C22.6857173,23.1553068 22.4381979,23.4551609 22.0325126,23.6071703 C21.74083,23.7144098 21.4624991,23.8747484 21.1389779,23.8278962 C20.7302115,23.7695913 20.3717705,23.5905117 20.0677633,23.2906576 C19.7370528,22.9658156 19.4792629,22.5878745 19.3056912,22.1516284 C19.1927155,21.8653094 19.0797399,21.5789904 18.983197,21.2853832 C18.9010329,21.0355048 18.8353016,20.7783382 18.7788138,20.5201305 C18.722326,20.2681698 18.6884333,20.0099621 18.6391348,19.755919 C18.5662142,19.385266 18.4850771,19.0177365 18.4111294,18.6470835 C18.3669662,18.4242752 18.3310194,18.2014669 18.283775,17.9796998 C18.1913404,17.551783 18.0999328,17.122825 17.9992818,16.6980317 C17.9201989,16.367984 17.8421429,16.0337716 17.7312214,15.7130942 C17.5935965,15.3174534 17.4189978,14.9343065 17.263913,14.5449126 C17.0728815,14.0638966 16.8120104,13.6338975 16.484381,13.2372155 C16.1855091,12.8738506 15.9143675,12.4834155 15.6493882,12.0929805 C15.384409,11.7046278 15.1368896,11.30274 14.8873161,10.9018933 C14.6890952,10.581216 14.4877931,10.2615798 14.3111403,9.92736743 C14.106757,9.5390147 13.9218878,9.13920922 13.7380456,8.73940373 C13.5624198,8.35938029 13.3909022,7.97623336 13.2368445,7.58683947 C12.9585136,6.89030335 12.6925073,6.18960259 12.5559094,5.44413194 C12.5265789,5.2825802 12.4860801,5.12267953 12.4480345,4.9626337 L12.3437206,6.3554594 C12.3437206,6.39502348 12.3231796,6.42625829 12.2831246,6.44604033 C12.0438216,6.54703286 11.8147892,6.62824335 11.5867837,6.69800108 C11.5467287,6.70841268 11.5066737,6.72819472 11.4666187,6.73860632 C10.3810254,7.10197121 9.36629864,7.23315738 8.44914175,7.23315738 C6.86645555,7.23315738 5.59188478,6.8489693 4.81543393,6.53662126 C4.13860706,6.26383731 3.75038163,6.01187656 3.7298406,6.00146496 C3.70005611,5.98168291 3.68054214,5.94107767 3.69081265,5.91088402 L3.78016612,2.70098737 C3.78016612,2.36781613 4.18790553,2.07525013 4.96435638,1.86285347 C5.78086223,1.61089272 6.94656556,1.46929494 8.23140685,1.46929494 C9.39608313,1.46929494 10.232103,1.57028747 11.1081778,1.82328938 C11.2912337,1.88735541 11.9623774,2.13319264 12.3396072,2.45360381 Z M12.2923838,3.33249347 C12.2354162,3.3706946 12.1726087,3.4071404 12.1044176,3.43812873 C12.0243076,3.46832238 11.9441976,3.49851602 11.8548442,3.52870966 C11.6165682,3.61929059 11.3269397,3.67967788 11.0188243,3.73069473 C10.8688748,3.76088837 10.7096819,3.78171157 10.5504889,3.80149362 C10.4611354,3.81086406 10.371782,3.82127566 10.2824285,3.83168726 C10.053396,3.8618809 9.82333651,3.8722925 9.60560161,3.89207455 C8.98731668,3.93267979 8.45941226,3.93267979 8.23140685,3.93267979 C8.09172786,3.93267979 7.96129234,3.93267979 7.8226404,3.92226819 C7.68296141,3.92226819 7.55355293,3.92226819 7.41387394,3.91289775 C7.14478648,3.90248615 6.88699658,3.88166294 6.62817963,3.85251046 C6.35909217,3.83168726 6.10027522,3.79108201 5.87124275,3.75047677 C5.74183428,3.73069473 5.63193978,3.71091268 5.52204528,3.69008948 C4.95511291,3.57868535 4.48677748,3.42771713 4.17866206,3.23614367 C4.10882257,3.19553842 4.05849705,3.15597434 4.00919858,3.11536909 C3.98865756,3.11536909 3.96914358,3.09454589 3.95887306,3.08517545 L3.89006062,5.86090834 C4.00919858,5.93170723 4.357369,6.13265113 4.88527342,6.3450478 C6.10951868,6.83959885 8.59909125,7.50594133 11.5169443,6.51683922 C11.7254357,6.44604033 11.9349542,6.36482984 12.1537161,6.27424891 L12.3210369,4.08441055 C12.3044137,3.83424671 12.2957242,3.5832195 12.2923838,3.33249347 Z M10.92906,16.5294679 L10.92906,17.7507487 C10.92906,18.0037506 10.7298121,18.2046945 10.4812656,18.2046945 L9.24674986,18.3358807 L9.22620883,19.6290016 C9.22620883,19.8809623 9.0177174,20.0829474 8.76814391,20.0829474 L7.56341263,20.0829474 C7.31486619,20.0829474 7.11561822,19.8809623 7.11561822,19.6290016 L7.13615925,18.3358807 L5.89137296,18.2046945 C5.64179947,18.2046945 5.43228099,18.0037506 5.43228099,17.7507487 L5.43228099,16.5294679 C5.43228099,16.2775071 5.64179947,16.0661516 5.89137296,16.0661516 L7.13615925,16.1973378 L7.13615925,14.7532487 C7.13615925,14.501288 7.33438017,14.2888913 7.58395365,14.2888913 L8.78868494,14.2888913 C9.03723137,14.2888913 9.24674986,14.501288 9.24674986,14.7532487 L9.24674986,16.1973378 L10.4812656,16.0661516 C10.7298121,16.0661516 10.92906,16.2775071 10.92906,16.5294679 Z M13.7463647,19.5584109 C13.7966902,18.6494781 13.8264747,17.842579 13.8562592,17.1356313 C13.9558832,14.0767029 13.8757732,12.7544295 13.8757732,12.7544295 C8.22082822,14.4109153 2.46523223,12.7346475 2.46523223,12.7346475 C2.58437019,19.0034726 2.71377866,19.7104203 2.71377866,19.7104203 C9.68437645,22.575693 13.7463647,19.5584109 13.7463647,19.5584109 Z M14.0657777,10.4638772 C14.4231916,11.1093965 14.4047046,14.29847 14.2937831,17.1554134 C14.2147001,19.5282173 14.0750212,21.6667602 14.0555072,21.9603673 C13.8655027,22.1831756 12.212977,24 8.18077322,24 C4.01813393,24 2.48577325,22.1831756 2.30603926,21.9603673 C2.27625477,21.5064215 1.91781384,16.0049314 2.01743782,12.7450591 C2.04722231,11.6237296 2.12733232,10.7668548 2.2967958,10.4638772 C2.73431969,9.69654223 3.24168308,9.45395192 3.75007352,9.23218482 C4.03867496,9.10099864 4.31700588,8.96981247 4.55630886,8.74804536 C4.9948598,8.35344567 4.9948598,7.425772 4.93426377,6.81981681 C6.2098616,7.30395627 8.60905365,7.88908826 11.4170122,6.98119663 C11.3564161,7.85889461 11.4960951,8.4544382 11.8052376,8.74804536 C12.0435135,8.96981247 12.3228715,9.10099864 12.6217434,9.23218482 C13.1198634,9.46436352 13.6374973,9.69654223 14.0657777,10.4638772 Z" id="Combined-Shape" fill="#FFE524"></path>
    </g>
</svg>