<?xml version="1.0" encoding="UTF-8"?>
<svg width="24px" height="24px" viewBox="0 0 24 24" version="1.1" xmlns="http://www.w3.org/2000/svg" xmlns:xlink="http://www.w3.org/1999/xlink">
    <!-- Generator: Sketch 52.5 (67469) - http://www.bohemiancoding.com/sketch -->
    <title>ic/3.var/holiday</title>
    <desc>Created with Sketch.</desc>
    <g id="ic/3.var/holiday" stroke="none" stroke-width="1" fill="none" fill-rule="evenodd">
        <path d="M1.23067824,17.458208 C1.32750674,17.3882404 3.3014661,16.1288231 7.10845619,16.2287769 C7.09791051,16.3577172 7.08832353,16.4876571 7.07969525,16.6175969 C3.38774893,16.5486289 1.4511788,17.7770604 1.43200484,17.7880554 C1.34572201,17.8480276 1.22109126,17.8170419 1.17315635,17.7280831 C1.11659317,17.6381247 1.13480843,17.5081849 1.23067824,17.458208 Z M9.81121783,16.4987519 C11.4601785,16.7686271 12.6393772,17.0085161 13.5117924,17.1874333 C14.9498396,17.4772991 15.6113412,17.607239 16.4358216,17.5382709 C16.9439316,17.4872945 17.3178238,17.2773916 17.5009352,16.9185577 C17.749238,16.4477755 17.6821291,15.7381039 17.2996086,14.9694596 C16.6083872,13.5601117 15.1808858,13.3102273 15.1607531,13.3102273 C15.0744703,13.300232 15.0073614,13.220269 15.0073614,13.1193157 C14.9977745,13.0293573 15.0552963,12.9393989 15.1425379,12.9204077 C19.2831549,11.7909303 21.1813771,13.6800562 21.6520979,14.9694596 C22.0346184,16.0189739 22.0346184,17.4183264 21.708661,18.2579379 L22.7632289,17.9870633 C22.8686857,17.9680721 22.9741425,18.0380397 22.9933165,18.1379934 C23.0220774,18.2479426 22.9549686,18.3568921 22.8504705,18.3778824 L21.3635297,18.7477113 C21.3443558,18.7577067 21.3357275,18.7577067 21.3155948,18.7577067 C21.2494447,18.7577067 21.1909641,18.7177252 21.1526162,18.6567534 C21.1046813,18.5877853 21.1142682,18.486832 21.1727488,18.4278593 C21.6415522,17.8571234 21.6990741,16.2188814 21.2964209,15.1083953 C20.8947264,14.0099036 19.3215028,12.4506251 15.9277116,13.140306 C16.4645825,13.380195 17.1836061,13.8589734 17.6437812,14.7785479 C18.0847823,15.688127 18.1518912,16.5187427 17.8355208,17.1174656 C17.5862593,17.5982432 17.1069102,17.8781137 16.4645825,17.9370864 C15.5921673,18.0080536 14.8731437,17.8671188 13.4350966,17.5772529 C12.5914423,17.4073315 11.4410046,17.1784374 9.85915273,16.9075628 C9.83997877,16.7776229 9.82080481,16.6386872 9.81121783,16.4987519 Z M7.27124312,19.3265435 C7.28083011,19.3375384 7.83687499,19.7763353 8.6325944,19.7763353 C9.09181079,19.7763353 9.63922739,19.6274042 10.2048593,19.1466267 C10.2432072,19.1276355 10.2518355,19.087654 10.2432072,19.0476725 C10.2336202,19.0376771 10.0505089,18.3479963 9.91724984,17.3784449 C11.6045585,17.5483663 13.1480624,17.9181951 14.356022,18.4469505 C15.7173732,19.0566683 16.483373,19.7973256 16.483373,20.5069972 L16.483373,20.5559746 C16.4450251,21.2966319 15.5927425,21.966322 14.1451084,22.4261092 C12.6485807,22.8858965 10.6746213,23.085804 8.59424648,22.9658595 C6.51387164,22.845915 4.56771453,22.4351051 3.1296674,21.7964006 C1.73859648,21.1856832 0.963009732,20.4170389 1.00135766,19.686377 C1.06750782,18.3569921 3.64736437,17.36745 7.04115558,17.2585004 C7.01143594,17.9871632 7.07950351,18.6778436 7.24248218,19.2765666 C7.24248218,19.2975569 7.25111046,19.3165481 7.27124312,19.3265435 Z M8.19159329,7.80257583 C7.67389632,8.38230757 6.92611181,10.0415398 6.65671765,10.9211328 C6.13902069,10.0515352 4.81601733,7.36277933 6.75354616,5.33371822 C7.91357084,4.12427785 11.2786011,3.96435185 11.316949,3.96435185 C11.3648839,3.96435185 11.4032319,3.93436572 11.4032319,3.88438885 C11.4118601,3.83441197 11.3840579,3.7844351 11.3351643,3.77443972 C10.5777928,3.5445461 9.59129249,3.49456923 8.75722515,3.64449985 C7.27124312,3.92437035 6.47552371,4.09429172 5.15252036,4.86393559 C5.1333464,4.1042871 5.4305428,3.25468023 5.90989185,2.70493461 C6.60015447,1.91529998 7.33739329,1.63542949 8.93841909,1.54547111 C9.70633626,1.49549424 10.5212296,1.68540636 11.977492,2.75491148 C12.006253,2.78489761 12.0541879,2.78489761 12.0925358,2.75491148 C12.1222554,2.73492073 12.1414294,2.69493923 12.1308837,2.65495773 C12.1126684,2.57499473 11.4118601,1.46550811 10.358251,1.09567924 C11.4415798,0.835799491 12.4386258,1.15565149 12.8700399,1.45551274 C13.2726931,1.73538324 13.358976,2.43505948 13.3973239,2.72492536 C13.4155391,2.8648606 13.4260848,2.9048421 13.4740197,2.93482823 C13.5123677,2.95481898 13.5603026,2.95481898 13.5890635,2.91483748 C13.7136942,2.77490223 14.0962148,2.44505486 14.4423048,2.33510573 C14.9887627,2.14519361 15.6215034,2.24514736 16.340527,2.60498086 C17.0212026,2.9448236 17.5667018,3.52455535 17.8936179,4.23422697 C17.9127919,4.2642131 17.9214201,4.29419922 17.9310071,4.32418535 C16.858224,3.59452298 15.5726098,3.31465248 14.3847829,3.55454148 C14.3358893,3.56453685 14.3080871,3.60451835 14.3080871,3.65449523 C14.3080871,3.7044721 14.3358893,3.7444536 14.3847829,3.75444897 C15.6013708,3.97434722 17.2023966,4.51409747 17.9511398,5.85347771 C18.5071847,6.85301521 18.5551196,8.14241858 18.0949445,9.89160919 C17.490006,8.1724047 16.5313079,6.56314933 15.31472,5.22376909 L15.2667851,5.16379684 C15.1517414,5.03385697 15.0271106,4.89392172 14.825784,4.92390784 C14.7874361,4.93390322 14.7586752,4.96388934 14.7490882,4.99387547 C14.7395012,5.03385697 14.7490882,5.07383847 14.7778491,5.09382922 C15.6215034,5.89345921 16.1104395,7.08290883 16.0720915,8.27235845 C16.0337436,9.59174794 15.2284372,10.5612993 14.6426727,11.1010496 C14.7289555,9.52178032 14.4327178,8.83209945 13.8766729,7.5327007 C13.7999771,7.35278395 13.7136942,7.17286721 13.6274114,6.96296433 C13.5027807,6.67309846 13.1758646,6.11335746 12.8029311,5.66356559 C12.7732114,5.62358409 12.7166482,5.62358409 12.6687133,5.65357021 C12.6581677,5.66356559 12.6485807,5.67356096 12.6485807,5.68355634 C11.9592768,6.24329734 10.0505089,11.4808738 9.66798833,13.8497777 C9.5328119,14.7193753 9.54239889,15.6389498 9.61909473,16.4685659 C9.62964041,16.6085012 9.63922739,16.7484364 9.65744266,16.8783763 C9.66798833,16.9683347 9.67757532,17.058293 9.6871623,17.1482514 C9.69579058,17.1782375 9.69579058,17.2082236 9.69579058,17.2482051 C9.70633626,17.2771917 9.71592324,17.3181728 9.71592324,17.3481589 C9.84055399,18.1967662 9.99394568,18.8374698 10.0418806,19.0373773 C8.73709249,20.0868916 7.59720047,19.3262436 7.41408914,19.1873079 C7.25206916,18.6075761 7.20413426,17.9468819 7.2328952,17.2582005 L7.2328952,17.1682421 C7.2328952,17.138256 7.2328952,17.1082699 7.24248218,17.0682884 C7.24248218,16.9283532 7.25206916,16.777423 7.27124312,16.6284919 C7.28083011,16.498552 7.29041709,16.3676126 7.30959105,16.2376727 C7.4342218,15.1491764 7.70169856,14.0496852 7.97972101,13.140106 C8.60383346,11.0310819 9.45611606,9.16194682 9.84918227,8.48226132 C10.3678379,7.5726822 11.0187939,6.41321871 11.4319928,5.68355634 C11.4502081,5.65357021 11.4502081,5.60359334 11.4224058,5.57360721 C11.4032319,5.54362109 11.355297,5.52363034 11.316949,5.54362109 C9.9843587,5.96342684 9.34107229,6.50317708 8.19159329,7.80257583 Z" id="Combined-Shape" fill="#FFE524"></path>
    </g>
</svg>