<?xml version="1.0" encoding="UTF-8"?>
<svg width="24px" height="24px" viewBox="0 0 24 24" version="1.1" xmlns="http://www.w3.org/2000/svg" xmlns:xlink="http://www.w3.org/1999/xlink">
    <!-- Generator: Sketch 52.5 (67469) - http://www.bohemiancoding.com/sketch -->
    <title>ic/3.var/home</title>
    <desc>Created with Sketch.</desc>
    <g id="ic/3.var/home" stroke="none" stroke-width="1" fill="none" fill-rule="evenodd">
        <path d="M7.64774026,17.3976291 L17.591284,17 C19.214365,22.047542 15.498135,23.4965052 15.2200911,23.3599313 C14.943785,23.2226461 14.9637695,20.8055735 14.9637695,20.8055735 C15.3000287,23.3826936 11.935698,24.1573234 11.6854585,23.9745136 C11.435219,23.7924152 11.9556824,23.0042702 11.973929,22.2929481 C11.165864,23.2198008 9.7087404,23.5647921 9.5141097,23.3599313 C9.31861011,23.1543592 9.93030661,22.4963862 9.95637322,22.0055739 C9.01102408,23.3158293 7.25587218,23.4075899 7.11858803,23.2240688 C6.97956609,23.0419703 7.84063319,21.2722008 7.8666998,20.5082408 C6.83706861,20.8084188 6.0846124,20.9442813 6.00293702,20.8084188 C5.92126163,20.6725562 7.56954042,18.1921759 7.64774026,17.3976291 Z M17.6848672,16.1177566 L8.14355319,17 C8.06444473,16.5072986 7.71137114,13.9360133 8.52993561,13.1346037 C8.91631802,12.7550696 10.436866,12.2500507 12.1256237,11.8836041 C12.1256237,11.8836041 10.2636601,4.89340316 10.3436013,3.46302945 C10.4235425,2.03188589 11.277914,0.206581233 14.1333133,0.00950067863 C17.0569957,-0.192198951 16.8304957,2.87794655 16.6930968,3.48843436 C16.5540324,4.09969202 14.6629237,11.4748159 14.6629237,11.4748159 C16.0310838,11.3385531 17.184402,11.3955217 17.5491337,11.8035401 C18.3185676,12.663458 17.9205271,15.0245754 17.6848672,16.1177566 Z M12.6585649,2.37754671 C12.2305465,2.9726376 12.3163167,3.72246752 12.8484252,4.05042188 C13.3838647,4.37837624 14.1624585,4.16050985 14.5913097,3.56541896 C15.0201609,2.96878837 14.9352234,2.22049814 14.4006167,1.89177394 C13.8668427,1.56381958 13.0865834,1.78168597 12.6585649,2.37754671 Z" id="Combined-Shape" fill="#FFE524"></path>
    </g>
</svg>