<?xml version="1.0" encoding="UTF-8"?>
<svg width="24px" height="24px" viewBox="0 0 24 24" version="1.1" xmlns="http://www.w3.org/2000/svg" xmlns:xlink="http://www.w3.org/1999/xlink">
    <!-- Generator: Sketch 52.5 (67469) - http://www.bohemiancoding.com/sketch -->
    <title>ic/2.rec/rent</title>
    <desc>Created with Sketch.</desc>
    <g id="ic/2.rec/rent" stroke="none" stroke-width="1" fill="none" fill-rule="evenodd">
        <path d="M19.4883002,6.91286486 C19.546194,5.22687211 19.6670159,1.08238992 19.463129,0.826641019 C19.2055435,0.504892402 16.2294665,0.459142598 15.9735591,0.826641019 C15.8158195,1.05239005 15.8510592,2.43763409 15.9030797,3.47337964 C13.7970878,1.51138808 12.0392977,-0.0171053549 11.7716438,0.000144570916 C11.0408394,0.0458943743 -0.152801313,12.8963391 0.00158215802,13.3568372 C0.0410170665,13.4730867 1.57142713,13.4550867 3.84187101,13.3553372 C3.03890915,16.8375722 1.53283126,23.629543 1.95235157,23.868042 C2.15036515,23.9805415 4.6104322,24.0142914 7.72578997,23.9947914 C7.78871801,22.3755484 7.98757064,18.0615669 8.31983072,17.7623182 C8.72844349,17.3963198 14.2249985,16.7940724 14.5849469,17.1623208 C14.8651865,17.4518196 14.7074468,21.9255503 14.6252209,23.8800419 C18.3211947,23.7862923 21.4340354,23.6460429 21.6194634,23.4990436 C21.9659871,23.2237948 20.1746354,15.951826 19.2600812,12.3315916 C21.9701823,12.1013426 23.8915853,11.8973434 23.9922702,11.7945939 C24.1449756,11.6378446 22.0138124,9.39760418 19.4883002,6.91286486 Z" id="Path" fill="#FF7777"></path>
    </g>
</svg>