<?xml version="1.0" encoding="UTF-8"?>
<svg width="24px" height="24px" viewBox="0 0 24 24" version="1.1" xmlns="http://www.w3.org/2000/svg" xmlns:xlink="http://www.w3.org/1999/xlink">
    <!-- Generator: Sketch 52.5 (67469) - http://www.bohemiancoding.com/sketch -->
    <title>ic/1.Income/income</title>
    <desc>Created with Sketch.</desc>
    <g id="ic/1.Income/income" stroke="none" stroke-width="1" fill="none" fill-rule="evenodd">
        <path d="M12.0399477,4.66681677 C12.121853,4.37598994 12.220719,4.06820246 12.36,3.72 C11.88,3.48 11.4,3.24 11.04,2.76 C10.56,3.36 9.96,3.84 9.48,4.08 C9.48,4.08 9.6,4.2 9.6,4.32 C9.63533328,4.39066656 9.68107023,4.47173679 9.73108426,4.5570841 C10.2018869,4.42704364 10.3246453,3.6 10.92,3.6 C11.3956913,3.6 11.569673,4.35427399 12.0399477,4.66681677 Z M6.26522141,3.39863448 C6.56533925,3.86544972 7.97871702,6.25605091 8.37216545,6.91354217 C7.96615005,6.23511816 6.47426118,3.71426118 6.24,3.48 C6.24813746,3.45151888 6.25655084,3.42441731 6.26522141,3.39863448 C6.25566177,3.38376503 6.24723165,3.37084747 6.24,3.36 C5.76,2.64 6,1.92 6.96,1.92 C8.04,1.92 8.76,1.92 9.24,1.08 C9.84,0.12 10.44,-1.33226763e-15 11.04,-1.33226763e-15 C11.52,-1.33226763e-15 12.12,0.12 12.84,1.08 C12.96,1.32 13.2,1.44 13.44,1.44 C13.8,1.44 14.16,1.32 14.4,1.2 C14.64,1.08 14.88,1.08 15.12,1.08 C16.08,1.08 16.2,2.16 15.84,2.64 C15.6,2.88 14.04,4.92 14.16,6.48 C14.28,7.32 12.6,7.8 11.52,7.8 C11.4,7.8 11.4,7.8 11.28,7.8 C10.9251663,7.8 10.5314724,7.76113982 10.1499883,7.69193114 Z M13.92,8.16 C19.68,9.36 24,15 24,18.96 C24,23.4 18.6,24 12,24 C5.4,24 0,23.4 0,18.96 C0,15.24 3.84,9.96 9,8.4 C9.96,8.76 11.04,8.76 11.28,8.76 L11.52,8.76 C12.12,8.76 13.08,8.52 13.92,8.16 Z M11.52,15 C11.4,14.88 11.4,14.64 11.28,14.52 C11.28,14.28 11.28,14.04 11.4,13.8 C11.52,13.68 11.76,13.56 12,13.56 C12.24,13.56 12.48,13.68 12.6,13.92 C12.72,14.16 12.84,14.52 12.84,14.88 L14.4,14.88 C14.4,14.16 14.28,13.68 13.92,13.2 C13.56,12.72 13.08,12.48 12.48,12.36 L12.48,11.16 L11.64,11.16 L11.64,12.36 C11.04,12.48 10.56,12.72 10.2,13.08 C9.84,13.44 9.6,14.04 9.6,14.64 C9.6,15.24 9.84,15.84 10.2,16.2 C10.56,16.56 11.16,16.92 11.88,17.16 C12.24,17.4 12.48,17.52 12.6,17.76 C12.72,17.88 12.84,18.12 12.84,18.48 C12.84,18.72 12.72,18.96 12.6,19.2 C12.48,19.32 12.24,19.44 12,19.44 C11.76,19.44 11.4,19.32 11.28,19.08 C11.16,18.84 11.04,18.48 11.04,18 L9.48,18 C9.48,18.72 9.72,19.44 10.08,19.8 C10.44,20.16 11.04,20.4 11.64,20.52 L11.64,21.6 L12.48,21.6 L12.48,20.52 C13.08,20.4 13.56,20.16 13.92,19.8 C14.28,19.44 14.52,18.84 14.52,18.24 C14.52,17.52 14.28,16.92 13.92,16.56 C13.56,16.2 12.96,15.84 12.24,15.6 C11.88,15.36 11.64,15.12 11.52,15 Z" id="Combined-Shape" fill="#C0FF81"></path>
    </g>
</svg>