<?xml version="1.0" encoding="UTF-8"?>
<svg width="24px" height="24px" viewBox="0 0 24 24" version="1.1" xmlns="http://www.w3.org/2000/svg" xmlns:xlink="http://www.w3.org/1999/xlink">
    <!-- Generator: Sketch 52.5 (67469) - http://www.bohemiancoding.com/sketch -->
    <title>ic/2.rec/insurance</title>
    <desc>Created with Sketch.</desc>
    <g id="ic/2.rec/insurance" stroke="none" stroke-width="1" fill="none" fill-rule="evenodd">
        <path d="M14.0393529,1.93716767 C14.0157411,0.737968635 13.9930039,0 13.9930039,0 L12.5115872,0.158993243 C12.5115872,0.158993243 12.5771753,0.681721026 12.6077831,2.01516435 C5.97901181,3.02537142 0,12.7157096 0,12.7157096 C7.08788806,8.18590209 7.50677744,14.940865 7.50677744,14.940865 C8.86226498,12.1959817 10.7616965,11.1010282 12.376913,11.0267813 C12.3480542,11.5652585 12.3156974,12.1277346 12.2789681,12.7157096 C11.6773065,22.3715492 8.98819414,21.2195981 8.98819414,21.2195981 C6.81154351,20.94136 6.67249672,17.88149 6.67249672,17.88149 L5.00480979,17.88149 C5.00480979,17.88149 5.15435068,20.8896122 6.4862265,22.4525457 C8.75819851,25.1141826 11.8154788,24.280968 13.1587232,20.4253819 C13.7070398,18.8519488 13.9457805,15.1621056 14.0393529,11.3470177 C14.3366856,11.4872618 14.6042851,11.6680041 14.8264101,11.8839949 C16.0830783,13.0936935 16.216878,14.9431149 16.216878,14.9431149 C18.6261478,7.79066889 24,13.2736859 24,13.2736859 C21.1149978,5.01053705 17.5400087,2.10741043 14.0393529,1.93716767 Z" id="Path" fill="#FF7777"></path>
    </g>
</svg>