<?xml version="1.0" encoding="UTF-8"?>
<svg width="24px" height="24px" viewBox="0 0 24 24" version="1.1" xmlns="http://www.w3.org/2000/svg" xmlns:xlink="http://www.w3.org/1999/xlink">
    <!-- Generator: Sketch 52.5 (67469) - http://www.bohemiancoding.com/sketch -->
    <title>ic/3.var/other</title>
    <desc>Created with Sketch.</desc>
    <g id="ic/3.var/other" stroke="none" stroke-width="1" fill="none" fill-rule="evenodd">
        <path d="M18.4617065,2.81910136 C16.0893867,2.43314426 13.7911129,4.48080122 13.3276134,7.39236962 C13.0606207,9.07203769 13.4643137,10.669052 14.3080109,11.796018 L12.6619114,14.6817122 C12.1407416,14.3072547 11.5405418,14.0952299 10.866296,14.139791 C10.4113404,14.1692589 9.97489617,14.2835367 9.56123536,14.4589064 L9.08990412,12.0827906 C10.5893355,11.0851957 11.6088919,9.13744197 11.6088919,6.89572836 C11.6088919,3.64060782 9.45871014,1 6.80444597,1 C4.15089379,1 2,3.64060782 2,6.89644708 C2,10.1530051 4.15089379,12.7921754 6.80444597,12.7921754 C7.11771749,12.7921754 7.42315723,12.7519267 7.72076517,12.68221 L8.70685849,14.9232049 C6.55525272,16.351318 5.22384875,19.2528243 5.49653737,19.6538746 C6.24981298,20.7643099 8.35442802,19.0436743 8.35442802,19.0436743 C8.35442802,19.0436743 5.81123285,22.0953947 6.80515795,23.4581036 C7.34982321,24.2048623 13.566839,24.1559888 14.0702093,23.4581036 C14.5735797,22.7609371 12.6668953,18.6684981 12.6668953,18.6684981 C12.6668953,18.6684981 13.8922141,21.2695759 14.5415406,20.8599008 C15.4172769,20.3057612 14.9160424,17.1469503 13.3931157,15.3623479 L15.3453668,12.7871443 C15.7761152,13.0731982 16.2581261,13.2773171 16.7842799,13.3628457 C19.1573117,13.7473654 21.4555855,11.7011459 21.9183729,8.78957746 C22.3804484,5.87657161 20.8340263,3.20505847 18.4617065,2.81910136 Z M5.42106741,6.89572836 C5.42106741,5.70551427 6.04049065,4.74026214 6.80444597,4.74026214 C7.56911328,4.74026214 8.18782453,5.70551427 8.18782453,6.89572836 C8.18782453,8.0873799 7.5684013,9.0519133 6.80444597,9.0519133 C6.04049065,9.0519133 5.42106741,8.0873799 5.42106741,6.89572836 Z M19.2826203,8.41080764 C19.0113556,9.56939768 18.1904418,10.3657487 17.444998,10.1882228 C16.7024021,10.0114156 16.3179325,8.92829203 16.5899091,7.76970199 C16.8611738,6.61183067 17.6827996,5.8154797 18.4261074,5.99372432 C19.1708393,6.16981276 19.5531729,7.2522176 19.2826203,8.41080764 Z" id="Shape" fill="#FFE524"></path>
    </g>
</svg>