<?xml version="1.0" encoding="UTF-8"?>
<svg width="24px" height="24px" viewBox="0 0 24 24" version="1.1" xmlns="http://www.w3.org/2000/svg" xmlns:xlink="http://www.w3.org/1999/xlink">
    <!-- Generator: Sketch 52.5 (67469) - http://www.bohemiancoding.com/sketch -->
    <title>ic/3.var/pets</title>
    <desc>Created with Sketch.</desc>
    <g id="ic/3.var/pets" stroke="none" stroke-width="1" fill="none" fill-rule="evenodd">
        <path d="M10.6903503,12.6530807 C14.5811498,8.30780457 19.992871,11.4118946 20.9370723,14.7282238 C23.077462,22.2503362 16.5925462,25.4931691 11.0810802,23.3527794 C6.78605149,21.6848653 6.79955079,16.9976068 10.6903503,12.6530807 Z M1.84763957,15.7136264 C0.771171923,14.2734217 0.712099488,12.4978044 1.71569759,11.7476744 C2.7192957,10.9975443 4.40552216,11.5569604 5.4819898,12.9971651 C6.55845745,14.4373699 6.61752989,16.2129871 5.61393178,16.9631171 C4.61033368,17.7132472 2.92410722,17.1538312 1.84763957,15.7136264 Z M5.39778242,2.74485161 C6.87476968,2.25635994 8.69256885,3.73637489 9.45795051,6.05055753 C10.2233322,8.36474018 9.64646186,10.6367566 8.1694746,11.1252483 C6.69248735,11.61374 4.87468817,10.133725 4.10930651,7.81954238 C3.34392485,5.50535974 3.92079516,3.23334329 5.39778242,2.74485161 Z M16.1398235,4.14647794 C16.0885723,6.40356241 14.8792346,8.20677409 13.4386921,8.17406396 C11.9981497,8.14135384 10.8719066,6.28510856 10.9231578,4.0280241 C10.974409,1.77093963 12.1837467,-0.0322720538 13.6242891,0.000438072662 C15.0648316,0.0331481991 16.1910747,1.88939348 16.1398235,4.14647794 Z M17.8889957,5.38231856 C18.5600295,3.42830447 20.2088375,2.22367521 21.5717114,2.6917038 C22.9345853,3.1597324 23.4954325,5.12318594 22.8243987,7.07720003 C22.1533649,9.03121413 20.5045569,10.2358434 19.141683,9.76781479 C17.7788091,9.2997862 17.2179619,7.33633266 17.8889957,5.38231856 Z" id="Combined-Shape" fill="#FFE524"></path>
    </g>
</svg>