<?xml version="1.0" encoding="UTF-8"?>
<svg width="24px" height="24px" viewBox="0 0 24 24" version="1.1" xmlns="http://www.w3.org/2000/svg" xmlns:xlink="http://www.w3.org/1999/xlink">
    <!-- Generator: Sketch 52.5 (67469) - http://www.bohemiancoding.com/sketch -->
    <title>ic/2.rec/phone</title>
    <desc>Created with Sketch.</desc>
    <g id="ic/2.rec/phone" stroke="none" stroke-width="1" fill="none" fill-rule="evenodd">
        <path d="M18.4269328,0.481585393 C17.4864018,-0.901460146 6.59079309,1.03435359 5.92702123,2.02963637 C5.26324938,3.02491914 4.43447209,22.4378083 5.54000849,23.4338411 C6.64629492,24.4283739 17.3738981,24.0421112 18.4269328,22.8248211 C19.4799675,21.607531 19.3674638,1.86313088 18.4269328,0.481585393 Z M9.6463937,2.36114728 C9.88340151,2.09788861 14.0235378,1.37936495 14.2162942,1.5871218 C14.4098005,1.79412861 14.4098005,2.45790047 14.2162942,2.74891005 C14.0235378,3.03916961 9.92765296,3.55068645 9.6463937,3.35718008 C9.36438442,3.16367371 9.40863587,2.62440595 9.6463937,2.36114728 Z M12.3532328,22.4340582 C11.3939512,22.761819 10.384418,22.3478054 10.0956585,21.5092778 C9.80914906,20.6700001 10.3559171,19.724219 11.3136986,19.3972082 C12.2729802,19.0686974 13.2832635,19.4834611 13.5712729,20.3227387 C13.8585324,21.1605163 13.3125144,22.1070475 12.3532328,22.4340582 Z M16.6013727,17.4598944 C16.3253636,17.7554042 7.29206618,18.418426 7.14506134,18.1791681 C6.99655645,17.9399102 7.08880949,5.18199016 7.4203204,4.90598107 C7.75033127,4.62922196 16.2863623,3.87319707 16.5998727,4.18670739 C16.914883,4.50021771 16.8781318,17.1658848 16.6013727,17.4598944 Z" id="Shape" fill="#FF7777"></path>
    </g>
</svg>