<?xml version="1.0" encoding="UTF-8"?>
<svg width="24px" height="24px" viewBox="0 0 24 24" version="1.1" xmlns="http://www.w3.org/2000/svg" xmlns:xlink="http://www.w3.org/1999/xlink">
    <!-- Generator: Sketch 52.5 (67469) - http://www.bohemiancoding.com/sketch -->
    <title>ic/2.rec/rec-bills</title>
    <desc>Created with Sketch.</desc>
    <g id="ic/2.rec/rec-bills" stroke="none" stroke-width="1" fill="none" fill-rule="evenodd">
        <path d="M16.1223174,20.2432095 C16.2519011,20.2432095 16.3696146,20.1343987 16.3696146,19.9959123 C16.3696146,19.8574258 16.2519011,19.7486151 16.1223174,19.7486151 L11.2950759,19.7486151 C11.1565895,19.7486151 11.0477787,19.8574258 11.0477787,19.9959123 C11.0477787,20.1343987 11.1565895,20.2432095 11.2950759,20.2432095 L16.1223174,20.2432095 Z M7.59649888,16.2765623 L11.6116163,16.2765623 C11.6511839,16.2765623 11.6917406,16.2656812 11.7214163,16.2468866 C11.9974,16.9887783 12.4128593,17.7405618 13.0162644,18.3835345 C13.0469293,18.4132102 13.0953996,18.4231021 13.1349671,18.4033183 C13.1755238,18.3835345 13.1943184,18.3538588 13.1943184,18.3043994 C13.1547509,17.8790482 13.1844265,17.275643 13.254659,16.7602756 C13.6107669,17.6218591 14.1647127,18.3835345 14.7968043,18.8583451 C14.8175773,18.868237 14.8363719,18.8781289 14.8571448,18.8781289 C14.8759394,18.8781289 14.8967124,18.8781289 14.9066043,18.868237 C14.9461718,18.8484532 14.9649664,18.8088857 14.9550745,18.7693181 C14.915507,18.4913561 14.8759394,18.2351562 14.847253,17.987859 C14.7384422,17.3152106 14.6385341,16.6821297 14.6593071,15.95013 C14.6682098,15.5742382 14.82648,15.0104006 14.9758475,14.713644 C15.1232366,14.4069954 15.7761013,14.1003469 16.1124255,14.1300226 C16.172766,14.1300226 16.2123335,14.090455 16.2222254,14.0400064 C16.2222254,13.9816442 16.1826579,13.9321848 16.1223174,13.9321848 C15.727631,13.8926172 14.9857394,14.2487252 14.7968043,14.624617 C14.6385341,14.9510493 14.470372,15.5346707 14.4604801,15.95013 C14.4416855,16.6920216 14.5396152,17.3349943 14.6494152,18.0175346 C14.6682098,18.1856967 14.6988746,18.3637507 14.7285503,18.5418047 C14.1241559,18.0175346 13.6107669,17.2261836 13.3031292,16.3458055 C13.2843346,16.306238 13.2447671,16.2765623 13.2051995,16.2765623 C13.1547509,16.2864542 13.1161725,16.3161299 13.1052914,16.3556974 C13.0162644,16.8601837 12.9677942,17.5130483 12.9766969,18.0472103 C12.4524268,17.4240213 12.0874161,16.7216973 11.8589135,16.0292651 C11.8589135,15.9896975 11.8500108,15.95013 11.819346,15.9105624 C11.5819407,15.2082384 11.463238,14.5158062 11.4137786,13.9420767 C11.2950759,12.5374285 11.6323893,11.1327804 12.3742809,10.014997 C12.6215781,9.63910529 13.233886,9.67867284 13.6997939,9.77759173 C14.1736154,9.87651061 14.6682098,10.0842403 15.1440096,10.2919699 C15.3705338,10.3809969 15.5990365,10.4799158 15.8156688,10.5590509 C15.8651283,10.5788347 15.9254688,10.549159 15.9442634,10.4996996 C15.9650363,10.4502401 15.9353607,10.3908888 15.8859012,10.371105 C15.6672905,10.2919699 15.449669,10.2029429 15.2231447,10.104024 C14.7384422,9.90618627 14.2438478,9.68856473 13.7393615,9.58964585 C12.9766969,9.42148375 12.4524268,9.53029452 12.2051296,9.90618627 C11.7313082,10.6184022 11.4236704,11.439429 11.285184,12.319807 C11.2456165,12.3000232 11.2060489,12.2901313 11.1664813,12.2901313 L7.59649888,12.2901313 C7.45702325,12.2901313 7.34920167,12.3989421 7.34920167,12.5374285 C7.34920167,12.675915 7.45702325,12.7847258 7.59649888,12.7847258 L11.1664813,12.7847258 C11.1872543,12.7847258 11.2060489,12.7847258 11.2268219,12.7748339 C11.1872543,13.1606175 11.1872543,13.5661849 11.2268219,13.9618605 C11.2268219,14.0212118 11.2367138,14.0805631 11.2456165,14.1399144 C11.2367138,14.1300226 11.2159408,14.1300226 11.2060489,14.1300226 L7.55693132,14.1300226 C7.42833678,14.1300226 7.30963412,14.2388333 7.30963412,14.3773198 C7.30963412,14.5158062 7.42833678,14.624617 7.55693132,14.624617 L11.2060489,14.624617 C11.2367138,14.624617 11.2762813,14.6147251 11.305957,14.6048332 C11.3554164,14.9708331 11.4444434,15.3764005 11.5720488,15.7819679 L7.59649888,15.7819679 C7.45702325,15.7819679 7.34920167,15.9006706 7.34920167,16.0292651 C7.34920167,16.1677515 7.45702325,16.2765623 7.59649888,16.2765623 Z M9.42550901,7.05732246 L9.4354009,8.01683562 C9.29790366,7.98715996 9.17821181,7.92780863 9.0990767,7.83878163 C8.95069838,7.68051142 8.87255246,7.46288988 8.87255246,7.1958089 C8.87255246,7.08699812 8.78253628,6.99797113 8.6747147,6.99797113 C8.56491474,6.99797113 8.47687693,7.08699812 8.47687693,7.1958089 C8.47687693,7.56180876 8.59557959,7.88824107 8.82210383,8.1157545 C8.98037404,8.2839166 9.19799558,8.38283548 9.44529279,8.42240304 L9.44529279,8.67959213 C9.44529279,8.7884029 9.53530897,8.8774299 9.64313056,8.8774299 C9.75293051,8.8774299 9.84096832,8.7884029 9.84096832,8.67959213 L9.84096832,8.43229493 C10.0190223,8.41251115 10.1980655,8.36305171 10.3563357,8.27402471 C10.5828599,8.14543017 10.7421193,7.89813296 10.771795,7.60137631 C10.8113626,7.30461967 10.7322275,7.03753868 10.5640654,6.88916036 C10.3454546,6.68143071 10.0694709,6.66164693 9.81129266,6.67153882 L9.80140077,5.62299866 C9.99033583,5.66256622 10.148606,5.75159321 10.2079574,5.85051209 C10.3355627,6.05824175 10.3662276,6.24618762 10.3662276,6.36489028 C10.3662276,6.41434972 10.3563357,6.45391728 10.3563357,6.45391728 C10.3355627,6.56272805 10.4146978,6.66164693 10.5136167,6.68143071 C10.6323194,6.70121448 10.7322275,6.63197127 10.751022,6.52316049 C10.751022,6.51326861 10.8301571,6.07802552 10.5432924,5.63289055 C10.4057951,5.41526901 10.1090385,5.26689069 9.79249807,5.22732313 L9.79249807,4.98991782 C9.79249807,4.88110705 9.70347107,4.79208005 9.59367111,4.79208005 C9.48486034,4.79208005 9.39583335,4.88110705 9.39583335,4.98991782 L9.39583335,5.22732313 C8.99026593,5.28667446 8.69350928,5.53397167 8.55601204,5.9296472 C8.54612015,5.97910664 8.42741749,6.34510651 8.59557959,6.66164693 C8.6747147,6.81991714 8.82210383,6.9386198 9.0110389,6.99797113 C9.15941722,7.03753868 9.29790366,7.05732246 9.42550901,7.05732246 Z M12.1952377,7.12656568 L12.2051296,8.09597073 C12.0666432,8.05640317 11.9479405,7.99705184 11.8688054,7.91791674 C11.7214163,7.75964653 11.6422812,7.5321331 11.6422812,7.26505211 C11.6422812,7.15624134 11.5532542,7.06721435 11.4444434,7.06721435 C11.3346434,7.06721435 11.2456165,7.15624134 11.2456165,7.26505211 C11.2456165,7.64094387 11.3643191,7.95748429 11.5819407,8.19488961 C11.7402109,8.35315982 11.9687135,8.46197059 12.2160107,8.50153814 L12.2160107,8.75872724 C12.2160107,8.86753801 12.3050377,8.956565 12.4128593,8.956565 C12.52167,8.94667311 12.610697,8.85764612 12.610697,8.74883535 L12.610697,8.51143003 C12.7897402,8.49164626 12.9677942,8.44218681 13.1260644,8.35315982 C13.3525886,8.22456527 13.5108589,7.97726807 13.5415237,7.67061953 C13.5810913,7.38375477 13.5019562,7.1067819 13.3337941,6.95840358 C13.1161725,6.76056581 12.8481023,6.74078204 12.5820106,6.74078204 L12.5711295,5.69224188 C12.7600645,5.73180944 12.9183348,5.83072832 12.9766969,5.91975531 C13.1755238,6.22640385 13.1349671,6.51326861 13.1260644,6.53305238 C13.1052914,6.64186315 13.1755238,6.74078204 13.2843346,6.76056581 C13.3921562,6.78034959 13.5019562,6.71110637 13.5207507,6.6022956 C13.5207507,6.58251182 13.5998859,6.14726874 13.3130211,5.70213377 C13.1755238,5.48451223 12.8787672,5.33613391 12.5612376,5.29656635 L12.5612376,5.05916103 C12.5612376,4.95035026 12.4731998,4.87121516 12.3633998,4.86132327 C12.2555782,4.87121516 12.1655621,4.96024215 12.1655621,5.06905292 L12.1655621,5.29656635 C11.7609838,5.36580957 11.463238,5.61310678 11.3247516,6.00878231 C11.3158489,6.04834986 11.1971462,6.42424161 11.3554164,6.73089015 C11.4444434,6.89905225 11.5928217,7.00786302 11.7797784,7.06721435 C11.9291459,7.1067819 12.0666432,7.12656568 12.1952377,7.12656568 Z M19.6626242,14.7106764 C19.7922079,16.431865 20.1077591,17.7178104 20.3461536,18.7069992 C20.562786,19.5675935 20.7121535,20.1907825 20.6023535,20.5874472 C20.2868023,21.7052306 19.3965324,22.090025 18.6942083,21.9822034 C18.1105869,21.8822954 16.8137603,21.8328359 16.1421011,21.8328359 L16.0619768,21.8328359 C15.1123556,21.8328359 13.925329,21.8130522 12.6700484,21.7932684 C10.6708977,21.7635927 8.61338499,21.7240252 7.37689896,21.8031603 C6.76360189,21.8328359 6.08205079,21.298674 5.88322383,20.5874472 C5.75561847,20.1512149 5.81398062,19.6269449 5.87432113,19.1224586 C5.9039968,18.8959343 5.93268327,18.6575398 5.94356435,18.4300264 C5.99302379,17.0461512 5.95345624,15.6207301 5.82486169,14.2259739 L5.82486169,14.2061901 C5.81398062,14.1864063 5.80408873,14.1577198 5.79518603,14.1468388 C5.78529414,14.127055 5.75561847,14.1181523 5.7358347,14.1181523 L5.71506173,14.1181523 C5.30949431,14.0973793 4.58837566,14.4445846 4.40933248,14.8105845 C4.24117038,15.1360276 4.07300828,15.7206382 4.06410558,16.1360975 C4.0542137,16.8779891 4.14324069,17.5199727 4.25205146,18.2025129 C4.28073794,18.370675 4.3015109,18.548729 4.33019738,18.7277722 C3.72778138,18.2025129 3.21241401,17.4121511 2.90675466,16.5307838 C2.89686277,16.4912163 2.84641414,16.4625298 2.80684659,16.4625298 C2.75738715,16.4625298 2.72870067,16.5020974 2.71781959,16.5416649 C2.6198899,17.0461512 2.57043046,17.6990158 2.58922505,18.2331778 C1.49221464,16.9462431 1.12621478,15.3051789 1.0263067,14.127055 C0.897712157,12.712515 1.23403636,11.3187479 1.97592798,10.1999754 C2.23410626,9.8240836 2.83652225,9.86365116 3.301441,9.96257004 C3.78614352,10.0624781 4.28073794,10.2692186 4.75653776,10.4769482 C4.983062,10.5659752 5.20167273,10.6648941 5.41929427,10.7440292 C5.47765641,10.763813 5.52711586,10.7341373 5.54788882,10.6846779 C5.55679152,10.674786 5.55679152,10.6550022 5.55679152,10.6451103 L5.55679152,10.6362076 C5.57756449,10.0417051 5.62702393,9.42840807 5.68538607,8.70630023 C5.70615903,8.41943547 5.7358347,8.11278694 5.75561847,7.78635462 L5.76452117,7.6290736 C5.94356435,5.25403123 6.17998048,1.9996 11.6996541,1.9996 C17.2796683,1.9996 17.6951276,5.16500424 17.7139222,10.3889104 L17.7139222,11.9310558 C17.7139222,13.8401902 17.7238141,15.6415031 17.8425167,17.5496483 C17.8533978,17.7781509 17.8632897,18.0046752 17.8731816,18.2331778 C17.9028572,18.9641883 17.9216518,19.7268529 18.1600463,20.3797175 C18.1788409,20.4192851 18.2184085,20.4479716 18.257976,20.4479716 C18.2688571,20.4479716 18.278749,20.4479716 18.2876517,20.4380797 C18.3371111,20.4192851 18.367776,20.3688365 18.3479922,20.319377 C18.1204788,19.6872854 18.0898139,18.9453938 18.0710193,18.2222967 C18.0611275,17.9957725 18.0502464,17.7672699 18.0403545,17.5407456 C17.9127491,15.630622 17.9127491,13.8401902 17.9127491,11.9310558 L17.9127491,10.3889104 C17.9127491,9.8240836 17.9028572,9.28992164 17.8820843,8.77554345 C18.0611275,8.77554345 18.2085166,8.78543534 18.3479922,8.78543534 C18.6338678,8.78543534 18.8712731,8.76565156 19.1888027,8.7359759 C19.3263,8.71619212 19.4657756,8.69640834 19.604262,8.67662457 C19.9791646,8.6380462 20.4153969,8.57869487 20.9495588,8.54803002 C19.5340296,9.29981353 19.5844782,11.9211639 19.6131647,13.257558 L19.6131647,13.4642985 C19.6230566,13.8797578 19.6339377,14.2863144 19.6626242,14.661217 L19.6626242,14.7106764 Z M22.7201079,12.0998114 C22.5717296,13.286838 22.7398917,14.6618105 23.2344861,16.293972 C23.2245942,16.293972 23.2147023,16.283091 23.2038212,16.2741883 C22.6409728,15.769702 22.1068108,15.2849994 21.7803785,14.612351 C21.7704866,14.5727835 21.7309191,14.5628916 21.6804704,14.5628916 C21.6409029,14.5628916 21.6122164,14.5925672 21.6013353,14.6321348 C21.4232813,15.3344589 21.3649192,15.8488371 21.295676,16.382999 C21.2758922,16.5511611 21.2462165,16.7193232 21.2254436,16.8973772 C20.9890275,16.6006206 20.6418222,15.9962262 20.3549574,15.4828372 C20.1571197,15.1267292 19.9790657,14.8200807 19.860363,14.6519186 C19.8316765,14.2760268 19.8207955,13.8803513 19.8118928,13.464892 L19.8118928,13.2472704 C19.7812279,11.694244 19.7228658,8.78602885 21.5825407,8.55851542 C21.6616759,8.54862353 21.7309191,8.54862353 21.7902704,8.54862353 L21.8595136,8.54862353 C22.1068108,8.55851542 22.2848648,8.61786675 22.4332431,8.7464613 C22.6993349,8.97397473 22.8279295,9.43889347 22.8487024,10.1610013 C22.8585943,11.0117037 22.8279295,11.249109 22.7201079,12.0998114 Z M10.1678952,7.92761079 C10.0689763,7.98696212 9.95027369,8.01663778 9.83157103,8.02652967 L9.82167914,7.06701651 C10.0393007,7.05712462 10.187679,7.0769084 10.2964898,7.17582728 C10.3558411,7.23517861 10.4053005,7.37366505 10.3855168,7.55171903 C10.365733,7.71988113 10.2865979,7.86825946 10.1678952,7.92761079 Z M8.9314092,6.05843958 C9.03032808,5.77157483 9.22816584,5.66276406 9.40621983,5.6231965 L9.41611172,6.66184477 C9.31719284,6.65195288 9.22816584,6.64206099 9.12924696,6.61238533 C9.03032808,6.58270966 8.98086864,6.54314211 8.94130108,6.47389889 C8.87205787,6.33541246 8.91162542,6.1276828 8.9314092,6.05843958 Z M12.9374261,8.00684481 C12.8385072,8.06619614 12.7198046,8.09587181 12.6011019,8.1057637 L12.59121,7.13635865 C12.8088316,7.13635865 12.9581991,7.14625054 13.0660206,7.25506131 C13.125372,7.30452075 13.1748314,7.45289907 13.1550476,7.62106117 C13.1352639,7.79911516 13.0462369,7.93760159 12.9374261,8.00684481 Z M11.7009401,6.13717902 C11.8008481,5.85031426 11.9976967,5.74150349 12.1757507,5.70193593 L12.1856426,6.73069231 C12.0877129,6.73069231 11.9976967,6.71090853 11.8987778,6.69112476 C11.8008481,6.66144909 11.7405076,6.62188154 11.710832,6.55263832 C11.6415887,6.41415189 11.6811563,6.19653034 11.7009401,6.13717902 Z" id="Combined-Shape" fill="#FF7777"></path>
    </g>
</svg>