<?xml version="1.0" encoding="UTF-8"?>
<svg width="24px" height="24px" viewBox="0 0 24 24" version="1.1" xmlns="http://www.w3.org/2000/svg" xmlns:xlink="http://www.w3.org/1999/xlink">
    <!-- Generator: Sketch 52.5 (67469) - http://www.bohemiancoding.com/sketch -->
    <title>salary</title>
    <desc>Created with Sketch.</desc>
    <g id="Symbols" stroke="none" stroke-width="1" fill="none" fill-rule="evenodd">
        <g id="ic/income/salary" fill="#C0FF81">
            <path d="M17.8401259,18.3718812 C17.3940704,18.6763553 15.7337064,18.7535988 15.5412247,18.3718812 C15.3495799,17.9894138 15.0324035,14.2337332 15.5412247,13.7762721 C16.0525566,13.318811 17.1371492,13.0893305 17.8401259,13.318811 C18.5431026,13.5467916 18.2870182,18.0674071 17.8401259,18.3718812 Z M7.92648081,18.6816049 C7.49046789,18.9785796 5.87362151,19.0528233 5.68699793,18.6823548 C5.50037436,18.3103865 5.18905611,14.6521976 5.68699793,14.2059855 C6.18493975,13.7590236 7.24191542,13.5347926 7.92648081,13.7605234 C8.60937246,13.9817546 8.36249374,18.3838802 7.92648081,18.6816049 Z M18.6887192,17.2192293 L22.1441844,17.3392191 C22.3400136,19.4847866 22.2320564,22.8452507 21.6311787,23.3297095 C20.7214934,24.0638971 3.02070778,24.2281331 1.93025703,23.6566817 C1.17120958,23.2584656 1.00383418,19.5995268 1.29674113,17.5237034 L4.84175215,17.2777243 C4.92041859,18.1349014 5.04427639,19.5762788 5.14302788,19.7750119 C5.41584978,20.3179657 7.77500608,20.2077251 8.41019573,19.7750119 C8.6294575,19.6265245 8.78762726,18.3576324 8.89809502,17.4262117 L14.7528866,17.292723 C14.831553,17.9504171 14.906872,19.0348248 14.9905597,19.1983109 C15.2608709,19.7427646 17.621701,19.6317741 18.2577275,19.1983109 C18.4401667,19.0738215 18.5765777,17.939168 18.6887192,17.2192293 Z M23.3526348,4.8677798 C24.2606463,5.84419675 24.1702636,15.199651 23.350961,15.9338386 C23.2404932,16.0335801 22.7643102,16.1295719 22.0211634,16.2188144 L18.8067188,16.2810591 C18.969073,14.541207 18.8678109,12.3821407 18.2568906,12.1819077 C17.2584964,11.8556855 15.7144583,12.1819077 14.9897228,12.8313525 C14.5629155,13.2160697 14.5436673,14.9154252 14.6566457,16.3598024 L11.7978739,16.4137978 L8.99182525,16.4677932 C9.10480365,14.8096842 8.97927209,12.9400932 8.40935885,12.754859 C7.41263833,12.4293867 5.86943712,12.754859 5.142191,13.4058036 C4.75136943,13.7530241 4.70115681,15.200401 4.78149701,16.5480363 L1.447379,16.6125309 C1.03396175,16.5600353 0.760302969,16.4962907 0.658203974,16.4190473 C-0.431409894,15.6061165 0.0213405685,8.93543383 0.658203974,7.63354456 C0.836458777,7.26907556 2.61900681,6.81686402 5.1129003,6.37365172 C5.07189333,5.25474689 5.02586509,2.54597728 5.48196307,2.04052027 C6.06024508,1.39932481 16.9798163,-0.949475417 18.6468753,0.423657792 C19.2812281,0.946363334 18.6234428,3.4451508 18.2100255,4.78528682 C21.0060316,4.58880353 23.0831604,4.57605461 23.3526348,4.8677798 Z M7.30048512,6.01593215 C10.0780916,5.59296812 13.3084369,5.20675097 16.1454499,4.95252259 C16.4751795,3.69937918 16.6174486,2.68396554 16.1973363,2.34499437 C15.7044158,1.94902805 8.02606918,3.19992166 7.61851007,3.74812503 C7.34317754,4.11859352 7.29965993,5.28924395 7.30048512,6.01593215 Z" id="salary"></path>
        </g>
    </g>
</svg>