<?xml version="1.0" encoding="UTF-8"?>
<svg width="24px" height="24px" viewBox="0 0 24 24" version="1.1" xmlns="http://www.w3.org/2000/svg" xmlns:xlink="http://www.w3.org/1999/xlink">
    <!-- Generator: Sketch 52.5 (67469) - http://www.bohemiancoding.com/sketch -->
    <title>ic/4.saving-power</title>
    <desc>Created with Sketch.</desc>
    <g id="ic/4.saving-power" stroke="none" stroke-width="1" fill="none" fill-rule="evenodd">
        <path d="M12.7974244,8.5263368 C13.6443804,8.53785348 15.0466618,8.68753018 15.201,9.1956 C15.231,9.2156 15.241,9.2556 15.241,9.2856 L15.241,10.3756 C15.241,10.4956 15.151,10.5956 15.04,10.6856 C15.87,10.6856 17.37,10.8256 17.531,11.3556 C17.56,11.3756 17.571,11.4156 17.571,11.4456 L17.571,11.8156 C18.63,12.1256 19.531,12.3956 20.79,12.7956 C19.951,13.0856 17.68,13.8256 15.941,14.3756 L15.31,14.5756 C15.05,14.6656 13.71,15.1156 13.361,15.2256 C12.14,14.8656 10.96,14.4756 9.83,14.0956 C7.92,13.4556 6.12,12.8456 4.29,12.4956 C3,12.2656 1.25,11.6156 0.5,11.3456 C1.04,11.1556 1.59,10.9756 2.14,10.7956 C2.43,10.4056 2.781,10.0156 3.031,9.7756 C3.63,9.1956 4.83,8.2556 5.31,8.5156 C5.34,8.5256 5.38,8.5456 5.401,8.5656 L5.81,9.0056 C6.271,8.9356 6.781,8.9156 7.14,8.9156 L7.271,8.9156 C8.13,8.9256 9.5,9.0456 9.66,9.4556 C9.68,9.4756 9.691,9.5056 9.691,9.5256 L9.691,10.4156 C9.691,10.5256 9.6,10.6156 9.451,10.6856 C9.731,10.6656 9.991,10.6556 10.201,10.6556 L10.31,10.6556 C10.25,10.5956 10.201,10.5356 10.17,10.4656 C10.151,10.4356 10.14,10.4156 10.14,10.3756 L10.14,9.81839946 C10.0400945,9.79639535 9.96598549,9.77726728 9.9241,9.7653 L9.9241,9.5253 C9.9241,9.5053 9.9141,9.4753 9.8941,9.4553 C9.7341,9.0453 8.3641,8.9253 7.5051,8.9153 C6.6741,7.1853 5.5941,5.2553 4.8841,4.0753 L12.6241,5.4653 C13.7741,5.6753 14.6941,5.8253 15.9241,5.9553 L15.9241,5.9653 C17.5341,7.9553 19.5241,10.4153 20.9841,12.5453 C20.0441,12.2953 19.1241,11.9753 18.1241,11.6753 C18.0241,11.6463 17.9141,11.6253 17.8041,11.5953 L17.8041,11.4453 C17.8041,11.4153 17.7941,11.3753 17.7641,11.3563 C17.6041,10.8253 16.1041,10.6853 15.2741,10.6853 C15.3841,10.5953 15.4741,10.4953 15.4741,10.3753 L15.4741,9.2853 C15.4741,9.2553 15.4641,9.2153 15.4341,9.1953 C15.2741,8.6653 13.7551,8.5253 12.9241,8.5253 C12.88345,8.5253 12.8411449,8.52563581 12.7974244,8.5263368 Z M10.3883839,9.2167813 C10.3788613,9.23485956 10.3741,9.25769913 10.3741,9.2853 L10.3741,9.33683487 C10.5171742,9.50458463 11.2965,9.7956 12.691,9.7956 C14.241,9.7956 15.031,9.4356 15.031,9.2856 C15.031,9.1256 14.241,8.7856 12.691,8.7856 C11.3375381,8.7856 10.5635758,9.04450915 10.3883839,9.2167813 Z M10.3741,9.63209497 L10.3741,9.8653 C10.3659845,9.86382446 10.3579507,9.86234892 10.35,9.86087438 L10.35,10.3756 C10.35,10.4456 10.571,10.5856 11,10.6956 C11.241,10.7556 11.54,10.8056 11.91,10.8356 C12.14,10.8656 12.401,10.8756 12.691,10.8756 C12.96,10.8756 13.201,10.8656 13.43,10.8456 C13.691,10.7856 13.981,10.7456 14.26,10.7156 C14.281,10.7056 14.31,10.7056 14.33,10.6956 L14.34,10.6956 C14.401,10.6856 14.441,10.6656 14.491,10.6556 C14.56,10.6356 14.62,10.6156 14.68,10.5956 C14.741,10.5756 14.8,10.5556 14.84,10.5356 C14.96,10.4756 15.031,10.4156 15.031,10.3756 L15.031,9.6156 C14.55,9.9556 13.39,10.0556 12.691,10.0556 C12.0024519,10.0556 10.8678642,9.95884521 10.3741,9.63209497 Z M21.8434,4.2323 C23.0284,4.6623 23.6194,6.0183 23.5874,7.1473 C23.5554,8.4063 22.3384,11.4293 21.2824,12.5803 C19.8194,10.4073 17.8044,7.9003 16.1564,5.8573 C16.9864,5.1683 18.0954,4.3823 19.3874,4.1353 C19.7104,4.0703 20.0444,4.0383 20.4104,4.0383 L20.4214,4.0383 L20.4534,4.0383 C20.5504,4.0383 20.6694,4.0493 20.7774,4.0493 C21.0784,4.0603 21.4884,4.0923 21.8434,4.2323 Z M19.4138,3.8754 C19.3848,3.8754 19.3638,3.8854 19.3448,3.8854 C17.9648,4.1654 16.8048,4.9954 15.9348,5.7054 C14.7248,5.5954 13.8138,5.4454 12.6538,5.2354 L4.9748,3.8454 C5.7838,2.9954 6.5438,2.4254 7.8138,2.0954 C8.8638,1.8254 10.5548,2.1854 11.7838,2.4554 C11.9748,2.4954 12.1748,2.5454 12.3338,2.5854 C15.0048,3.1354 16.8738,3.5054 19.4138,3.8754 Z M6.9069,14.6381 C6.9399,14.1331 6.6919,13.8101 6.2719,13.7671 C6.0669,13.7671 5.8849,13.8211 5.7549,13.9391 C5.5179,14.1551 5.4649,14.4981 5.4649,14.6271 C5.4539,14.7891 5.5079,15.0691 5.6259,15.2411 C5.4969,15.5211 5.4319,15.7251 5.3349,15.9831 L5.2599,16.1881 C5.2379,16.2521 5.2699,16.3061 5.3239,16.3491 C5.3559,16.3601 5.3999,16.3601 5.4219,16.3491 L5.4429,16.3491 C5.4749,16.3491 5.5079,16.3491 5.5289,16.3381 C5.8849,16.3171 6.2399,16.4131 6.6599,16.6281 C6.6709,16.6501 6.6919,16.6601 6.7029,16.6601 C6.7459,16.6601 6.7669,16.6501 6.7889,16.6171 C6.8319,16.5961 6.8429,16.5531 6.8319,16.4991 L6.5189,15.3801 L6.5299,15.3801 C6.6059,15.3261 6.8749,15.1221 6.9069,14.6381 Z M7.8869,13.6381 C7.8339,14.2941 7.8019,14.8651 7.7689,15.4341 C7.7049,16.1771 7.6499,16.9621 7.6069,17.8981 C7.0149,17.6831 6.4979,17.5001 5.9059,17.3171 C5.7329,17.2741 5.6149,17.2311 5.4969,17.1991 C5.3449,17.1661 5.2269,17.1341 5.0449,17.0801 L4.7969,16.9941 C4.7969,16.9091 4.7859,16.8231 4.7859,16.7681 C4.7209,15.2941 4.7209,14.1981 4.7539,12.7991 C5.7879,13.0031 6.8319,13.3041 7.8869,13.6381 Z M6.2614,14.0141 C6.6594,14.0461 6.6814,14.4451 6.6704,14.6271 C6.6494,14.9931 6.4334,15.1651 6.3684,15.1871 C6.3474,15.1871 6.3154,15.1981 6.2934,15.2301 C6.2614,15.2511 6.2504,15.2941 6.2614,15.3481 L6.5304,16.3061 C6.1864,16.1661 5.8734,16.0901 5.5614,16.0901 L5.5504,16.0901 L5.5614,16.0691 C5.6574,15.7791 5.7334,15.5751 5.8734,15.2731 C5.9064,15.2301 5.8844,15.1651 5.8524,15.1331 C5.7544,15.0471 5.7004,14.7891 5.7114,14.6381 C5.7224,14.4231 5.7874,14.2301 5.9164,14.1221 C6.0134,14.0351 6.1204,14.0031 6.2614,14.0141 Z M21.2741,12.9496 C21.2741,13.3036 21.2531,13.6916 21.1881,14.5736 L20.9511,18.1446 C20.9401,18.3396 20.9191,18.8336 20.9191,19.0166 C20.7571,19.0926 20.3911,19.2426 20.2611,19.3176 C18.3871,20.3506 14.4891,22.3196 13.7131,22.6096 C13.7461,21.2326 13.7351,20.0496 13.7241,18.8016 C13.7131,17.7476 13.7031,16.6716 13.7131,15.4446 C14.1121,15.2946 15.3291,14.9076 15.6301,14.8106 L16.2451,14.6166 C19.2171,13.6486 20.7681,13.1426 21.2741,12.9496 Z M13.488,18.8012 C13.499,20.0382 13.509,21.2002 13.477,22.5772 C10.774,21.6422 8.727,20.6952 6.757,19.7802 C5.906,19.3932 5.045,19.0062 4.139,18.6082 C3.214,18.2102 2.233,17.8012 1.156,17.3922 C0.877,15.2192 0.553,12.3152 0.5,11.5082 C0.543,11.5182 0.596,11.5512 0.65,11.5722 C1.372,11.8202 2.987,12.4112 4.28,12.6912 C4.237,14.1322 4.237,15.2732 4.301,16.7892 C4.301,16.9192 4.323,17.1882 4.323,17.1882 C4.334,17.2842 4.398,17.3702 4.495,17.3922 C4.495,17.3922 4.57,17.4242 4.657,17.4462 C4.743,17.4782 4.84,17.5102 4.893,17.5322 C5.077,17.5972 5.227,17.6292 5.367,17.6722 C5.475,17.7042 5.604,17.7262 5.755,17.7802 C6.455,17.9942 7.037,18.1882 7.748,18.4792 C7.78,18.4892 7.801,18.4892 7.834,18.4892 C7.887,18.4892 7.92,18.4792 7.973,18.4472 C8.027,18.4042 8.082,18.3282 8.082,18.2532 C8.114,17.1662 8.178,16.2952 8.232,15.4662 C8.286,14.9292 8.318,14.4022 8.34,13.7882 C8.889,13.9492 9.427,14.1442 9.976,14.3262 C11.118,14.7022 12.27,15.0792 13.477,15.4452 C13.467,16.6822 13.477,17.7472 13.488,18.8012 Z M3.0436,6.5687 L1.0316,6.2097 L3.0646,5.8727 L3.4076,3.8497 L3.7786,5.8337 L5.7836,6.2097 L3.8176,6.5717 L3.4076,8.6037 L3.0436,6.5687 Z M13.38,14.6656 C13.43,14.7356 13.491,14.7956 13.54,14.8456 L13.451,14.8756 L13.06,14.7556 C13.031,14.7156 12.991,14.6756 12.951,14.6366 C12.901,14.5656 12.85,14.5056 12.8,14.4356 C12.79,14.4256 12.781,14.4256 12.781,14.4156 C12.63,14.2156 12.451,13.9756 12.29,13.7056 C12.241,13.6156 12.191,13.5356 12.151,13.4456 C12.08,13.3256 12.01,13.1956 11.96,13.0656 C11.92,12.9856 11.89,12.9056 11.861,12.8256 C11.83,12.7356 11.8,12.6456 11.781,12.5656 C11.76,12.4556 11.741,12.3556 11.75,12.2656 L11.741,12.2556 L11.731,12.2656 L11.401,12.5256 L11.06,12.7856 C11.031,12.8056 11.021,12.8756 11.021,12.9656 C11.021,13.0356 11.04,13.1156 11.06,13.2156 C11.09,13.3356 11.14,13.4756 11.21,13.6256 C11.241,13.7156 11.29,13.8056 11.34,13.9056 C11.401,14.0256 11.47,14.1556 11.55,14.2856 L11.14,14.1556 C11.1,14.0856 11.06,14.0156 11.031,13.9356 C10.88,13.9556 10.75,13.9656 10.63,13.9656 L10.51,13.9656 L9.79,13.7456 L9.321,13.5956 C9.67,13.6556 10.1,13.6856 10.62,13.6656 C10.72,13.6656 10.81,13.6556 10.901,13.6556 C10.85,13.5056 10.81,13.3656 10.781,13.2356 C10.771,13.1456 10.76,13.0656 10.771,12.9856 C10.781,12.8356 10.821,12.7056 10.93,12.6256 L11.08,12.5056 C10.92,12.5056 10.76,12.4956 10.58,12.5056 C9.981,12.5256 9.5,12.6056 9.14,12.6956 C9.021,12.7256 8.92,12.7556 8.83,12.7856 C8.771,12.8156 8.72,12.8356 8.66,12.8556 C8.54,12.9056 8.441,12.9656 8.37,13.0156 C8.361,13.0256 8.35,13.0256 8.35,13.0356 C8.29,13.0856 8.26,13.1256 8.26,13.1556 C8.26,13.1756 8.271,13.1956 8.3,13.2256 C8.321,13.2456 8.35,13.2756 8.39,13.3056 L8.05,13.2056 L8.05,13.1656 C8.05,13.1456 8.06,13.1256 8.071,13.1056 C8.071,13.0956 8.071,13.0756 8.08,13.0656 C8.09,13.0256 8.12,12.9956 8.14,12.9556 C8.18,12.8866 8.231,12.8156 8.31,12.7556 C8.46,12.6366 8.68,12.5356 8.941,12.4556 L8.92,12.0856 L8.91,11.8256 L8.91,11.7756 C8.901,11.7956 8.88,11.8056 8.861,11.8156 C8.771,11.8856 8.651,11.9456 8.521,12.0056 C8.33,12.0856 8.1,12.1556 7.87,12.2056 C7.8,12.2156 7.731,12.2356 7.66,12.2456 C7.281,12.3156 6.89,12.3456 6.59,12.3556 L6.39,12.3556 C6.01,12.3756 5.58,12.3656 5.151,12.3056 C4.92,12.2756 4.701,12.2356 4.481,12.1656 C4.451,12.1656 4.271,12.0856 4.25,12.0556 L4.25,12.1256 L4.09,12.0856 L4.06,12.0856 L4.031,12.0756 L4.021,11.5656 C4.021,11.5356 4.031,11.4856 4.05,11.4556 C4.12,11.1356 4.58,10.9256 5.12,10.7956 C5.191,10.7756 5.26,10.7656 5.33,10.7456 C5.361,10.7156 5.38,10.6856 5.401,10.6556 C5.58,10.4356 5.72,10.2356 5.81,10.0656 C5.85,9.9956 5.89,9.9256 5.92,9.8656 C6.01,9.6656 6.031,9.5356 6,9.4956 L5.731,9.2156 L5.56,9.0356 L5.531,9.0056 L5.481,8.9456 C5.47,8.9856 5.451,9.0256 5.441,9.0656 C5.42,9.1356 5.39,9.2156 5.35,9.2856 C5.281,9.4256 5.201,9.5656 5.1,9.7056 C5.06,9.7556 5.021,9.8156 4.981,9.8756 C4.92,9.9456 4.87,10.0256 4.81,10.0956 C4.741,10.1756 4.67,10.2656 4.6,10.3356 C4.42,10.5456 4.241,10.7256 4.08,10.8756 C3.83,11.1156 3.271,11.5156 2.91,11.7756 L2.59,11.6756 C2.64,11.6456 2.691,11.6156 2.75,11.5756 C3.08,11.3556 3.55,11.0256 3.91,10.6956 C4.18,10.4256 4.41,10.1756 4.6,9.9556 C4.701,9.8256 4.79,9.7056 4.87,9.5956 C4.92,9.5256 4.96,9.4556 5,9.3956 C5.06,9.2956 5.111,9.2156 5.151,9.1356 C5.25,8.9256 5.281,8.7856 5.26,8.7256 C5.26,8.7156 5.25,8.7056 5.25,8.7056 C5.14,8.5956 4.33,8.8856 3.21,9.9556 C2.62,10.5156 2.191,11.1256 1.981,11.4756 L1.741,11.3956 C1.8,11.2756 1.88,11.1556 1.97,11.0256 C1.731,11.1056 1.5,11.1956 1.271,11.2756 C1.26,11.2756 1.26,11.2856 1.26,11.2956 C1.26,11.3056 1.26,11.3156 1.271,11.3156 C2.21,11.6656 3.401,12.0156 4.38,12.2256 C4.771,12.3156 5.13,12.4156 5.51,12.5256 L5.68,12.5856 C5.88,12.6256 6.111,12.7056 6.37,12.7756 C6.691,12.8756 7.031,12.9856 7.29,13.0456 C7.62,13.1456 7.93,13.2256 8.231,13.3156 C8.37,13.3456 8.51,13.4056 8.651,13.4356 C8.75,13.4656 8.87,13.5056 9.01,13.5356 C9.26,13.6056 9.521,13.6856 9.781,13.7656 C10.04,13.8456 10.3,13.9356 10.58,14.0256 C10.59,14.0356 10.59,14.0356 10.6,14.0356 L10.611,14.0456 L10.861,14.1256 L10.91,14.1366 C11.531,14.3556 12.05,14.5156 12.8,14.7256 C13,14.7756 13.401,14.9056 13.401,14.9056 L13.42,14.9056 L13.441,14.9056 C13.441,14.9056 13.531,14.8756 13.651,14.8356 C13.821,14.7756 14.05,14.7056 14.12,14.6656 C14.37,14.5856 14.63,14.5056 14.89,14.4256 C14.941,14.4256 15.72,14.1556 15.781,14.1366 C16.191,13.9956 16.58,13.8556 16.981,13.7356 C16.981,13.7356 18.571,13.2256 18.951,13.1256 C19.861,12.8456 19.861,12.8456 19.861,12.8056 C19.861,12.7956 19.84,12.7856 19.83,12.7856 C19.42,12.6756 19.06,12.5756 18.68,12.4656 C18.521,12.4156 17.991,12.2656 17.571,12.1456 L17.571,12.3256 C17.87,12.4256 18.1,12.5756 18.17,12.7856 C18.191,12.8056 18.201,12.8356 18.201,12.8866 L18.21,13.3056 L18.01,13.3756 L18.01,13.2756 C17.981,13.2956 17.951,13.3156 17.92,13.3356 C17.64,13.5256 17.201,13.6556 16.75,13.7356 C16.37,13.8056 15.991,13.8456 15.691,13.8556 C15.35,13.8656 14.91,13.8556 14.491,13.7956 C14.35,13.7756 14.21,13.7556 14.08,13.7256 C13.781,13.6556 13.51,13.5656 13.33,13.4356 L13.361,14.2956 C13.37,14.3866 13.62,14.5456 14.09,14.6556 L13.64,14.8156 C13.54,14.7756 13.451,14.7156 13.38,14.6656 L13.37,14.6556 C13.361,14.6456 13.361,14.6456 13.35,14.6366 C13.361,14.6456 13.361,14.6556 13.37,14.6556 C13.37,14.6656 13.37,14.6656 13.38,14.6656 Z M13.361,13.1156 C13.42,13.1856 13.571,13.2656 13.79,13.3456 C13.92,13.3866 14.071,13.4356 14.26,13.4656 C14.63,13.5356 15.1,13.5756 15.68,13.5556 C17.21,13.5056 17.991,13.0756 17.991,12.8866 C17.991,12.8156 17.83,12.7056 17.54,12.6056 C17.481,12.5856 17.42,12.5656 17.35,12.5456 C16.96,12.4456 16.39,12.3656 15.64,12.3956 C14.691,12.4256 14.04,12.5956 13.67,12.7656 C13.59,12.8056 13.51,12.8456 13.46,12.8866 C13.441,12.8956 13.43,12.9056 13.41,12.9156 C13.361,12.9656 13.321,13.0156 13.321,13.0456 C13.321,13.0656 13.33,13.0956 13.361,13.1156 Z M12.75,11.9856 C12.991,12.1256 13.241,12.3356 13.47,12.5656 C13.76,12.3856 14.191,12.2756 14.63,12.2056 C13.981,12.1756 13.17,12.0656 12.75,11.8156 L12.75,11.9856 Z M14.33,10.9656 C13.96,10.9956 13.66,11.0456 13.41,11.1056 C13.06,11.1856 12.83,11.2856 12.731,11.3656 C12.701,11.3956 12.68,11.4256 12.68,11.4456 C12.68,11.4656 12.71,11.4956 12.75,11.5356 C12.96,11.7056 13.72,11.9556 15.021,11.9556 C15.21,11.9556 15.401,11.9456 15.571,11.9356 C15.701,11.9356 15.83,11.9256 15.941,11.9056 C16.39,11.8556 16.731,11.7756 16.97,11.6956 C17,11.6856 17.031,11.6756 17.05,11.6656 C17.17,11.6156 17.25,11.5756 17.3,11.5256 C17.34,11.4956 17.361,11.4656 17.361,11.4456 C17.361,11.4256 17.35,11.4056 17.321,11.3856 C17.31,11.3756 17.3,11.3656 17.29,11.3556 C17.271,11.3356 17.25,11.3256 17.231,11.3156 C17.21,11.3056 17.18,11.2856 17.16,11.2756 C17.13,11.2556 17.1,11.2456 17.06,11.2356 C17.031,11.2256 17,11.2056 16.96,11.1956 C16.8,11.1356 16.6,11.0856 16.361,11.0556 C16.26,11.0256 16.151,11.0156 16.04,11.0056 C15.951,10.9956 15.861,10.9856 15.76,10.9756 C15.64,10.9656 15.51,10.9556 15.38,10.9556 C15.34,10.9556 15.31,10.9456 15.271,10.9456 L15.25,10.9456 L15.021,10.9456 C14.771,10.9456 14.54,10.9556 14.33,10.9656 Z M16.981,11.9556 C16.79,12.0256 16.571,12.0756 16.33,12.1056 C16.68,12.1256 17.04,12.1756 17.361,12.2556 L17.361,11.7756 C17.26,11.8456 17.13,11.9056 16.981,11.9556 Z M13.25,12.7456 C13.071,12.5656 12.901,12.4256 12.75,12.3156 C12.731,12.3056 12.701,12.2856 12.68,12.2656 C12.63,12.2356 12.59,12.2056 12.54,12.1756 C12.521,12.1656 12.491,12.1456 12.47,12.1356 C12.25,12.0156 12.1,11.9756 12.05,12.0256 C12.01,12.0556 12,12.1556 12.021,12.3056 C12.031,12.3956 12.05,12.4956 12.09,12.6156 C12.111,12.6556 12.12,12.6956 12.14,12.7456 C12.17,12.8256 12.201,12.8956 12.241,12.9856 C12.29,13.0956 12.35,13.2256 12.43,13.3556 C12.47,13.4356 12.521,13.5156 12.571,13.6056 C12.691,13.7856 12.821,13.9756 12.97,14.1856 C12.991,14.1956 13,14.2156 13.01,14.2356 C13.05,14.2856 13.09,14.3356 13.14,14.3866 C13.16,14.4156 13.191,14.4456 13.21,14.4856 C13.191,14.4356 13.17,14.3866 13.16,14.3256 C13.16,14.3256 13.151,14.3156 13.151,14.3056 L13.111,13.0556 C13.111,13.0256 13.12,12.9956 13.13,12.9756 C13.14,12.9656 13.14,12.9556 13.14,12.9456 C13.151,12.9056 13.18,12.8656 13.21,12.8156 C13.231,12.7956 13.231,12.7656 13.25,12.7456 Z M10.201,11.9256 C11.5,11.9256 12.26,11.6756 12.47,11.5056 C12.51,11.4656 12.54,11.4356 12.54,11.4156 C12.54,11.3956 12.531,11.3756 12.51,11.3456 C12.43,11.2756 12.241,11.1856 11.93,11.0956 C11.691,11.0356 11.37,10.9756 10.981,10.9456 C10.75,10.9256 10.491,10.9156 10.201,10.9156 C9.66,10.9156 9.21,10.9556 8.85,11.0156 C8.951,11.0956 9.04,11.1856 9.071,11.2856 C9.09,11.3156 9.111,11.3456 9.111,11.3856 L9.12,11.8556 C9.43,11.8956 9.79,11.9256 10.201,11.9256 Z M11.67,12.0456 C11.17,12.1456 10.611,12.1856 10.201,12.1856 C9.901,12.1856 9.51,12.1656 9.13,12.1156 L9.14,12.4056 C9.62,12.2856 10.17,12.2256 10.571,12.2156 C10.81,12.2056 11.12,12.2056 11.43,12.2356 L11.67,12.0456 Z M5,11.1256 C4.491,11.2656 4.22,11.4556 4.231,11.5556 C4.231,11.5956 4.281,11.6556 4.38,11.7156 C4.441,11.7556 4.531,11.7956 4.64,11.8356 C5.021,11.9756 5.67,12.0956 6.58,12.0656 C7,12.0556 7.35,12.0056 7.66,11.9556 C7.731,11.9356 7.8,11.9256 7.87,11.9056 C7.941,11.8856 8,11.8756 8.071,11.8556 C8.22,11.8156 8.34,11.7656 8.451,11.7256 C8.75,11.6056 8.901,11.4756 8.901,11.3956 C8.901,11.3156 8.741,11.2056 8.441,11.1056 C8.321,11.0656 8.191,11.0356 8.031,11.0056 C8.01,10.9956 8,10.9956 7.981,10.9956 C7.611,10.9256 7.13,10.8856 6.54,10.9056 C6.31,10.9056 6.1,10.9256 5.901,10.9456 C5.731,10.9656 5.58,10.9956 5.43,11.0156 C5.271,11.0456 5.13,11.0856 5,11.1256 Z M5.71,10.6856 C6.01,10.6356 6.3,10.6156 6.531,10.6056 C7,10.5856 7.691,10.6256 8.241,10.7556 C9.06,10.6656 9.481,10.4956 9.481,10.4156 L9.481,9.7956 C9,10.0656 7.84,10.1556 7.14,10.1556 C6.85,10.1556 6.47,10.1356 6.09,10.0956 C5.991,10.2856 5.861,10.4856 5.71,10.6856 Z M7.14,9.1256 C6.691,9.1256 6.31,9.1456 5.991,9.1856 L6.151,9.3556 C6.271,9.4756 6.25,9.6756 6.17,9.8956 C6.451,9.9256 6.781,9.9456 7.14,9.9456 C8.691,9.9456 9.481,9.6556 9.481,9.5256 C9.481,9.4056 8.691,9.1256 7.14,9.1256 Z" id="Combined-Shape" fill="#88EBF8"></path>
    </g>
</svg>