<?xml version="1.0" encoding="UTF-8"?>
<svg width="24px" height="24px" viewBox="0 0 24 24" version="1.1" xmlns="http://www.w3.org/2000/svg" xmlns:xlink="http://www.w3.org/1999/xlink">
    <!-- Generator: Sketch 52.5 (67469) - http://www.bohemiancoding.com/sketch -->
    <title>ic/3.var/shopping</title>
    <desc>Created with Sketch.</desc>
    <g id="ic/3.var/shopping" stroke="none" stroke-width="1" fill="none" fill-rule="evenodd">
        <path d="M12.8351206,8.87575266 C12.8339177,8.87515731 12.832606,8.87467331 12.8312012,8.87429603 C12.8328228,8.87467699 12.8343271,8.87519127 12.8356908,8.87584542 Z M14.7847768,9.18140823 C14.9012194,9.19097856 15.0071158,9.21003682 15.1120516,9.22909509 C15.1120516,8.94260123 15.1226644,8.71340614 15.1419604,8.579709 C15.2577366,7.72022742 15.605065,7.07084134 16.1250929,6.71749891 C16.4724214,6.47875402 16.8872859,6.38325607 17.3214465,6.42145525 C17.3986306,6.43100505 17.4767795,6.45010464 17.5443156,6.46920423 C19.1651817,6.80344707 19.5993423,8.10221924 19.4536573,9.2099955 C19.435326,9.36279222 19.406382,9.51558895 19.3668251,9.65883588 C19.5790814,9.68748527 19.7923025,9.70658486 20.02289,9.72568445 C20.4869594,9.77343342 20.9008592,9.78298322 21.3060757,9.78298322 C21.7701451,9.78298322 22.2428977,9.79253302 22.7735384,9.84983179 C22.8024824,9.85938158 22.8121305,9.86893138 22.8217785,9.88803097 C22.8410745,9.89758076 22.8507225,9.91668035 22.8507225,9.94532974 C22.5709301,12.3232288 22.493746,14.1472397 22.6375014,15.3791633 L22.6963543,15.9426012 C22.9279066,17.9289587 23.0436828,19.0281401 22.9848299,22.2932151 C22.9848299,22.3218645 22.9664987,22.3409641 22.9558858,22.3505139 C22.9279066,22.3705685 22.8989626,22.3791633 22.8787017,22.3705685 C22.3007858,22.207267 22.1657136,22.4269123 22.0016974,22.6847568 C21.9341613,22.7898045 21.8656604,22.8948523 21.7604971,22.9712506 C21.7402363,22.9903502 21.721905,22.9999 21.7016442,22.9999 L21.692961,22.9999 C21.3263365,22.9712506 19.1352728,22.6179082 17.9678633,22.4269123 L17.8134951,22.4087677 C16.2900739,22.159518 13.4053181,22.0544703 11.3985315,22.0449205 C11.3493267,22.0449205 11.3107346,22.0067213 11.3107346,21.9589723 C11.3107346,21.4537881 11.3300306,20.0012643 11.4371236,18.473297 C11.451258,18.3138052 11.4653095,18.1526738 11.4798365,17.9911037 C11.4652105,18.1527378 11.4510706,18.3139334 11.4369306,18.473488 C9.92219263,18.5498864 8.46534273,18.6635289 7.47159743,18.8268304 L7.28828519,18.8640746 C6.01474752,19.0751251 3.36154405,19.4666667 2.65723913,19.5526149 C2.66688714,18.9127786 2.68618317,18.2633925 2.68618317,17.6426558 C2.67653515,16.4871306 2.77301528,13.9182356 2.80195932,13.0874034 C2.86949541,11.3684402 2.88879143,10.2702138 3.02386361,8.55125061 C3.12034373,7.28112783 3.12999175,4.20609372 3.12999175,4.20609372 C4.52895358,4.053297 5.52269888,4.0437472 6.86377263,3.99599823 C6.95060474,3.99599823 7.01814083,3.97689864 7.10497295,3.97689864 C7.94435004,3.94824925 8.81267118,3.91959986 9.68099232,3.8527513 C10.5782575,3.78590273 11.4755227,3.69995457 12.3824359,3.55670764 C12.5850441,3.51850846 12.7780044,3.49940887 12.9806126,3.48030928 C13.4919573,3.4230105 14.022598,3.37526153 14.5628867,3.12696685 C14.4857026,3.57580723 14.4857026,4.33979086 14.5049986,4.96052756 L14.5339427,5.42846753 C14.5821809,7.01367364 14.659361,8.04503348 14.7847768,9.18140823 Z M11.5875509,16.9394102 C11.5919883,16.9030635 11.5965157,16.8668326 11.6011398,16.8307322 L11.6686759,16.372342 C11.6757669,16.3131005 11.682779,16.2548575 11.6897112,16.197543 C11.682723,16.2549193 11.6756469,16.3132257 11.6684829,16.372533 L11.6009468,16.8309232 C11.5963959,16.8669603 11.5919325,16.9031275 11.5875509,16.9394102 Z M11.8573133,14.8203112 C11.883324,14.598138 11.9073097,14.382739 11.9291722,14.1663393 C11.9681884,13.7746324 12.0007646,13.3765511 12.0267147,12.9279046 C12.0005774,13.3765014 11.9679989,13.7743855 11.9289793,14.1655753 C11.9071133,14.3823181 11.8832246,14.5979597 11.8573133,14.8203112 Z M12.041126,9.86328536 C12.0422898,9.86205754 12.04349,9.86082972 12.0447262,9.85960189 C12.0434861,9.86082959 12.0422861,9.86205748 12.041126,9.86328536 Z M12.0536316,9.84983179 L12.0642444,9.84983179 C12.0729276,9.84028199 12.0835404,9.8307322 12.0922236,9.8307322 C12.5360322,9.8211824 12.7772325,9.6110869 12.8544166,9.420091 C12.8779629,9.36277965 12.8874556,9.30241103 12.8829563,9.24448944 C12.8876302,9.30246931 12.8783742,9.36290765 12.8551885,9.42028199 C12.7780044,9.6112779 12.5368041,9.8213734 12.0929955,9.83092319 C12.0833475,9.83092319 12.0736994,9.84047299 12.0640514,9.85002278 L12.0544034,9.85002278 Z M12.879274,9.21461177 C12.8667016,9.13922187 12.8297291,9.06981387 12.7683564,9.01919059 C12.7618502,9.00953075 12.756441,8.99878523 12.7528682,8.98732009 C12.7565856,8.99871358 12.7620793,9.00939341 12.7685493,9.01899959 C12.8299693,9.06966183 12.8669515,9.13913771 12.8793519,9.21459483 Z M15.0454803,12.0271851 C15.0647763,11.941237 15.0840723,11.8361892 15.1033684,11.7120419 C15.1323124,11.3873488 15.1419604,10.957608 15.1419604,10.5565166 C15.0840723,10.5469668 15.0165363,10.5374171 14.9480354,10.5278673 C14.6209677,10.4992179 14.2832873,10.4514689 13.9542901,10.4037199 C13.7902739,10.3750705 13.6368705,10.3559709 13.4718894,10.3464211 C13.0676377,10.2986722 12.6527732,10.260473 12.2186126,10.0694771 C12.2861487,10.4132697 12.2861487,11.0149068 12.2668527,11.4923966 L12.2379086,11.8552888 C12.1800205,13.7556981 12.0642444,14.6342793 11.8317273,16.3914416 L11.7738392,16.8498318 C11.7072679,17.3750705 11.6590279,17.9194089 11.6204358,18.4637472 C11.5143077,19.9153161 11.4950116,21.3000364 11.4853636,21.8825739 C13.5008335,21.9016735 16.338314,21.9971715 17.8520872,22.2454662 L17.9977722,22.2741156 C19.0098487,22.4364621 21.0465441,22.7611551 21.6157769,22.8280037 C21.6061289,22.3323693 21.6061289,21.8252752 21.6061289,21.3382356 C21.6157769,20.4501046 21.6244601,19.6001729 21.5578888,18.751196 C21.5289448,18.425548 21.4990359,18.1113598 21.4807047,17.7962165 C21.3832598,16.6406913 21.2877445,15.5510596 21.2877445,14.2809368 C21.2877445,13.2982629 21.4314998,12.2277308 21.6061289,10.9958072 L21.6157769,10.9289587 C20.7078989,10.8334607 19.8019505,10.7952615 18.9239814,10.7570623 C18.8072404,11.005357 18.673133,11.2250023 18.5573569,11.425548 L18.5187648,11.4923966 C18.4222847,11.6642929 18.3344878,11.8170896 18.2862477,11.9221374 C18.2090636,12.1226831 18.0450474,12.6574716 18.0546954,12.7625194 C18.0546954,12.8389177 18.0363642,12.9153161 17.9881241,12.9726149 C17.9398841,13.0213188 17.872348,13.059518 17.8038471,13.059518 C17.7951639,13.0681128 17.7758679,13.0681128 17.7652551,13.0681128 C17.7179798,13.0681128 17.6600917,13.0490132 17.6012388,13.0108141 C17.5443156,12.9726149 17.5057235,12.8962165 17.5057235,12.8198181 C17.4960755,12.8007186 17.5057235,12.781619 17.5057235,12.7625194 C17.5057235,12.4473761 17.7565718,11.7502411 17.7758679,11.7024921 C17.8337559,11.5592452 17.9398841,11.377799 18.0749563,11.1581538 L18.0932875,11.1199546 C18.1608236,11.005357 18.2389725,10.8716599 18.3065086,10.7379628 C17.4574834,10.7093134 16.5795143,10.6711142 15.7015452,10.6042656 C15.7015452,11.2536517 15.6716363,11.8266394 15.585769,12.1704321 C15.5375289,12.3232288 15.3831607,12.3996271 15.2374757,12.361428 C15.2094965,12.3518782 15.1892357,12.3423284 15.1709045,12.3327786 C15.1226644,12.313679 15.0937204,12.2754798 15.0647763,12.2277308 C15.0348675,12.1608823 15.0252195,12.0940337 15.0454803,12.0271851 Z M21.6543689,17.7962165 C21.6727002,18.100855 21.7016442,18.4159982 21.731553,18.7406913 C21.7990891,19.6001729 21.7884763,20.4501046 21.7788283,21.3382356 C21.7788283,21.787076 21.7788283,22.2263666 21.7884763,22.6847568 C21.8087371,22.6561074 21.8270684,22.6370078 21.8569772,22.5988086 C22.0113454,22.3505139 22.1936928,22.0449205 22.8121305,22.1786176 C22.8787017,19.0080855 22.7436296,17.9194089 22.5226901,15.9626558 L22.4638372,15.3982629 C22.3297298,14.1663393 22.3963011,12.3518782 22.6664455,10.0121783 C22.6481142,10.0121783 22.6278534,10.0026285 22.6095222,10.0121783 C22.1936928,10.0121783 21.8183852,10.1554252 21.7016442,10.3750705 C21.6244601,10.5087677 21.6543689,10.6520146 21.7884763,10.8048113 C21.7990891,10.8239109 21.8087371,10.8430105 21.8087371,10.8716599 L21.7788283,11.0244566 C21.6061289,12.2468304 21.4604439,13.3068577 21.4604439,14.2809368 C21.4604439,15.5415098 21.5578888,16.6301865 21.6543689,17.7962165 Z M16.4434773,7.16633929 C16.0488736,7.43373356 15.7883773,7.94942251 15.6918971,8.64655757 C15.6716363,8.77070491 15.6716363,9.01899959 15.6716363,9.30549345 C16.6846776,9.420091 17.5346676,9.49648936 18.663485,9.60153711 C18.7117251,9.60153711 18.7599652,9.6110869 18.8072404,9.6110869 C18.8458325,9.45829018 18.8844245,9.29594366 18.9046853,9.14314693 C18.9818694,8.47466126 18.9046853,7.30003643 17.4188914,7.00399277 C17.0522669,6.91804461 16.7136217,6.97534338 16.4434773,7.16633929 Z M13.9832341,10.2318236 C14.3016185,10.2795726 14.6113197,10.3273216 14.9297041,10.3559709 C14.9962754,10.3655207 15.0647763,10.3750705 15.1323124,10.3750705 C15.1323124,10.1458754 15.1323124,9.92623015 15.1226644,9.75433383 L15.1226644,9.39144161 C15.0165363,9.37234202 14.9190913,9.36279222 14.80428,9.34369263 C14.2832873,9.26729427 13.7034417,9.18134611 13.0097496,9.06674857 C13.0676377,9.19089591 13.0676377,9.34369263 13.0184328,9.47738977 C12.9422135,9.66838568 12.7492533,9.87848117 12.3826288,9.96442933 C12.7579365,10.0981265 13.1158778,10.1458754 13.4921503,10.1745248 L13.9832341,10.2318236 Z M18.3547486,10.5756162 L18.3933407,10.5756162 C18.527448,10.3273216 18.6528722,10.0599273 18.7503171,9.78298322 C18.7213731,9.77343342 18.6914643,9.77343342 18.663485,9.77343342 C18.2958957,9.73523424 17.9495321,9.70658486 17.6311477,9.67793547 C17.5153715,9.66838568 17.4082786,9.65883588 17.3031152,9.64928608 C17.2442624,9.63973629 17.1873391,9.63018649 17.1188382,9.63018649 C17.0030621,9.6110869 16.8872859,9.60153711 16.7618617,9.59198731 C16.4048853,9.55378813 16.0585216,9.50603915 15.6812843,9.45829018 L15.6812843,9.74478404 C15.6918971,9.97397913 15.6918971,10.2031742 15.6918971,10.4228195 L15.6716363,10.4228195 C15.6716363,10.4228195 15.6812843,10.4323693 15.6918971,10.4323693 C15.7584684,10.4419191 15.8356525,10.4514689 15.9041534,10.4419191 C16.2794611,10.4801183 16.6566984,10.4992179 17.0329709,10.5183175 C17.4767795,10.5469668 17.9196233,10.5660664 18.3547486,10.5756162 Z M19.3195499,9.8307322 C19.2327178,10.0981265 19.1256248,10.3559709 19.0098487,10.6042656 C19.3195499,10.6138154 19.6282863,10.6233652 19.9360579,10.6424648 C20.051834,10.6520146 20.168575,10.6520146 20.2930344,10.6615644 C20.6027356,10.680664 20.911472,10.6997636 21.2288916,10.728413 C21.3359845,10.7379628 21.4421127,10.7475126 21.547276,10.7570623 C21.4700919,10.5947158 21.4700919,10.4419191 21.547276,10.2986722 C21.6244601,10.1554252 21.7788283,10.0408277 21.9631053,9.96442933 C21.731553,9.95487954 21.5192968,9.94532974 21.3060757,9.94532974 C20.8921759,9.94532974 20.4773114,9.93577995 20.0045588,9.89758076 C19.7633585,9.87848117 19.5404894,9.84983179 19.3195499,9.8307322 Z M10.5493135,8.93324243 C10.5589615,9.51577995 10.4045933,10.8909505 8.78372714,11.053297 C8.39780664,11.0914962 8.0601262,10.9959982 7.78998184,10.7668031 C7.42335736,10.4516599 7.20145307,9.85957258 7.17250903,9.12423834 C7.17250903,8.95234202 7.21110109,8.53215102 7.28828519,7.9591633 C7.42335736,6.9277854 7.53913351,5.91550709 7.4523014,5.37116876 C7.42335736,5.25657121 7.30758121,5.17062306 7.15321301,5.17062306 C7.143565,5.16107326 7.13391698,5.16107326 7.12426897,5.16107326 C7.05673288,5.18017285 6.99884481,5.20882224 6.96025276,5.25657121 C6.90236468,5.32341978 6.88306866,5.39981814 6.89271667,5.47621651 C6.96990077,5.91550709 6.85412462,6.88958622 6.75764449,7.68221924 L6.68046039,8.34115512 C6.64186834,8.69449754 6.60327629,8.97144161 6.6129243,9.12423834 C6.63222033,10.0410187 6.91201269,10.7572533 7.42335736,11.1869941 C7.74174178,11.473488 8.15660632,11.6262847 8.61971093,11.6262847 C8.69689503,11.6262847 8.79337516,11.6167349 8.84161522,11.5976353 C10.5493135,11.425739 11.1281942,10.1078673 11.1088982,8.93324243 C11.0992502,8.04511146 10.7133297,7.1474307 10.4431853,6.50759441 C10.3949453,6.39299686 10.3467052,6.28794911 10.3081131,6.19245116 C10.2598731,6.08740341 10.221281,6.00145525 10.201985,5.95370628 C10.1440969,5.73406098 10.0379688,5.14197367 10.0476168,5.06557531 C10.0958569,4.93187817 10.0379688,4.77908145 9.90289661,4.71223288 C9.88360058,4.70268308 9.87395257,4.70268308 9.85465654,4.69313329 C9.82571251,4.68358349 9.78712046,4.68358349 9.75817642,4.68358349 C9.65204828,4.69313329 9.55556815,4.75998186 9.53627213,4.8650296 C9.52662411,4.89367899 9.5169761,4.94142797 9.5169761,4.97962715 C9.46873604,5.31386999 9.65204828,6.05875402 9.6713443,6.106503 C9.71958437,6.26884952 9.81606449,6.47894502 9.93184064,6.75588909 C10.201985,7.38617558 10.5396654,8.1692588 10.5493135,8.93324243 Z M14.350148,2.99307872 C13.8880082,3.17452483 13.4345516,3.22227381 12.961799,3.27002278 C12.7582259,3.28912237 12.5556177,3.30822196 12.3433614,3.33687135 C10.481295,3.6424648 8.63852455,3.71886317 6.84399421,3.77616194 C5.53186449,3.83346071 4.5477672,3.8621101 3.17774941,3.99580723 C3.27519434,3.78571173 3.27519434,3.58516603 3.17774941,3.40371992 C3.08126928,3.22227381 2.88830903,3.06947708 2.65675673,2.96442933 C2.94619711,2.95487954 2.85936499,2.96442933 3.12950935,2.96442933 C3.64085401,2.96442933 4.17149471,2.95487954 4.76967149,2.90713056 C5.39679231,2.84028199 5.95637704,2.78298322 6.4580737,2.74478404 C8.93761294,2.50603915 10.2015026,2.48693956 13.5599758,1.9999 C13.4827917,2.15269673 13.3756987,2.33414284 13.4345516,2.51558895 C13.530067,2.76388363 13.8966914,2.87848117 14.350148,2.99307872 Z M2.80176636,8.5704457 C2.71493424,10.1843611 2.59915809,11.3685357 2.57021405,13.0970487 C2.531622,14.949709 2.48338194,16.5063256 2.49302995,17.6523011 C2.49302995,18.2348386 2.49302995,18.7600774 2.48338194,19.3521647 C2.44478989,19.3235153 1.75978099,18.3971851 1.00723601,18.5213325 C0.997587997,17.3075535 0.997587997,16.3525739 1.00723601,15.5131469 C1.01688402,15.4739928 1.01688402,15.4558482 1.00723601,15.4271988 C1.01688402,15.3030514 1.01688402,15.1789041 1.01688402,15.0547568 L1.01688402,15.044252 C1.02653203,14.9201046 1.03618005,14.8055071 1.03618005,14.6918645 C1.05547607,14.1656708 1.09406812,13.6795862 1.12301216,13.221196 C1.14230819,13.1065985 1.14230819,12.9824512 1.1519562,12.8774034 C1.18090024,12.6482083 1.20019626,12.4094634 1.21949229,12.1898181 C1.27738036,11.7218782 1.31597241,11.2443884 1.3835085,10.7095999 L1.42210055,10.2607595 L1.44139658,10.0793134 L1.4606926,9.98381542 C1.4606926,9.95516603 1.4606926,9.92651664 1.47034062,9.90741705 C1.48963664,9.67822196 1.50893267,9.55407462 1.50893267,9.55407462 C1.73083696,7.49131883 1.95274125,6.00155075 1.94309323,3.09841296 C2.17464554,3.06976357 2.78247033,3.00291501 3.04296667,3.55680314 C3.12015077,3.73824925 2.87895046,4.12979086 2.87895046,4.15844025 C2.87895046,4.15844025 2.86930245,7.30987271 2.80176636,8.5704457 Z" id="Combined-Shape" fill="#FFE524"></path>
    </g>
</svg>