<?xml version="1.0" encoding="UTF-8"?>
<svg width="24px" height="24px" viewBox="0 0 24 24" version="1.1" xmlns="http://www.w3.org/2000/svg" xmlns:xlink="http://www.w3.org/1999/xlink">
    <!-- Generator: Sketch 52.5 (67469) - http://www.bohemiancoding.com/sketch -->
    <title>ic/2.rec/sports</title>
    <desc>Created with Sketch.</desc>
    <g id="ic/2.rec/sports" stroke="none" stroke-width="1" fill="none" fill-rule="evenodd">
        <path d="M4.90994223,10.11 C5.04994223,10.01 5.20994223,9.91 5.39994223,9.79 C5.01994223,8.89 4.77994223,8.3 4.44994223,7.37 C4.43994223,7.38 4.41994223,7.37 4.40994223,7.36 L4.39994223,7.36 C4.09994223,8.18 3.93994223,9.03 3.93994223,9.88 C3.93994223,10.16 3.95994223,10.44 3.98994223,10.72 C4.11994223,10.63 4.21994223,10.57 4.37994223,10.47 C4.58994223,10.32 4.74994223,10.22 4.90994223,10.11 M7.11994223,15.37 L7.10994223,15.37 C6.85994223,15.3 6.66994223,15.25 6.46994223,15.19 C6.36994223,15.16 6.27994223,15.13 6.16994223,15.1 C6.11994223,15.089 6.05994223,15.07 5.99994223,15.05 C6.32994223,15.43 6.69994223,15.78 7.09994223,16.11 C7.09994223,15.839 7.10994223,15.65 7.11994223,15.37 M5.91994223,18.41 C6.70994223,17.87 8.24994223,17.79 9.47994223,17.9 C5.96994223,16.4 3.63994223,13.24 3.63994223,9.88 C3.63994223,8.84 3.84994223,7.81 4.27994223,6.83 C2.10994223,9.99 0.509942229,14.89 1.48994223,18.08 C2.42994223,21.17 4.01994223,22.07 5.12994223,22.48 C6.38994223,22.93 7.57994223,22.87 8.11994223,22.8 C7.31994223,22.39 5.16994223,21.1 5.37994223,19.24 C5.41994223,18.91 5.59994223,18.63 5.91994223,18.41 M10.3699422,8.97 C10.4299422,8.15 10.0699422,6.6 9.97994223,6.22 L9.00994223,5.99 C8.57994223,5.89 8.17994223,5.8 7.62994223,5.67 C7.38994223,5.7 6.90994223,5.98 6.41994223,6.26 L5.89994223,6.57 C5.53994223,6.79 5.11994223,7.05 4.63994223,7.33 C4.97994223,8.24 5.20994223,8.83 5.59994223,9.73 C6.17994223,9.97 7.76994223,10.57 8.27994223,10.52 C8.32994223,10.49 8.36994223,10.45 8.40994223,10.41 C8.75994223,10.16 9.01994223,9.96 9.28994223,9.76 C9.61994223,9.52 9.93994223,9.28 10.3699422,8.97 M11.9799422,4.36 C11.9399422,3.23 11.9199422,2.61 11.8999422,1.45 C10.2099422,1.74 8.58994223,2.48 7.24994223,3.53 C7.70994223,4.18 7.78994223,5.08 7.80994223,5.4 C8.03994223,5.46 8.23994223,5.51 8.42994223,5.55 C8.65994223,5.6 8.85994223,5.65 9.06994223,5.7 L10.1199422,5.94 L10.1299422,5.94 C10.8599422,5.32 11.2599422,4.98 11.9799422,4.36 M12.5999422,17.66 C12.3699422,16.47 12.2399422,15.839 11.9899422,14.66 C11.0499422,14.42 10.5099422,14.28 9.60994223,14.06 C9.53994223,14.03 9.45994223,14.02 9.37994223,14 C9.36994223,13.99 9.34994223,13.99 9.33994223,13.98 L9.24994223,14.04 C8.48994223,14.55 8.07994223,14.83 7.31994223,15.37 C7.30994223,15.71 7.29994223,15.92 7.29994223,16.28 C8.11994223,16.91 9.05994223,17.44 10.0999422,17.83 C10.3899422,17.94 10.6399422,18.02 10.8699422,18.089 C11.1299422,18.16 11.3899422,18.23 11.6599422,18.27 C11.6699422,18.25 11.6799422,18.23 11.6999422,18.22 C12.0599422,17.99 12.2599422,17.87 12.5999422,17.66 M13.9999422,12.8 C13.9099422,11.94 13.8499422,11.44 13.7599422,10.65 L13.7299422,10.36 L13.7199422,10.36 C13.0699422,9.86 11.0499422,9.3 10.5899422,9.18 C10.1299422,9.5 9.80994223,9.75 9.46994223,10.01 C9.19994223,10.2 8.93994223,10.4 8.60994223,10.64 C8.59994223,10.65 8.58994223,10.66 8.56994223,10.67 C8.54994223,10.69 8.52994223,10.71 8.49994223,10.73 C8.57994223,10.89 8.69994223,11.11 8.82994223,11.37 C8.82994223,11.38 8.83994223,11.39 8.83994223,11.41 C9.06994223,11.89 9.30994223,12.51 9.38994223,13.08 C9.39994223,13.089 9.39994223,13.1 9.39994223,13.12 C9.42994223,13.27 9.43994223,13.42 9.42994223,13.56 C9.42994223,13.6 9.42994223,13.65 9.41994223,13.69 C9.43994223,13.7 9.45994223,13.71 9.46994223,13.71 C9.50994223,13.72 9.55994223,13.73 9.59994223,13.74 C9.62994223,13.75 9.65994223,13.76 9.68994223,13.77 C10.5999422,13.99 11.1499422,14.13 12.1399422,14.38 C12.4699422,14.1 13.6199422,13.12 13.9999422,12.8 M14.8899422,18.38 C14.7999422,18.35 14.7099422,18.33 14.6299422,18.31 C14.4799422,18.27 14.3199422,18.23 14.1699422,18.19 C13.9899422,18.15 13.8099422,18.1 13.6199422,18.05 C13.5299422,18.03 13.4399422,18.01 13.3399422,17.98 C13.1499422,17.94 12.9499422,17.89 12.7199422,17.83 L12.7099422,17.82 C12.3999422,18.01 12.2099422,18.13 11.9199422,18.32 C12.4699422,18.42 13.0299422,18.47 13.5699422,18.47 L13.6599422,18.47 C14.0699422,18.46 14.4799422,18.43 14.8899422,18.38 M17.9309422,3.63 C17.9399422,3.23 17.5199422,2.34 17.3499422,2.02 L17.3399422,2.01 C16.1899422,1.57 14.9499422,1.31 13.6599422,1.3 L13.5699422,1.3 C13.0799422,1.3 12.5799422,1.34 12.0999422,1.42 C12.1199422,2.59 12.1399422,3.2 12.1799422,4.33 C13.5499422,4.63 14.2699422,4.78 15.6499422,5.06 C16.5699422,4.49 17.0499422,4.19 17.9309422,3.63 M18.1899422,17.339 C18.0499422,17.27 17.9309422,17.2 17.7699422,17.11 C17.2099422,17.49 16.8499422,17.74 16.4399422,18.04 C17.0499422,17.86 17.6399422,17.63 18.1899422,17.339 M19.5199422,12.13 L19.5199422,12.12 C19.1809422,10.85 19.1999422,9.66 19.2199422,9.32 L18.9199422,9.23 C18.0799422,9 17.5399422,8.86 16.5999422,8.61 C15.5399422,9.1 14.1999422,10.14 13.9309422,10.36 L13.9599422,10.63 C14.0499422,11.41 14.1099422,11.9 14.1999422,12.76 C15.4099422,13.12 16.0399422,13.31 17.2299422,13.67 C18.1299422,13.05 18.6099422,12.73 19.5199422,12.13 M21.3599422,7.35 C21.1999422,6.2 21.0999422,5.61 20.8699422,4.41 C19.9799422,3.99 18.3599422,3.81 18.0599422,3.78 L18.0499422,3.78 C17.1699422,4.35 16.6999422,4.64 15.7999422,5.2 C16.6809422,6.42 16.7099422,8.02 16.6999422,8.42 C17.6099422,8.68 18.1399422,8.82 18.9699422,9.04 L19.3199422,9.13 L19.3299422,9.13 C19.8099422,8.99 20.9199422,7.83 21.3599422,7.35 M22.3299422,13.48 C21.8199422,13.36 19.9699422,12.44 19.6299422,12.28 C18.7299422,12.9 18.2499422,13.22 17.3499422,13.83 L17.3499422,13.839 C17.5799422,15.06 17.6899422,15.7 17.8599422,16.93 L17.8599422,16.94 C18.0699422,17.05 18.1999422,17.12 18.3999422,17.23 C20.0799422,16.35 21.4699422,15.03 22.3299422,13.48 M21.5599422,7.3 L23.0299422,7.82 C22.6699422,6.62 21.9899422,5.5 21.0999422,4.54 C21.3099422,5.61 21.4099422,6.21 21.5599422,7.3 M23.6499422,9.88 C23.6499422,9.95 23.6499422,10.02 23.6399422,10.08 C23.6399422,10.39 23.6099422,10.72 23.5599422,11.04 C23.5499422,11.11 23.5299422,11.18 23.5199422,11.25 C23.5099422,11.3 23.4999422,11.35 23.4899422,11.41 C23.3899422,11.78 23.2799422,12.1 23.1809422,12.35 C22.1499422,15.31 19.2699422,17.73 15.8499422,18.51 L15.8199422,18.51 C15.7899422,18.52 15.7699422,18.52 15.7399422,18.53 C15.7299422,18.54 15.7299422,18.54 15.7099422,18.54 L15.6999422,18.54 L15.6809422,18.54 C15.6699422,18.54 15.6599422,18.54 15.6599422,18.53 C15.6499422,18.54 15.6499422,18.55 15.6499422,18.55 C15.6399422,18.55 15.6399422,18.56 15.6299422,18.56 L15.6099422,18.56 L15.5899422,18.56 C14.9399422,18.69 14.3099422,18.76 13.6599422,18.77 L13.5699422,18.77 C12.6499422,18.77 11.7199422,18.64 10.7899422,18.37 C10.6299422,18.33 10.4599422,18.28 10.2799422,18.21 L10.2699422,18.21 C9.04994223,17.99 6.95994223,17.95 6.02994223,18.58 C5.75994223,18.76 5.60994223,18.99 5.57994223,19.27 C5.33994223,21.35 8.45994223,22.75 8.48994223,22.76 C8.52994223,22.78 8.55994223,22.82 8.54994223,22.86 C8.54994223,22.9 8.51994223,22.94 8.46994223,22.95 C8.43994223,22.96 7.98994223,23.05 7.32994223,23.05 C6.70994223,23.05 5.90994223,22.97 5.05994223,22.66 C3.22994223,21.99 2.03994223,20.56 1.29994223,18.14 C0.219942229,14.6 2.21994223,9.04 4.68994223,5.91 C4.73994223,5.84 4.79994223,5.78 4.85994223,5.73 C4.91994223,5.64 4.97994223,5.55 5.03994223,5.47 C6.88994223,2.75 10.2299422,1 13.5699422,1 L13.6599422,1 C18.9799422,1.04 23.6499422,5.19 23.6499422,9.88" id="Fill-1" fill="#FF7777"></path>
    </g>
</svg>