<?xml version="1.0" encoding="UTF-8"?>
<svg width="24px" height="24px" viewBox="0 0 24 24" version="1.1" xmlns="http://www.w3.org/2000/svg" xmlns:xlink="http://www.w3.org/1999/xlink">
    <!-- Generator: Sketch 52.5 (67469) - http://www.bohemiancoding.com/sketch -->
    <title>ic/2.rec/student-loan</title>
    <desc>Created with Sketch.</desc>
    <g id="ic/2.rec/student-loan" stroke="none" stroke-width="1" fill="none" fill-rule="evenodd">
        <path d="M20.889913,19.2501333 C20.7344348,19.3578667 20.5351304,19.4101333 20.316,19.4101333 L20.2742609,17.8954667 C20.724,17.8954667 21.1205217,18.0021333 21.1622609,18.5578667 C21.182087,18.8768 21.0881739,19.1114667 20.889913,19.2501333 Z M18.9282783,17.2449067 C18.9074087,16.85024 19.3456696,16.68064 19.5334957,16.6155733 C19.658713,16.5729067 19.7943652,16.55264 19.9195826,16.55264 L19.950887,17.58624 L19.8997565,17.5969067 C19.7004522,17.5969067 19.1891478,17.6193067 19.0013217,17.4379733 C18.9501913,17.3953067 18.9282783,17.33024 18.9282783,17.2449067 Z M18.0834783,15.8584533 L19.6591304,13.8957867 L19.6486957,11.6877867 L20.3895652,11.35712 L20.3895652,13.74752 L22.0173913,15.9544533 C22.0278261,15.96512 22.0382609,15.99712 22.0382609,16.0184533 L22.0173913,20.89312 C22.0173913,20.92512 21.9965217,20.94752 21.986087,20.9677867 C21.9652174,20.9901867 21.9328696,20.9997867 21.9130435,20.9997867 L21.9026087,20.9997867 L18.1773913,20.9357867 C18.1147826,20.9357867 18.0730435,20.8824533 18.0730435,20.82912 L18.0521739,15.92352 C18.0521739,15.90112 18.0615652,15.8808533 18.0834783,15.8584533 Z M19.44,16.3064533 C18.8973913,16.47712 18.5947826,16.82912 18.6052174,17.2568533 C18.6156522,17.4264533 18.6772174,17.56512 18.7930435,17.6717867 C19.0330435,17.91712 19.4921739,17.9277867 19.9095652,17.9064533 L19.9617391,17.9064533 L20.0034783,19.4104533 C19.7426087,19.3784533 19.4713043,19.3037867 19.2626087,19.19712 C19.0215652,19.0808533 18.9078261,18.9517867 18.8973913,18.8664533 C18.8973913,18.7917867 18.8243478,18.71712 18.7513043,18.71712 L18.7408696,18.71712 C18.6469565,18.7277867 18.5833043,18.8024533 18.5947826,18.8877867 C18.6052174,19.1117867 18.7930435,19.32512 19.1269565,19.48512 C19.3878261,19.6141867 19.7008696,19.70912 20.013913,19.7304533 L20.0233043,20.1144533 C20.0233043,20.1997867 20.0973913,20.2744533 20.1808696,20.2744533 L20.1913043,20.2744533 C20.2747826,20.2637867 20.3373913,20.1901867 20.3373913,20.1037867 L20.325913,19.74112 C20.6086957,19.7304533 20.8695652,19.6568533 21.0667826,19.51712 C21.2765217,19.3784533 21.5165217,19.0808533 21.4747826,18.5357867 C21.4017391,17.6824533 20.733913,17.56512 20.2643478,17.5757867 L20.2330435,16.5517867 C20.5669565,16.57312 20.8591304,16.6904533 20.9634783,16.8717867 C21.0052174,16.94752 21.1085217,16.9677867 21.1826087,16.92512 C21.2556522,16.8717867 21.2765217,16.7757867 21.2347826,16.70112 C21.0469565,16.3917867 20.64,16.2424533 20.2226087,16.22112 L20.2121739,15.86912 C20.2121739,15.77312 20.1391304,15.7197867 20.0452174,15.70912 C19.9617391,15.70912 19.8991304,15.7837867 19.8991304,15.8808533 L19.9095652,16.22112 C19.7530435,16.2317867 19.5850435,16.2637867 19.44,16.3064533 Z M17.1021913,16.6907733 C12.8865391,19.1867733 8.20132174,17.83104 6.09349565,16.6257067 C5.63436522,16.3707733 5.3421913,15.8587733 5.35262609,15.3147733 L5.36306087,12.0401067 L11.2795826,15.0481067 C11.4569739,15.1441067 11.6448,15.1867733 11.8430609,15.1867733 C12.0204522,15.1867733 12.1978435,15.1441067 12.3648,15.0683733 L17.6969739,12.6801067 L17.6656696,15.5163733 C17.6656696,15.9227733 17.5101913,16.44544 17.1021913,16.6907733 Z M11.7808696,8.54133333 C12.1565217,8.54133333 12.4591304,8.40266667 12.4591304,8.232 C12.4591304,8.06133333 12.1565217,7.92266667 11.7808696,7.92266667 C11.4156522,7.92266667 11.1130435,8.06133333 11.1130435,8.232 C11.1130435,8.40266667 11.4156522,8.54133333 11.7808696,8.54133333 Z M17.7172174,12.0826667 L12.1982609,14.5573333 C11.9686957,14.664 11.7078261,14.6533333 11.4782609,14.536 L5.38434783,11.4426667 L5.29043478,11.3893333 L5.18608696,11.336 L0.104347826,8.75466667 C1.81188398e-13,8.70133333 1.81188398e-13,8.59466667 1.81188398e-13,8.56266667 C1.81188398e-13,8.53066667 0.0208695652,8.424 0.135652174,8.392 L11.5826087,5.02133333 C11.6452174,5.01066667 11.6973913,5 11.76,5 C11.8330435,5 11.906087,5.01066667 11.9686957,5.032 L23.4563478,9.13866667 C23.5721739,9.18133333 23.5826087,9.288 23.5826087,9.32 C23.5826087,9.352 23.5826087,9.45866667 23.4782609,9.50133333 L20.3895652,10.888 C19.1791304,10.1093333 13.0121739,8.62666667 12.6782609,8.41333333 C12.6782609,8.41333333 12.7408696,8.66933333 12.8034783,8.776 L13.5756522,9.17066667 C11.7182609,9.21333333 10.8208696,8.57333333 10.8208696,8.57333333 L10.8626087,8.968 C11.4991304,9.256 12.24,9.43733333 14.0765217,9.77866667 C14.5252174,9.864 14.9530435,9.94933333 15.3693913,10.056 C15.5373913,10.088 15.693913,10.1306667 15.8493913,10.1733333 C15.9965217,10.2053333 16.1426087,10.248 16.2782609,10.2906667 C16.2782609,10.2906667 16.9346087,10.472 16.946087,10.472 C17.0608696,10.504 17.1652174,10.536 17.2695652,10.5786667 C17.3426087,10.6 17.4146087,10.6213333 17.4782609,10.6426667 C18.0313043,10.8133333 18.458087,10.9626667 18.6886957,11.0373333 C18.9913043,11.1333333 19.2521739,11.24 19.44,11.3146667 L17.9269565,11.9866667 L17.8226087,12.04 L17.7172174,12.0826667 Z" id="Combined-Shape" fill="#FF7777"></path>
    </g>
</svg>