<?xml version="1.0" encoding="UTF-8"?>
<svg width="24px" height="24px" viewBox="0 0 24 24" version="1.1" xmlns="http://www.w3.org/2000/svg" xmlns:xlink="http://www.w3.org/1999/xlink">
    <!-- Generator: Sketch 52.5 (67469) - http://www.bohemiancoding.com/sketch -->
    <title>ic/3.var/tax</title>
    <desc>Created with Sketch.</desc>
    <g id="ic/3.var/tax" stroke="none" stroke-width="1" fill="none" fill-rule="evenodd">
        <path d="M12.2723841,16.0005984 C14.7812732,16.031096 16.7453357,17.1189568 17.1474625,18.4916923 C17.330763,19.1186246 17.041184,19.7181783 16.1721483,20.1818794 C15.2087755,20.6958322 13.5516071,21.0451675 12.2768621,20.9952625 C11.0573462,20.9481299 9.4407786,20.6445409 8.42157973,20.1461835 C7.39879845,19.6460932 7.05518454,19.0146557 7.25371038,18.3651969 C7.43969776,17.7552462 8.08393652,17.1844572 8.94401618,16.7467483 C9.89753732,16.2622534 11.0045055,15.9853497 12.2723841,16.0005984 Z M15.2420692,18.8708869 C15.2411229,18.8499857 15.2411229,18.8397574 15.2411229,18.8193008 C15.6237275,18.8193008 15.8158183,18.8184114 16.2,18.8184114 C16.1612033,18.5844951 16.1419627,18.467537 16.1034814,18.2340654 C15.704475,18.2345101 15.5048141,18.2345101 15.1064385,18.2353995 C15.1010764,18.2176112 15.0979222,18.2087171 15.0919292,18.1909287 C14.847794,17.4553821 14.2021291,16.9991119 13.3665812,17.0000013 C12.5433348,17.0013354 12.0963845,17.3135203 11.7021094,18.1059896 C11.4910933,18.5297961 11.322659,18.7494817 11.1387691,18.8624375 C11.03058,18.9278095 10.9151362,18.9567155 10.7839215,18.9527132 C10.6044474,18.946932 10.4426369,18.8886753 10.3344478,18.7895054 C10.2057564,18.6716579 10.14835,18.5008901 10.1634901,18.2829833 C10.1950321,17.8227107 10.4010015,17.5145282 10.5334779,17.3299745 C10.1609668,17.2472588 9.97423806,17.2063457 9.60582739,17.1245195 C9.4569491,17.3299745 9.28031384,17.6185898 9.20461302,18.0601847 C9.2011434,18.0806412 9.19862004,18.0908695 9.194835,18.1122155 C8.83841028,18.1010978 8.65925167,18.0953166 8.30282695,18.0846436 C8.26182234,18.3105551 8.24132003,18.4239556 8.2,18.6507566 C8.59459055,18.6636531 8.79298979,18.6694343 9.18726491,18.6818861 C9.18978827,18.698785 9.19073453,18.7085686 9.1932579,18.7254675 C9.30996333,19.4347764 10.0060955,19.8817077 10.9264913,19.9155055 C11.7916887,19.9470798 12.2518866,19.6242219 12.6407996,18.7481476 C12.8969207,18.1713616 13.1312778,17.9632384 13.5164058,17.9623489 C13.7185901,17.9614595 13.890494,18.0343916 14.015085,18.172251 C14.1305287,18.3007716 14.2008674,18.4813229 14.2112763,18.6930038 C14.235879,19.1777353 14.0182392,19.5882006 13.8526436,19.8203381 C14.2740449,19.891936 14.492631,19.9279573 14.9380042,20 C15.0994993,19.7700861 15.262256,19.3507266 15.2420692,18.8708869 Z M24,10.9090909 L24,18.0593196 L18.6030031,18.0624653 L21.4736842,24 L2.52631579,24 L5.74446678,18.0624653 L0.000921670784,18.0598439 L-6.75015599e-14,10.9090909 L6.35707062,10.9090909 L6.35707062,8.72727273 L7.66154201,8.72727273 L7.66154201,6.55985029 L6.97243948,6.55958815 L6.97274671,5.29870442 L7.76138967,5.29870442 C7.76138967,5.29870442 7.76016078,4.03729641 8.74634852,2.94496741 C9.73161459,1.85237626 11,1.34749849 11,1.34749849 L11,1.42108547e-14 L13,1.42108547e-14 L13,1.34749849 C13,1.34749849 14.3630103,1.85237626 15.3495052,2.94470527 C16.3344641,4.03729641 16.3347713,5.29844228 16.3347713,5.29844228 L17.1234143,5.29870442 L17.1234143,6.55958815 L16.4333901,6.55932601 L16.4333901,8.72727273 L17.6312549,8.72727273 L17.6842105,10.9090909 L24,10.9090909 Z M15.1793034,6.56823871 L13.8677658,6.56797657 L13.8689947,8.65564352 L15.180225,8.65538138 L15.1793034,6.56823871 Z M12.6812683,6.56797657 L11.370038,6.56797657 L11.370038,8.65538138 L12.6818828,8.65564352 L12.6812683,6.56797657 Z M10.182926,6.56850084 L8.87200297,6.56797657 L8.87200297,8.65538138 L10.1832333,8.65538138 L10.182926,6.56850084 Z M5.63939631,15.5360886 L6.47903839,15.5360886 L6.99793904,14.4967114 L5.63939631,14.4967114 L5.63939631,15.5360886 Z M20.6632445,23.2924896 L16.5227922,14.4870123 L7.90301975,14.4870123 L3.66763527,23.3129363 L20.6632445,23.2924896 Z M18.7403321,15.5360886 L18.7403321,14.4967114 L17.3863977,14.4967114 L17.8973105,15.5360886 L18.7403321,15.5360886 Z" id="Combined-Shape" fill="#FFE524"></path>
    </g>
</svg>