<?xml version="1.0" encoding="UTF-8"?>
<svg width="24px" height="24px" viewBox="0 0 24 24" version="1.1" xmlns="http://www.w3.org/2000/svg" xmlns:xlink="http://www.w3.org/1999/xlink">
    <!-- Generator: Sketch 52.5 (67469) - http://www.bohemiancoding.com/sketch -->
    <title>ic/2.rec/transport</title>
    <desc>Created with Sketch.</desc>
    <g id="ic/2.rec/transport" stroke="none" stroke-width="1" fill="none" fill-rule="evenodd">
        <path d="M24,18.3558136 L22.022625,18.3558136 L22.022625,14.999423 L20.230875,14.999423 L20.230875,12.7459543 L23.4941719,12.7459543 L23.4941719,11.642423 L17.0568281,11.642423 L17.0568281,12.3786886 L16.2765469,12.3786886 L16.2765469,11.642423 L9.33473438,11.642423 L9.33473438,12.3786886 L6.05535937,12.3786886 L6.22570312,10.9065324 L6.43678125,10.9065324 L6.43678125,9.34526676 L5.95959375,9.34526676 C6.12628125,8.75253238 6.48351562,7.81301676 7.12696875,7.50551676 C8.0926875,7.04346988 8.04632812,8.42525113 10.3004531,7.36601676 C12.5519531,6.30954801 12.276375,7.04337613 13.0125469,7.36601676 C13.7481094,7.68898551 14.3436094,8.10261051 15.9094687,7.27521988 C17.4714375,6.44661051 17.4257812,7.55178238 17.6085,7.55178238 C17.793,7.55178238 19.4942812,8.51581363 20.1832969,6.40221988 C20.8735312,4.28820426 18.8952656,3.27542301 18.1604062,3.27542301 C17.4257812,3.27542301 16.7828906,4.28820426 15.8164687,3.55198551 C14.8504219,2.81337613 14.4831094,2.95250113 13.0567031,3.22901676 C11.6318437,3.50548551 11.4937031,3.09186051 10.8525937,2.76964176 C10.20675,2.44864176 8.50640625,1.15962613 7.21771875,2.86240738 C5.9326875,4.56246988 6.98995312,5.02245426 6.39046875,5.38939176 C5.79225,5.75867301 5.01267187,6.49292301 4.96626562,6.99936051 C4.91990625,7.50542301 4.5065625,8.23967301 4.8735,9.20576676 C4.89426562,9.25681363 4.91315625,9.30082926 4.93335937,9.34517301 L4.13967188,9.34517301 L4.13967188,10.9064386 L4.28648438,10.9064386 L4.4323125,12.3785949 L2.62139063,12.3785949 L1.21439063,14.5857511 L2.59382813,16.8385636 L1.28934375,16.8385636 L1.28934375,18.3557668 L0,18.3557668 L0,19.1827824 L1.1355,19.1827824 C0.9721875,19.4035168 0.87365625,19.6777355 0.87365625,19.9741261 C0.87365625,20.7107199 1.47079688,21.3071574 2.20710937,21.3071574 C2.94328125,21.3071574 3.5415,20.710673 3.5415,19.9741261 C3.5415,19.6777355 3.44334375,19.4035168 3.279375,19.1827824 L4.69776562,19.1827824 C4.69673437,19.2177043 4.69335938,19.248923 4.69335938,19.2842199 C4.69335938,20.4008761 5.59767187,21.3071105 6.71634375,21.3071105 C7.83435937,21.3071105 8.7399375,20.4008761 8.7399375,19.2842199 C8.7399375,19.248923 8.73525,19.2177043 8.73525,19.1827824 L9.48051563,19.1827824 C9.47920313,19.2177043 9.47610938,19.248923 9.47610938,19.2842199 C9.47610938,20.4008761 10.3817812,21.3071105 11.4991406,21.3071105 C12.6156563,21.3071105 13.5210469,20.4008761 13.5210469,19.2842199 C13.5210469,19.248923 13.5180469,19.2177043 13.514625,19.1827824 L14.2619063,19.1827824 C14.2596094,19.2177043 14.2575,19.248923 14.2575,19.2842199 C14.2575,20.4008761 15.1627969,21.3071105 16.2808125,21.3071105 C17.3974219,21.3071105 18.3013125,20.4008761 18.3013125,19.2842199 C18.3013125,19.248923 18.2999531,19.2177043 18.2992969,19.1827824 L19.8010312,19.1827824 C19.6370156,19.4035168 19.5405469,19.6777355 19.5405469,19.9741261 C19.5405469,20.7107199 20.1357187,21.3071574 20.8733437,21.3071574 C21.6082969,21.3071574 22.206375,20.710673 22.206375,19.9741261 C22.206375,19.6777355 22.1078906,19.4035168 21.9466406,19.1827824 L24,19.1827824 L24,18.3558136 Z" id="Path" fill="#FF7777"></path>
    </g>
</svg>