<?xml version="1.0" encoding="UTF-8"?>
<svg width="24px" height="24px" viewBox="0 0 24 24" version="1.1" xmlns="http://www.w3.org/2000/svg" xmlns:xlink="http://www.w3.org/1999/xlink">
    <!-- Generator: Sketch 52.5 (67469) - http://www.bohemiancoding.com/sketch -->
    <title>ic/2.rec/TV</title>
    <desc>Created with Sketch.</desc>
    <g id="ic/2.rec/TV" stroke="none" stroke-width="1" fill="none" fill-rule="evenodd">
        <path d="M2.331573,12.925934 C2.54389142,12.1564793 3.22421556,11.6729441 3.8511195,11.845928 C4.47802344,12.0189119 4.81411142,12.7829093 4.601793,13.552364 C4.38947458,14.3218187 3.70915044,14.8053539 3.0822465,14.63237 C2.45534256,14.4593861 2.11925458,13.6953887 2.331573,12.925934 Z M8.44568543,6.83825011 C9.03993267,6.10047782 20.2314675,4.47795799 20.7272812,5.16649719 C21.2223657,5.85431238 21.0254985,15.5423703 20.281778,16.0347012 C19.5395158,16.524136 9.03920353,17.3118654 8.44568543,16.8702156 C7.85143819,16.4278418 7.85143819,7.5760224 8.44568543,6.83825011 Z M23.4949756,2.30070919 C24.4332221,3.50986618 23.9637238,19.7996114 22.9092277,20.6641366 C21.8539816,21.5279253 1.74430605,22.505855 0.747559734,21.6995048 C-0.249186578,20.8946275 -0.249186578,5.6976892 0.747559734,4.7764618 C1.74430605,3.8552344 22.556729,1.0922886 23.4949756,2.30070919 Z M2.15380453,6.49667539 C2.03680496,6.80375119 1.9190554,7.22644066 2.15380453,7.45545882 C2.38855366,7.68521338 4.85079455,7.437049 5.13279351,7.18741184 C5.41479247,6.93851107 5.28054296,6.13216095 5.13279351,5.92155261 C4.98429406,5.71020787 2.2708041,6.18959959 2.15380453,6.49667539 Z M2.15305453,8.57109392 C2.03605497,8.87816972 1.9183054,9.3001228 2.15305453,9.52987735 C2.38780367,9.75963191 4.85004456,9.51146753 5.13204351,9.26183037 C5.41479247,9.0129296 5.27979297,8.20657948 5.13204351,7.99523475 C4.98429406,7.7846264 2.2700541,8.26401812 2.15305453,8.57109392 Z M5.13204351,19.8599956 C5.41479247,19.6103585 5.27979297,18.8032719 5.13204351,18.5926636 C4.98429406,18.3813189 2.2700541,18.8607106 2.15305453,19.16705 C2.03605497,19.4748622 1.9183054,19.8975516 2.15305453,20.1273062 C2.38780367,20.3570608 4.85004456,20.1088964 5.13204351,19.8599956 Z M5.13279351,17.7870499 C5.41479247,17.5366763 5.28054296,16.7303262 5.13279351,16.5189815 C4.98429406,16.3083731 2.2708041,16.7877648 2.15380453,17.0941042 C2.03680496,17.4019164 1.9190554,17.8238695 2.15380453,18.0536241 C2.38855366,18.2819058 4.85079455,18.0359506 5.13279351,17.7870499 Z M5.69904141,13.6418948 C6.11603987,12.1543813 5.45529232,10.6786501 4.22229688,10.3450642 C2.99005144,10.0100055 1.65205639,10.9444879 1.23430793,12.431265 C0.817309476,13.9180421 1.47730703,15.3937733 2.71030247,15.728832 C3.94329791,16.0616815 5.28054296,15.1294082 5.69904141,13.6418948 Z M21.3267336,16.9225247 C22.2049803,16.3451928 22.4397295,5.00621635 21.8539816,4.20133902 C21.2674838,3.3949889 8.01803284,5.29414594 7.31453544,6.1579347 C6.61103804,7.02172346 6.61103804,17.3827702 7.31453544,17.9011908 C8.01803284,18.4188749 20.4477368,17.4969111 21.3267336,16.9225247 Z" id="Combined-Shape" fill="#FF7777"></path>
    </g>
</svg>