<?xml version="1.0" encoding="UTF-8"?>
<svg width="24px" height="24px" viewBox="0 0 24 24" version="1.1" xmlns="http://www.w3.org/2000/svg" xmlns:xlink="http://www.w3.org/1999/xlink">
    <!-- Generator: Sketch 52.5 (67469) - http://www.bohemiancoding.com/sketch -->
    <title>ic/3.var/to-categorise</title>
    <desc>Created with Sketch.</desc>
    <g id="ic/3.var/to-categorise" stroke="none" stroke-width="1" fill="none" fill-rule="evenodd">
        <rect fill="#000000" x="0" y="0" width="24" height="24"></rect>
        <path d="M19.2365687,2.10363199 C25.6518477,10.0142992 12.4996067,15.1337555 12.4996067,15.1337555 L12.6734687,18.4117881 L9.21920552,19 L7.23242977,14.2928138 C12.7615486,12.5281781 15.6972893,8.40845833 12.5869206,6.72732041 C9.47731787,5.046928 6.10960276,9.75411419 6.10960276,9.75411419 L3,8.91317247 C3.51852243,1.17919251 15.3503312,-2.68705196 19.2365687,2.10363199 Z M9.45895034,22.8164329 C9.10037489,21.8044795 9.83618156,20.6151905 11.1024205,20.1600816 C12.3686595,19.7049727 13.6858318,20.1563844 14.0444073,21.1683379 C14.4029828,22.1802913 13.6671761,23.3695804 12.4009371,23.8246892 C11.1346981,24.2797981 9.81752579,23.8283864 9.45895034,22.8164329 Z" id="Combined-Shape" fill-opacity="0.54" fill="#FFFFFF"></path>
    </g>
</svg>