<?xml version="1.0" encoding="UTF-8"?>
<svg width="24px" height="24px" viewBox="0 0 24 24" version="1.1" xmlns="http://www.w3.org/2000/svg" xmlns:xlink="http://www.w3.org/1999/xlink">
    <!-- Generator: Sketch 52.5 (67469) - http://www.bohemiancoding.com/sketch -->
    <title>ic/2.rec/utilites-2</title>
    <desc>Created with Sketch.</desc>
    <g id="ic/2.rec/utilites-2" stroke="none" stroke-width="1" fill="none" fill-rule="evenodd">
        <path d="M17.6139463,18.3587068 C16.0193112,16.9005664 10.4414652,19.3548027 9.64527331,18.2927004 C8.84833097,17.2305981 12.285989,16.41902 13.0063889,14.5760925 C13.3688401,13.6482532 12.7895185,12.6146536 12.5531373,11.7288183 C13.8521083,11.5570518 14.9807348,11.3320301 15.289156,11.1250102 C15.8827354,10.7297221 16.1806508,7.75643582 16.2962149,6.26529223 L17.0173652,6.14753089 C17.0173652,6.14753089 17.5741743,3.94756905 17.0173652,3.8245572 C16.4605561,3.70229543 15.78293,3.6842937 15.0475218,3.73904897 C15.0872939,2.71820067 15.1030527,1.06129111 14.8111406,0.681754566 C14.3789007,0.123700828 13.8018304,-0.243834564 13.3103076,0.191957401 C12.8337931,0.611247776 13.0566668,3.78855374 13.0761776,4.01957598 C12.0293466,4.22659592 10.956251,4.51987416 9.9717045,4.83715471 C10.0204816,4.03757772 10.1315432,1.61484442 9.72106538,1.25180946 C9.22954256,0.816767567 8.65247226,1.18430296 8.22098276,1.7423567 C7.82701409,2.24940552 7.9868528,5.03967421 8.01987113,5.54072246 C6.87548594,6.00351703 6.10105609,6.42205733 6.05903277,6.61032546 C5.92620904,7.20738295 6.05903277,7.9379533 6.05903277,7.9379533 L7.11937131,7.76468662 C7.12312339,8.86954301 7.18315671,11.4895453 7.65291745,11.8540804 C7.91706407,12.0596002 9.28807505,12.0438487 10.8016652,11.9170865 C10.8316818,12.6431564 11.1363509,13.6917574 10.6883523,14.4313286 C10.2688694,15.1221451 5.97723737,15.9742272 7.11937131,19.2220399 C7.95983781,21.6125201 14.2040537,19.2887963 15.0670327,20.0838729 C15.9307621,20.8804496 13.7613079,24 13.7613079,24 L15.3544422,24 C15.3544422,24 19.2070806,19.8183473 17.6139463,18.3587068 Z" id="Path" fill="#FF7777"></path>
    </g>
</svg>