<?xml version="1.0" encoding="UTF-8"?>
<svg width="24px" height="24px" viewBox="0 0 24 24" version="1.1" xmlns="http://www.w3.org/2000/svg" xmlns:xlink="http://www.w3.org/1999/xlink">
    <!-- Generator: Sketch 52.5 (67469) - http://www.bohemiancoding.com/sketch -->
    <title>ic/3.var/var-spending</title>
    <desc>Created with Sketch.</desc>
    <g id="ic/3.var/var-spending" stroke="none" stroke-width="1" fill="none" fill-rule="evenodd">
        <path d="M8.15898225,15.3056043 C8.15898225,15.3056043 15.2266357,13.9869439 23,15.3056043 L22.2935359,18.1408016 C22.2935359,18.1408016 18.3748445,16.6907389 6.42445478,18.1408016 C6.42445478,18.1408016 5.73079442,11.28083 4.04672867,6.4251295 C2.21278407,6.86571359 0.642445478,7.52581678 0.642445478,7.52581678 C0.0640185998,6.99788882 0,6.00927995 0,6.00927995 C1.92733643,4.95419698 4.6899273,4.03128925 4.6899273,4.03128925 C4.6899273,4.03128925 6.55324514,6.73508427 8.15898225,15.3056043 Z M6.44225785,22.7935214 C5.88149563,21.6571798 6.49160658,20.2044104 7.80497879,19.5486703 C9.11835099,18.8929301 10.6376371,19.2825346 11.1983993,20.4188763 C11.7591615,21.5552179 11.1490506,23.0079873 9.8356784,23.6637274 C8.52230619,24.3194676 7.00302006,23.9298631 6.44225785,22.7935214 Z M16.4897929,22.9185589 C15.9626788,21.8508829 16.600067,20.4535389 17.9134392,19.7975038 C19.2268114,19.1414686 20.7188203,19.4751695 21.2459344,20.5428455 C21.7730485,21.6105215 21.1356604,23.0078655 19.8222882,23.6639006 C18.508916,24.3199357 17.016907,23.9862349 16.4897929,22.9185589 Z M9.5274808,12.9829048 C9.1043095,12.6378609 7.65333524,7.52538079 8.07650653,6.97217675 C8.49967782,6.4189727 13.9406541,5.65679846 14.5459946,6.2804692 C15.1513351,6.90252002 15.1513351,12.0150002 14.5459946,12.4305107 C13.9413629,12.8452112 9.95065209,13.3303785 9.5274808,12.9829048 Z M22.6797918,7.20407523 C23.0937254,7.52455944 24.3541458,12.0509568 23.9044049,12.515765 C23.454664,12.9777434 17.9310145,13.3958586 17.3466378,12.8256372 C16.762261,12.2554158 16.9656471,7.79269082 17.5922765,7.46017961 C18.218906,7.12766839 22.2665745,6.88500595 22.6797918,7.20407523 Z M10.9310554,4.73423233 C10.3644954,4.49191748 9.60809714,2.55764982 10.2381828,1.95469679 C10.8690071,1.34961819 20.1740349,-0.524425018 20.6874106,0.140878034 C21.2022637,0.805472564 20.9932201,4.18866966 20.6874106,4.73423233 C20.3830785,5.27837796 11.498354,4.97583866 10.9310554,4.73423233 Z" id="Combined-Shape" fill="#FFE524"></path>
    </g>
</svg>